<svg xmlns="http://www.w3.org/2000/svg" viewBox="0 0 365 132.5" width="400px">
	<title>Gato de Schrödinger – Derian Castillo</title>
	<path fill="currentColor" d="M0,47.5v85H365v-85Zm355,75H10v-65H355ZM105.19,115,123,65h12V95.27c0,5.33,3.23,8.63,8.56,8.63s8.43-3.3,8.43-8.7V65h12V95.2a23.31,23.31,0,0,1-.25,3.49c-1.38,9.66-8.61,16.31-20.25,16.31-11.88,0-19-6.49-20.28-16.34l-6,16.34Zm213.35-10.93H303.39V95.14H315.8V84.29H303.39V75.93H318V65h29.42V75.93H332.81v8.36h12.41V95.14H332.81v8.93h15.07V115H318.54ZM28.72,115H17.12V65H32.85l12.4,31.64L57.72,65H73.57l18.07,50H61.85V82.21l-11,28.72H39.69l-11-28.72Zm69.82-14.43L87.26,65h22.57ZM203.33,65H176.79v50H221.4Zm10.12,39.07H189.14V95.14h12.41V84.29H189.14V75.93h14.14ZM265.05,115V96.5h3.73l9,18.5H291v-.46l-11.29-21c4.59-2.5,6.95-7.71,6.95-13.21C286.7,70.43,281,65,269.14,65H252.76l-18.07,50Zm0-39.5h3.09c4.44,0,6,2,6,5.29s-2.08,5.5-5.45,5.5h-3.66Zm-37,25.07L216.76,65h22.57Z"></path>
	<path fill="currentColor" d="M23,16.74a3.36,3.36,0,0,0,3.58,2.81,4.37,4.37,0,0,0,3.55-1.81l3.54,2.74a8.09,8.09,0,0,1-7.19,3.75c-5.58,0-9-3.84-9-8.84s3.36-8.94,8.32-8.94c5.39,0,8.33,3.45,8.33,9.23a9.93,9.93,0,0,1,0,1.06Zm.16-3.42h5.48a2.59,2.59,0,0,0-2.74-2.51A2.68,2.68,0,0,0,23.18,13.32ZM36.3.48h5.39V23.81H36.3Zm26.45,22a6.23,6.23,0,0,1-4.52,1.71c-4.9,0-8-3.65-8-8.91s3.42-8.87,8.3-8.87a6.39,6.39,0,0,1,4.58,1.74V6.87h5v14.9C68.14,28,63.78,30,58.75,30a14.63,14.63,0,0,1-6.26-1.45l1.58-4.13a11.75,11.75,0,0,0,4.68,1c2,0,4-.45,4-2.51ZM59.24,11.19c-2.17,0-3.62,1.58-3.62,4.1s1.45,4.19,3.65,4.19,3.64-1.51,3.64-4.19C62.91,13,61.56,11.19,59.24,11.19Zm17.54,1.75a8.61,8.61,0,0,1,3.26.61v-.61c0-1-.84-1.84-2.58-1.84a9.83,9.83,0,0,0-4.26,1.06l-2-3.61a12.3,12.3,0,0,1,6.9-2.1c5.84,0,7.33,3,7.33,6.87V23.81H80.62l-.29-.94a5.15,5.15,0,0,1-3.84,1.36c-3.32,0-6.29-2-6.29-5.68C70.2,15.16,72.78,12.94,76.78,12.94Zm1.1,7.16c1.29,0,2.25-.62,2.25-1.75s-1-1.8-2.29-1.8-2.25.71-2.25,1.8S76.62,20.1,77.88,20.1ZM94.16,6.87H97v4.36H94.16v6.22c0,1.49,1,1.84,2.1,1.84.29,0,.55,0,.9,0v4.61a8.81,8.81,0,0,1-2.06.19c-4,0-6.32-1.83-6.32-6.87v-6H87.13V6.87h1.65V3.29h5.38ZM108,6.45c5.45,0,9.29,3.74,9.29,8.87s-3.94,8.91-9.29,8.91-9.19-3.75-9.19-8.84A8.85,8.85,0,0,1,108,6.45Zm0,13a3.92,3.92,0,0,0,3.9-4.16,3.88,3.88,0,0,0-3.9-4.13c-2.23,0-3.81,1.71-3.81,4.2A3.79,3.79,0,0,0,108,19.48Zm29.86,3a6.34,6.34,0,0,1-4.58,1.75c-4.87,0-8.29-3.68-8.29-8.88s3.1-8.9,8-8.9a6.26,6.26,0,0,1,4.52,1.71V.48h5.39V23.81h-5ZM134,11.19c-2.2,0-3.65,1.71-3.65,4.2s1.49,4.13,3.65,4.13c2.32,0,3.64-1.87,3.64-4.13C137.67,12.71,136.16,11.19,134,11.19Zm16.64,5.55a3.36,3.36,0,0,0,3.58,2.81,4.37,4.37,0,0,0,3.55-1.81l3.55,2.74a8.13,8.13,0,0,1-7.2,3.75c-5.58,0-9-3.84-9-8.84s3.36-8.94,8.32-8.94c5.39,0,8.33,3.45,8.33,9.23a9.93,9.93,0,0,1,0,1.06Zm.16-3.42h5.48a2.59,2.59,0,0,0-2.74-2.51A2.68,2.68,0,0,0,150.83,13.32ZM184.63,6l-4.58,2.1a3.06,3.06,0,0,0-2.84-2.23,1.59,1.59,0,0,0-1.77,1.52c0,3.06,9.42,2.74,9.42,9.64,0,4.17-3,7.17-7.91,7.17a7.84,7.84,0,0,1-7.67-5.39l4.61-2.29a4,4,0,0,0,3.39,2.51c1.32,0,2-.58,2-1.58,0-3-9.36-2.74-9.36-10,0-4.07,2.94-6.71,7.42-6.71A7.41,7.41,0,0,1,184.63,6Zm14.58,12.26,1.42,4.42a8.85,8.85,0,0,1-5,1.52c-5.39,0-9.19-3.68-9.19-8.88s3.93-8.9,9.16-8.9a8.54,8.54,0,0,1,5,1.55l-1.45,4.55a5.33,5.33,0,0,0-3.39-1.26,3.77,3.77,0,0,0-4,4A3.94,3.94,0,0,0,196,19.48,5.28,5.28,0,0,0,199.21,18.29Zm13.58-4.58a2.16,2.16,0,0,0-2.23-2.42,2.3,2.3,0,0,0-2.39,2.42v10.1h-5.38V.48h5.38V8.61a5,5,0,0,1,4.2-2.16c5.29,0,5.8,4.52,5.8,8v9.39h-5.38Zm18.09-1.77a4.83,4.83,0,0,0-.87-.07c-2.62,0-3.49,1.9-3.49,4.45v7.49h-5.38V6.87h5.25V9.13a4.77,4.77,0,0,1,4.49-2.68Zm10.48-5.49c5.45,0,9.29,3.74,9.29,8.87s-3.94,8.91-9.29,8.91-9.19-3.75-9.19-8.84A8.85,8.85,0,0,1,241.36,6.45Zm-5.61-3.71a2.48,2.48,0,0,1,5,0,2.48,2.48,0,1,1-5,0Zm5.61,16.74a3.92,3.92,0,0,0,3.9-4.16,3.88,3.88,0,0,0-3.9-4.13c-2.23,0-3.81,1.71-3.81,4.2A3.79,3.79,0,0,0,241.36,19.48Zm.87-16.74a2.49,2.49,0,0,1,5,0,2.49,2.49,0,1,1-5,0ZM264.9,22.48a6.34,6.34,0,0,1-4.58,1.75c-4.87,0-8.29-3.68-8.29-8.88s3.1-8.9,8-8.9a6.28,6.28,0,0,1,4.52,1.71V.48h5.39V23.81h-5Zm-3.84-11.29c-2.19,0-3.64,1.71-3.64,4.2s1.48,4.13,3.64,4.13c2.33,0,3.65-1.87,3.65-4.13C264.71,12.71,263.19,11.19,261.06,11.19Zm11.61-8.25a2.89,2.89,0,0,1,3-2.94,2.92,2.92,0,1,1,0,5.84A2.88,2.88,0,0,1,272.67,2.94Zm5.75,20.87H273V6.87h5.39Zm13-10.1a2.16,2.16,0,0,0-2.23-2.42,2.25,2.25,0,0,0-2.32,2.42v10.1h-5.39V6.87h5.26V8.61A5.07,5.07,0,0,1,291,6.45c5.29,0,5.8,4.52,5.8,8v9.39h-5.38Zm20,8.81a6.22,6.22,0,0,1-4.51,1.71c-4.91,0-8-3.65-8-8.91s3.42-8.87,8.29-8.87a6.39,6.39,0,0,1,4.58,1.74V6.87h5v14.9c0,6.26-4.35,8.23-9.39,8.23a14.67,14.67,0,0,1-6.26-1.45l1.59-4.13a11.64,11.64,0,0,0,4.67,1c2,0,4-.45,4-2.51Zm-3.51-11.33c-2.16,0-3.62,1.58-3.62,4.1s1.46,4.19,3.65,4.19,3.64-1.51,3.64-4.19C311.6,13,310.25,11.19,307.93,11.19Zm16.54,5.55a3.36,3.36,0,0,0,3.58,2.81,4.36,4.36,0,0,0,3.55-1.81l3.55,2.74a8.13,8.13,0,0,1-7.2,3.75c-5.58,0-9-3.84-9-8.84s3.36-8.94,8.33-8.94c5.38,0,8.32,3.45,8.32,9.23,0,.32,0,.68,0,1.06Zm.16-3.42h5.49a2.6,2.6,0,0,0-2.75-2.51A2.68,2.68,0,0,0,324.63,13.32Zm22.87-1.38a4.74,4.74,0,0,0-.87-.07c-2.62,0-3.49,1.9-3.49,4.45v7.49h-5.38V6.87H343V9.13a4.75,4.75,0,0,1,4.48-2.68Z"></path>
</svg>