<svg xmlns="http://www.w3.org/2000/svg" width="600px" viewBox="0 0 600 280">
	<title>Red Neuronal - Derian Castillo</title>
	<defs>
		<style>
			.rn-a { fill: #312782; }
			.rn-b { fill: #39a935; }
			.rn-c, .rn-d, .rn-e, .rn-f, .rn-h, .rn-j { fill: none; }
			.rn-c { stroke: currentColor; }
			.rn-c, .rn-d, .rn-e, .rn-f, .rn-h { stroke-miterlimit: 10; }
			.rn-c, .rn-d { stroke-width: 5px; }
			.rn-d, .rn-h { stroke: currentColor; }
			.rn-e { stroke: #312782; }
			.rn-e, .rn-f { stroke-width: 3px; }
			.rn-f { stroke: #39a935; }
			.rn-g { opacity: 0.35; }
			.rn-i { fill: currentColor; }
		</style>
	</defs>
	<path class="rn-a" d="M65.6,132.92H72a9,9,0,0,1,4,.87,6.54,6.54,0,0,1,2.72,2.45,7.47,7.47,0,0,1,0,7.36A6.54,6.54,0,0,1,76,146.05a9,9,0,0,1-4,.87H65.6Zm6.2,11.34a4.7,4.7,0,0,0,3.35-1.17,4.64,4.64,0,0,0,0-6.34,4.7,4.7,0,0,0-3.35-1.17h-3v8.68Z"></path>
	<path class="rn-a" d="M90.08,137.19a4.56,4.56,0,0,1,1.34,3.59v6.14H88.5v-1.34a3.48,3.48,0,0,1-3.28,1.5,5.09,5.09,0,0,1-2.15-.42,3.21,3.21,0,0,1-1.39-1.16,3,3,0,0,1-.48-1.68,2.81,2.81,0,0,1,1.13-2.36,5.78,5.78,0,0,1,3.49-.86H88.3a2,2,0,0,0-.62-1.57,2.7,2.7,0,0,0-1.86-.55,5.43,5.43,0,0,0-1.69.27,4.47,4.47,0,0,0-1.41.73L81.6,137.3a7,7,0,0,1,2.11-1,9.3,9.3,0,0,1,2.53-.34A5.6,5.6,0,0,1,90.08,137.19Zm-2.66,7.42a2,2,0,0,0,.88-1.09v-1.1H86.16q-1.92,0-1.92,1.26a1.13,1.13,0,0,0,.47.95A2.13,2.13,0,0,0,86,145,2.69,2.69,0,0,0,87.42,144.61Z"></path>
	<path class="rn-a" d="M101.18,146.4a3.09,3.09,0,0,1-1.13.51,5.92,5.92,0,0,1-1.41.17,4.2,4.2,0,0,1-3-1,3.74,3.74,0,0,1-1-2.88V138.8H93v-2.4h1.66v-2.62h3.12v2.62h2.68v2.4H97.74v4.38a1.5,1.5,0,0,0,.35,1,1.28,1.28,0,0,0,1,.37,2,2,0,0,0,1.26-.4Z"></path>
	<path class="rn-a" d="M104.67,146.37a5.28,5.28,0,0,1-2.11-2,5.76,5.76,0,0,1,0-5.72,5.28,5.28,0,0,1,2.11-2,6.5,6.5,0,0,1,3-.71,6.43,6.43,0,0,1,3,.71,5.32,5.32,0,0,1,2.1,2,5.76,5.76,0,0,1,0,5.72,5.32,5.32,0,0,1-2.1,2,6.43,6.43,0,0,1-3,.71A6.5,6.5,0,0,1,104.67,146.37Zm5-2.66a3.44,3.44,0,0,0,0-4.34,2.59,2.59,0,0,0-2-.81,2.63,2.63,0,0,0-2,.81,3.41,3.41,0,0,0,0,4.34,2.63,2.63,0,0,0,2,.81A2.59,2.59,0,0,0,109.69,143.71Z"></path>
	<path class="rn-a" d="M116.7,146.75a7,7,0,0,1-2-.83l1-2.24a6.34,6.34,0,0,0,1.74.75,7.44,7.44,0,0,0,2,.29c1.32,0,2-.33,2-1a.69.69,0,0,0-.54-.66,8,8,0,0,0-1.66-.34,15.9,15.9,0,0,1-2.18-.46,3.37,3.37,0,0,1-1.49-.92,2.62,2.62,0,0,1-.63-1.88,3,3,0,0,1,.59-1.81,3.75,3.75,0,0,1,1.72-1.23,7.39,7.39,0,0,1,2.67-.44,10.25,10.25,0,0,1,2.27.25,6.54,6.54,0,0,1,1.87.69l-1,2.22a6.25,6.25,0,0,0-3.1-.8,3.1,3.1,0,0,0-1.5.28.84.84,0,0,0-.5.72.71.71,0,0,0,.54.7,9.79,9.79,0,0,0,1.72.38,18.41,18.41,0,0,1,2.16.47,3.26,3.26,0,0,1,1.46.91,2.59,2.59,0,0,1,.62,1.84,2.83,2.83,0,0,1-.6,1.78,3.84,3.84,0,0,1-1.75,1.21,7.75,7.75,0,0,1-2.73.43A10.45,10.45,0,0,1,116.7,146.75Z"></path>
	<path class="rn-b" d="M481.78,147.34l-2.7-3.9h-3v3.9h-3.24v-14h6.06a7.82,7.82,0,0,1,3.23.62,4.78,4.78,0,0,1,2.11,1.76,4.88,4.88,0,0,1,.74,2.7,4.56,4.56,0,0,1-2.88,4.42l3.14,4.5ZM481,136.61a3.42,3.42,0,0,0-2.22-.63H476.1v4.88h2.64a3.36,3.36,0,0,0,2.22-.64,2.52,2.52,0,0,0,0-3.61Z"></path>
	<path class="rn-b" d="M497.82,142.84h-8.14a2.54,2.54,0,0,0,1,1.58,3.44,3.44,0,0,0,2,.58,4,4,0,0,0,1.49-.25,3.66,3.66,0,0,0,1.21-.79l1.66,1.8a5.57,5.57,0,0,1-4.44,1.74,7.07,7.07,0,0,1-3.22-.71,5.22,5.22,0,0,1-2.16-2,5.39,5.39,0,0,1-.76-2.86,5.52,5.52,0,0,1,.75-2.85,5.23,5.23,0,0,1,2.06-2,6.38,6.38,0,0,1,5.79,0,5,5,0,0,1,2,2,5.79,5.79,0,0,1,.73,2.95S497.86,142.32,497.82,142.84Zm-7.3-3.46a2.58,2.58,0,0,0-.88,1.64h5.3a2.56,2.56,0,0,0-2.64-2.24A2.68,2.68,0,0,0,490.52,139.38Z"></path>
	<path class="rn-b" d="M501,147.17a7,7,0,0,1-2-.83l1-2.24a6.34,6.34,0,0,0,1.74.75,7.44,7.44,0,0,0,2,.29c1.32,0,2-.33,2-1a.69.69,0,0,0-.54-.66,8,8,0,0,0-1.66-.34,15.9,15.9,0,0,1-2.18-.46,3.37,3.37,0,0,1-1.49-.92,2.62,2.62,0,0,1-.63-1.88,3,3,0,0,1,.59-1.81,3.75,3.75,0,0,1,1.72-1.23,7.39,7.39,0,0,1,2.67-.44,10.25,10.25,0,0,1,2.27.25,6.54,6.54,0,0,1,1.87.69l-1,2.22a6.25,6.25,0,0,0-3.1-.8,3.1,3.1,0,0,0-1.5.28.84.84,0,0,0-.5.72.71.71,0,0,0,.54.7,9.79,9.79,0,0,0,1.72.38,18.41,18.41,0,0,1,2.16.47,3.26,3.26,0,0,1,1.46.91,2.59,2.59,0,0,1,.62,1.84,2.83,2.83,0,0,1-.6,1.78,3.84,3.84,0,0,1-1.75,1.21,7.75,7.75,0,0,1-2.73.43A10.45,10.45,0,0,1,501,147.17Z"></path>
	<path class="rn-b" d="M521.42,136.58v10.76h-3v-1.28a4.14,4.14,0,0,1-1.48,1.07,5.1,5.1,0,0,1-5.22-.85,4.84,4.84,0,0,1-1.24-3.62v-6.08h3.12v5.62c0,1.73.73,2.6,2.18,2.6a2.32,2.32,0,0,0,1.8-.73,3.1,3.1,0,0,0,.68-2.17v-5.32Z"></path>
	<path class="rn-b" d="M524.32,132.5h3.12v14.84h-3.12Z"></path>
	<path class="rn-b" d="M538.06,146.82a3.09,3.09,0,0,1-1.13.51,5.92,5.92,0,0,1-1.41.17,4.2,4.2,0,0,1-3-1,3.74,3.74,0,0,1-1-2.88v-4.42h-1.66v-2.4h1.66V134.2h3.12v2.62h2.68v2.4h-2.68v4.38a1.5,1.5,0,0,0,.35,1.05,1.28,1.28,0,0,0,1,.37,2,2,0,0,0,1.26-.4Z"></path>
	<path class="rn-b" d="M548,137.61a4.56,4.56,0,0,1,1.34,3.59v6.14h-2.92V146a3.48,3.48,0,0,1-3.28,1.5,5.09,5.09,0,0,1-2.15-.42,3.21,3.21,0,0,1-1.39-1.16,3,3,0,0,1-.48-1.68,2.81,2.81,0,0,1,1.13-2.36,5.78,5.78,0,0,1,3.49-.86h2.48a2,2,0,0,0-.62-1.57,2.7,2.7,0,0,0-1.86-.55,5.43,5.43,0,0,0-1.69.27,4.47,4.47,0,0,0-1.41.73l-1.12-2.18a7,7,0,0,1,2.11-1,9.3,9.3,0,0,1,2.53-.34A5.6,5.6,0,0,1,548,137.61ZM545.34,145a2,2,0,0,0,.88-1.09v-1.1h-2.14q-1.92,0-1.92,1.26a1.13,1.13,0,0,0,.47,1,2.13,2.13,0,0,0,1.29.35A2.69,2.69,0,0,0,545.34,145Z"></path>
	<path class="rn-b" d="M563.24,132.5v14.84h-3V146.1a4.12,4.12,0,0,1-3.36,1.4,5.63,5.63,0,0,1-2.75-.68,4.87,4.87,0,0,1-1.93-1.94,6.44,6.44,0,0,1,0-5.84,4.87,4.87,0,0,1,1.93-1.94,5.63,5.63,0,0,1,2.75-.68,4.08,4.08,0,0,1,3.22,1.3V132.5Zm-3.84,11.63a3.41,3.41,0,0,0,0-4.34,2.6,2.6,0,0,0-2-.81,2.63,2.63,0,0,0-2,.81,3.41,3.41,0,0,0,0,4.34,2.63,2.63,0,0,0,2,.81A2.6,2.6,0,0,0,559.4,144.13Z"></path>
	<path class="rn-b" d="M568.19,146.79a5.28,5.28,0,0,1-2.11-2,5.76,5.76,0,0,1,0-5.72,5.28,5.28,0,0,1,2.11-2,6.5,6.5,0,0,1,3-.71,6.43,6.43,0,0,1,3,.71,5.32,5.32,0,0,1,2.1,2,5.76,5.76,0,0,1,0,5.72,5.32,5.32,0,0,1-2.1,2,6.43,6.43,0,0,1-3,.71A6.5,6.5,0,0,1,568.19,146.79Zm5-2.66a3.44,3.44,0,0,0,0-4.34,2.59,2.59,0,0,0-2-.81,2.63,2.63,0,0,0-2,.81,3.41,3.41,0,0,0,0,4.34,2.63,2.63,0,0,0,2,.81A2.59,2.59,0,0,0,573.21,144.13Z"></path>
	<rect class="rn-c" x="212.5" y="77.5" width="175" height="125" rx="10"></rect>
	<circle class="rn-d" cx="300" cy="105" r="12.5"></circle>
	<circle class="rn-d" cx="300" cy="140" r="12.5"></circle>
	<circle class="rn-d" cx="300" cy="175" r="12.5"></circle>
	<circle class="rn-e" cx="170" cy="105" r="12.5"></circle>
	<circle class="rn-e" cx="170" cy="140" r="12.5"></circle>
	<circle class="rn-e" cx="170" cy="175" r="12.5"></circle>
	<circle class="rn-f" cx="430" cy="105" r="12.5"></circle>
	<circle class="rn-f" cx="430" cy="140" r="12.5"></circle>
	<circle class="rn-f" cx="430" cy="175" r="12.5"></circle>
	<g class="rn-g">
		<line class="rn-h" x1="312.5" y1="105" x2="429.24" y2="105"></line>
		<polygon class="rn-i" points="426.92 107.86 426.44 107.35 428.97 105 426.44 102.65 426.92 102.14 430 105 426.92 107.86"></polygon>
		<line class="rn-h" x1="312.5" y1="140" x2="429.24" y2="140"></line>
		<polygon class="rn-i" points="426.92 142.86 426.44 142.35 428.97 140 426.44 137.65 426.92 137.14 430 140 426.92 142.86"></polygon>
		<line class="rn-h" x1="312.5" y1="175" x2="429.24" y2="175"></line>
		<polygon class="rn-i" points="426.92 177.86 426.44 177.35 428.97 175 426.44 172.65 426.92 172.14 430 175 426.92 177.86"></polygon>
		<line class="rn-h" x1="312.5" y1="105" x2="429.35" y2="174.61"></line>
		<polygon class="rn-i" points="425.89 175.88 425.74 175.2 429.12 174.47 428.15 171.16 428.82 170.97 430 175 425.89 175.88"></polygon>
		<line class="rn-h" x1="312.5" y1="105" x2="429.27" y2="139.78"></line>
		<polygon class="rn-i" points="426.23 141.87 425.92 141.24 429.01 139.71 427.26 136.73 427.87 136.38 430 140 426.23 141.87"></polygon>
		<line class="rn-h" x1="312.5" y1="175" x2="429.35" y2="105.39"></line>
		<polygon class="rn-i" points="428.82 109.03 428.15 108.84 429.12 105.53 425.74 104.8 425.89 104.12 430 105 428.82 109.03"></polygon>
		<line class="rn-h" x1="312.5" y1="175" x2="429.27" y2="140.22"></line>
		<polygon class="rn-i" points="427.87 143.62 427.26 143.27 429.01 140.29 425.92 138.76 426.23 138.14 430 140 427.87 143.62"></polygon>
		<line class="rn-h" x1="312.5" y1="140" x2="429.27" y2="105.22"></line>
		<polygon class="rn-i" points="427.87 108.62 427.26 108.27 429.01 105.29 425.92 103.76 426.23 103.14 430 105 427.87 108.62"></polygon>
		<line class="rn-h" x1="312.5" y1="140" x2="429.27" y2="174.78"></line>
		<polygon class="rn-i" points="426.23 176.87 425.92 176.24 429.01 174.71 427.26 171.73 427.87 171.38 430 175 426.23 176.87"></polygon>
		<line class="rn-h" x1="182.5" y1="105" x2="299.24" y2="105"></line>
		<polygon class="rn-i" points="296.92 107.86 296.44 107.35 298.97 105 296.44 102.65 296.92 102.14 300 105 296.92 107.86"></polygon>
		<line class="rn-h" x1="182.5" y1="140" x2="299.24" y2="140"></line>
		<polygon class="rn-i" points="296.92 142.86 296.44 142.35 298.97 140 296.44 137.65 296.92 137.14 300 140 296.92 142.86"></polygon>
		<line class="rn-h" x1="182.5" y1="175" x2="299.24" y2="175"></line>
		<polygon class="rn-i" points="296.92 177.86 296.44 177.35 298.97 175 296.44 172.65 296.92 172.14 300 175 296.92 177.86"></polygon>
		<line class="rn-h" x1="182.5" y1="105" x2="299.35" y2="174.61"></line>
		<polygon class="rn-i" points="295.89 175.88 295.74 175.2 299.12 174.47 298.15 171.16 298.82 170.97 300 175 295.89 175.88"></polygon>
		<line class="rn-h" x1="182.5" y1="105" x2="299.27" y2="139.78"></line>
		<polygon class="rn-i" points="296.23 141.87 295.92 141.24 299.01 139.71 297.26 136.73 297.87 136.38 300 140 296.23 141.87"></polygon>
		<line class="rn-h" x1="182.5" y1="175" x2="299.35" y2="105.39"></line>
		<polygon class="rn-i" points="298.82 109.03 298.15 108.84 299.12 105.53 295.74 104.8 295.89 104.12 300 105 298.82 109.03"></polygon>
		<line class="rn-h" x1="182.5" y1="175" x2="299.27" y2="140.22"></line>
		<polygon class="rn-i" points="297.87 143.62 297.26 143.27 299.01 140.29 295.92 138.76 296.23 138.14 300 140 297.87 143.62"></polygon>
		<line class="rn-h" x1="182.5" y1="140" x2="299.27" y2="105.22"></line>
		<polygon class="rn-i" points="297.87 108.62 297.26 108.27 299.01 105.29 295.92 103.76 296.23 103.14 300 105 297.87 108.62"></polygon>
		<line class="rn-h" x1="182.5" y1="140" x2="299.27" y2="174.78"></line>
		<polygon class="rn-i" points="296.23 176.87 295.92 176.24 299.01 174.71 297.26 171.73 297.87 171.38 300 175 296.23 176.87"></polygon>
	</g>
	<path class="rn-i" d="M248,240.22a7.05,7.05,0,0,1-2.75-2.61,7.61,7.61,0,0,1,0-7.54,6.91,6.91,0,0,1,2.75-2.61,8.15,8.15,0,0,1,3.93-.94,8.28,8.28,0,0,1,3.33.64,6.92,6.92,0,0,1,2.5,1.86L255.65,231a4.5,4.5,0,0,0-3.56-1.66,4.77,4.77,0,0,0-2.34.57,4.09,4.09,0,0,0-1.61,1.61,5,5,0,0,0,0,4.69,4,4,0,0,0,1.61,1.61,4.67,4.67,0,0,0,2.34.58,4.48,4.48,0,0,0,3.56-1.68l2.11,1.94a6.6,6.6,0,0,1-2.51,1.88,8.36,8.36,0,0,1-3.34.65A8.22,8.22,0,0,1,248,240.22Z"></path>
	<path class="rn-i" d="M267.93,231.08a4.61,4.61,0,0,1,1.35,3.63v6.21h-2.95v-1.36a3.52,3.52,0,0,1-3.32,1.52,5.18,5.18,0,0,1-2.17-.43,3.28,3.28,0,0,1-1.41-1.17,3.09,3.09,0,0,1-.48-1.7,2.85,2.85,0,0,1,1.14-2.39,5.82,5.82,0,0,1,3.53-.87h2.51a2,2,0,0,0-.63-1.58,2.76,2.76,0,0,0-1.88-.56,5.56,5.56,0,0,0-1.71.27,4.65,4.65,0,0,0-1.42.74l-1.14-2.2a6.9,6.9,0,0,1,2.14-1,9.51,9.51,0,0,1,2.55-.35A5.65,5.65,0,0,1,267.93,231.08Zm-2.69,7.5a2.08,2.08,0,0,0,.89-1.1v-1.11H264c-1.29,0-1.94.42-1.94,1.27a1.14,1.14,0,0,0,.48,1,2.09,2.09,0,0,0,1.3.35A2.76,2.76,0,0,0,265.24,238.58Z"></path>
	<path class="rn-i" d="M268.8,244.39l.85-2.28a2.29,2.29,0,0,0,1.33.38,1.19,1.19,0,0,0,.95-.39,1.75,1.75,0,0,0,.35-1.18V230h3.15V240.9a4.12,4.12,0,0,1-1.08,3,4.06,4.06,0,0,1-3,1.1A4.36,4.36,0,0,1,268.8,244.39ZM272.44,228a1.7,1.7,0,0,1,0-2.5,2,2,0,0,1,1.41-.51,2,2,0,0,1,1.42.49,1.54,1.54,0,0,1,.54,1.21,1.72,1.72,0,0,1-.54,1.3,2.2,2.2,0,0,1-2.83,0Z"></path>
	<path class="rn-i" d="M286.61,231.08a4.58,4.58,0,0,1,1.36,3.63v6.21h-3v-1.36a3.53,3.53,0,0,1-3.32,1.52,5.15,5.15,0,0,1-2.17-.43,3.16,3.16,0,0,1-1.41-1.17,3.1,3.1,0,0,1-.49-1.7,2.85,2.85,0,0,1,1.15-2.39,5.8,5.8,0,0,1,3.53-.87h2.5a2,2,0,0,0-.62-1.58,2.78,2.78,0,0,0-1.88-.56,5.56,5.56,0,0,0-1.71.27,4.7,4.7,0,0,0-1.43.74l-1.13-2.2a6.74,6.74,0,0,1,2.13-1,9.53,9.53,0,0,1,2.56-.35A5.6,5.6,0,0,1,286.61,231.08Zm-2.69,7.5a2,2,0,0,0,.89-1.1v-1.11h-2.16c-1.29,0-1.94.42-1.94,1.27a1.16,1.16,0,0,0,.47,1,2.12,2.12,0,0,0,1.31.35A2.7,2.7,0,0,0,283.92,238.58Z"></path>
	<path class="rn-i" d="M306.42,231.09a4.81,4.81,0,0,1,1.24,3.6v6.23h-3.15v-5.75a2.83,2.83,0,0,0-.57-1.93,2.07,2.07,0,0,0-1.63-.64,2.55,2.55,0,0,0-1.91.74,3.08,3.08,0,0,0-.7,2.2v5.38h-3.16V230h3v1.27a4.2,4.2,0,0,1,1.56-1.06,5.41,5.41,0,0,1,2-.38A4.49,4.49,0,0,1,306.42,231.09Z"></path>
	<path class="rn-i" d="M321.23,236.37H313a2.57,2.57,0,0,0,1.05,1.59,3.51,3.51,0,0,0,2.07.59,4.14,4.14,0,0,0,1.5-.25,3.77,3.77,0,0,0,1.23-.8l1.68,1.82a5.67,5.67,0,0,1-4.49,1.76,7.08,7.08,0,0,1-3.26-.72,5.26,5.26,0,0,1-2.18-2,5.44,5.44,0,0,1-.77-2.89,5.55,5.55,0,0,1,.76-2.89,5.34,5.34,0,0,1,2.08-2,6.09,6.09,0,0,1,3-.72,6,6,0,0,1,2.89.69,5,5,0,0,1,2,2,5.82,5.82,0,0,1,.74,3S321.27,235.84,321.23,236.37Zm-7.38-3.5a2.59,2.59,0,0,0-.89,1.65h5.36a2.59,2.59,0,0,0-.89-1.64,2.66,2.66,0,0,0-1.78-.62A2.71,2.71,0,0,0,313.85,232.87Z"></path>
	<path class="rn-i" d="M334.62,230v9.06a5.79,5.79,0,0,1-1.56,4.44,6.43,6.43,0,0,1-4.55,1.46,11.61,11.61,0,0,1-3-.38,6.59,6.59,0,0,1-2.35-1.12l1.26-2.26a5.1,5.1,0,0,0,1.74.9,7,7,0,0,0,2.1.33,3.39,3.39,0,0,0,2.42-.74,2.92,2.92,0,0,0,.77-2.23V239a4.37,4.37,0,0,1-3.43,1.36,5.75,5.75,0,0,1-2.74-.66,4.94,4.94,0,0,1-2-1.85,5.54,5.54,0,0,1,0-5.5,5,5,0,0,1,2-1.85,5.75,5.75,0,0,1,2.74-.66,4.33,4.33,0,0,1,3.6,1.56V230Zm-3.91,7a2.73,2.73,0,0,0,0-3.86,3.24,3.24,0,0,0-4.12,0,2.7,2.7,0,0,0,0,3.86,3.24,3.24,0,0,0,4.12,0Z"></path>
	<path class="rn-i" d="M342.09,230.28a5.67,5.67,0,0,1,2.22-.41v2.92c-.35,0-.59,0-.71,0a2.89,2.89,0,0,0-2.12.75,3.06,3.06,0,0,0-.77,2.28v5.14h-3.16V230h3v1.43A3.57,3.57,0,0,1,342.09,230.28Z"></path>
	<path class="rn-i" d="M354.4,231.08a4.61,4.61,0,0,1,1.35,3.63v6.21H352.8v-1.36a3.52,3.52,0,0,1-3.32,1.52,5.18,5.18,0,0,1-2.17-.43,3.28,3.28,0,0,1-1.41-1.17,3.09,3.09,0,0,1-.48-1.7,2.85,2.85,0,0,1,1.14-2.39,5.82,5.82,0,0,1,3.53-.87h2.51a2,2,0,0,0-.63-1.58,2.76,2.76,0,0,0-1.88-.56,5.56,5.56,0,0,0-1.71.27,4.65,4.65,0,0,0-1.42.74l-1.14-2.2a6.9,6.9,0,0,1,2.14-1,9.51,9.51,0,0,1,2.55-.35A5.65,5.65,0,0,1,354.4,231.08Zm-2.69,7.5a2.08,2.08,0,0,0,.89-1.1v-1.11h-2.17c-1.29,0-1.94.42-1.94,1.27a1.14,1.14,0,0,0,.48,1,2.09,2.09,0,0,0,1.3.35A2.76,2.76,0,0,0,351.71,238.58Z"></path>
	<path class="rn-i" d="M214.73,34.81h-2.88v4.95h-5.27V21.12h8.52a10.58,10.58,0,0,1,4.39.84,6.51,6.51,0,0,1,2.88,2.39,6.62,6.62,0,0,1,1,3.67,6.45,6.45,0,0,1-.94,3.52,6.34,6.34,0,0,1-2.71,2.36l4,5.86h-5.65Zm2.5-8.82a3.64,3.64,0,0,0-2.45-.72h-2.93v5.46h2.93a3.69,3.69,0,0,0,2.45-.7,2.5,2.5,0,0,0,.83-2A2.56,2.56,0,0,0,217.23,26Z"></path>
	<path class="rn-i" d="M240.72,33.82H230.23a2.92,2.92,0,0,0,1.23,1.72,4.15,4.15,0,0,0,2.31.6,5.15,5.15,0,0,0,1.8-.29,5.66,5.66,0,0,0,1.53-1l2.66,2.77A7.84,7.84,0,0,1,233.61,40a9.82,9.82,0,0,1-4.45-1,7,7,0,0,1-4-6.52,7.29,7.29,0,0,1,1-3.83A7.16,7.16,0,0,1,229,26.05a8.59,8.59,0,0,1,4.08-1A8.46,8.46,0,0,1,237,26a6.71,6.71,0,0,1,2.78,2.58,7.53,7.53,0,0,1,1,4S240.77,33,240.72,33.82Zm-9.58-4.47a3,3,0,0,0-1,1.81h5.91a3,3,0,0,0-1-1.81,3.2,3.2,0,0,0-3.92,0Z"></path>
	<path class="rn-i" d="M258.48,20V39.76h-4.82V38.32A5.21,5.21,0,0,1,249.43,40a7.2,7.2,0,0,1-3.6-.92,6.68,6.68,0,0,1-2.57-2.62,8,8,0,0,1-.94-3.94,7.91,7.91,0,0,1,.94-3.93,6.63,6.63,0,0,1,2.57-2.6,7.29,7.29,0,0,1,3.6-.9,5.2,5.2,0,0,1,4,1.49V20Zm-5.83,15.06a3.58,3.58,0,0,0,.85-2.54,3.56,3.56,0,0,0-.84-2.51,2.83,2.83,0,0,0-2.17-.9,2.87,2.87,0,0,0-2.18.9,3.52,3.52,0,0,0-.85,2.51,3.58,3.58,0,0,0,.85,2.54,3,3,0,0,0,4.34,0Z"></path>
	<path class="rn-i" d="M283.21,26.68a6.48,6.48,0,0,1,1.64,4.82v8.26h-5.06V32.33c0-2-.79-3-2.37-3a2.7,2.7,0,0,0-2.09.86,3.61,3.61,0,0,0-.79,2.55v7h-5.06V25.33h4.82V26.9a5.7,5.7,0,0,1,2-1.35,6.93,6.93,0,0,1,2.56-.46A6,6,0,0,1,283.21,26.68Z"></path>
	<path class="rn-i" d="M302.9,33.82H292.41a2.93,2.93,0,0,0,1.24,1.72,4.12,4.12,0,0,0,2.3.6,5.15,5.15,0,0,0,1.8-.29,5.37,5.37,0,0,0,1.53-1l2.66,2.77A7.84,7.84,0,0,1,295.79,40a9.74,9.74,0,0,1-4.44-1,7.08,7.08,0,0,1-4-6.52,7.3,7.3,0,0,1,1-3.83,7.14,7.14,0,0,1,2.83-2.64,8.59,8.59,0,0,1,4.08-1,8.43,8.43,0,0,1,3.91.89A6.74,6.74,0,0,1,302,28.56a7.61,7.61,0,0,1,1,4S303,33,302.9,33.82Zm-9.57-4.47a3,3,0,0,0-1,1.81h5.91a3,3,0,0,0-1-1.81,3.19,3.19,0,0,0-3.91,0Z"></path>
	<path class="rn-i" d="M320.51,25.33V39.76h-4.82V38.22a5.35,5.35,0,0,1-1.92,1.33,6.32,6.32,0,0,1-2.37.45,6,6,0,0,1-4.46-1.65,6.69,6.69,0,0,1-1.67-5V25.33h5.06v7.24a3.71,3.71,0,0,0,.62,2.37,2.15,2.15,0,0,0,1.78.75,2.53,2.53,0,0,0,2-.84,3.77,3.77,0,0,0,.76-2.57v-7Z"></path>
	<path class="rn-i" d="M330.59,25.58a7.56,7.56,0,0,1,2.83-.49v4.55a11.13,11.13,0,0,0-1.14-.08,3.14,3.14,0,0,0-3.46,3.57v6.63h-5.06V25.33h4.81v1.73A4.73,4.73,0,0,1,330.59,25.58Z"></path>
	<path class="rn-i" d="M338.43,39a7.11,7.11,0,0,1-4-6.52,7.11,7.11,0,0,1,4-6.49,9.88,9.88,0,0,1,8.41,0,7.07,7.07,0,0,1,2.9,2.64,7.23,7.23,0,0,1,1,3.85,7.32,7.32,0,0,1-1,3.86,7.18,7.18,0,0,1-2.9,2.66,9.09,9.09,0,0,1-4.21,1A9,9,0,0,1,338.43,39Zm6.36-4a3.58,3.58,0,0,0,.85-2.54,3.52,3.52,0,0,0-.85-2.51,3.09,3.09,0,0,0-4.36,0,3.52,3.52,0,0,0-.86,2.51,3.58,3.58,0,0,0,.86,2.54,3,3,0,0,0,4.36,0Z"></path>
	<path class="rn-i" d="M366.83,26.68a6.48,6.48,0,0,1,1.64,4.82v8.26h-5.06V32.33c0-2-.79-3-2.37-3a2.7,2.7,0,0,0-2.09.86,3.61,3.61,0,0,0-.79,2.55v7H353.1V25.33h4.82V26.9a5.73,5.73,0,0,1,2-1.35,6.84,6.84,0,0,1,2.55-.46A5.94,5.94,0,0,1,366.83,26.68Z"></path>
	<path class="rn-i" d="M383.28,26.72a6.34,6.34,0,0,1,1.89,5v8h-4.72V37.9q-1.09,2.1-4.26,2.1a6.64,6.64,0,0,1-2.9-.59,4.1,4.1,0,0,1-2.48-3.86,3.69,3.69,0,0,1,1.57-3.18,8.4,8.4,0,0,1,4.85-1.13h2.88C380,29.71,379,29,377,29a7.07,7.07,0,0,0-2.1.33,5.61,5.61,0,0,0-1.81.92l-1.71-3.44a9.41,9.41,0,0,1,2.92-1.23,13.55,13.55,0,0,1,3.45-.44A8.18,8.18,0,0,1,383.28,26.72Zm-4.13,9.66a2.44,2.44,0,0,0,1-1.25V33.87h-2.19c-1.47,0-2.21.49-2.21,1.47a1.27,1.27,0,0,0,.51,1.06,2.14,2.14,0,0,0,1.38.4A2.86,2.86,0,0,0,379.15,36.38Z"></path>
	<path class="rn-i" d="M388.36,20h5.06V39.76h-5.06Z"></path>
	<rect class="rn-j" width="600" height="280"></rect>
</svg>