<svg xmlns="http://www.w3.org/2000/svg" viewBox="0 0 1000 1000" style="enable-background:new 0 0 1000 1000" xml:space="preserve"><path d="M850 1000H150C67.2 1000 0 932.8 0 850V150C0 67.2 67.2 0 150 0h700c82.8 0 150 67.2 150 150v700c0 82.8-67.2 150-150 150z" style="fill-rule:evenodd;clip-rule:evenodd;fill:#282829"/><path d="M491.2 250 256.3 750l101.8-33.1 133.1-282.1V250zm15.7 0v186.8l97.9 202.3-172.3 54.5L743.8 750 506.9 250z" style="fill-rule:evenodd;clip-rule:evenodd;fill:#fff"/><linearGradient id="a" gradientUnits="userSpaceOnUse" x1="542.792" y1="779.785" x2="634.525" y2="662.372"><stop offset=".5" style="stop-color:#fff"/><stop offset="1" style="stop-color:#ededed"/></linearGradient><path d="m743.8 750-139-110.9-172.3 54.5L743.8 750z" style="fill-rule:evenodd;clip-rule:evenodd;fill:url(#a)"/></svg>