<svg xmlns="http://www.w3.org/2000/svg" viewBox="0 0 439.8 61.3" style="enable-background:new 0 0 439.8 61.3" xml:space="preserve"><style>.cyt-t{fill:var(--body-color-high, white)}.cyt-c{fill:#f9a21f}</style><path class="cyt-t" d="M359.4 24c1.3 1.2 2 3 1.9 4.8 0 2.3-.9 4.4-2.6 5.9-1.9 1.7-4.4 2.5-7 2.4h-1.4c-.8 0-1.5 0-2-.1l-1.5-.2c-.5 0-.9-.1-1.3-.2l-1.2-.2c-.8-.2-1.3-.5-1.4-1-.1-.5-.2-1-.1-1.5v-.4c0-.1 0-.3.1-.4.1-.4.3-.8.6-1.1.3-.4 1-.5 1.8-.2 1 .3 2 .5 3 .8.8.2 1.7.3 2.5.3h1.8c.9-.1 1.8-.5 2.5-1.2.5-.6.8-1.4.8-2.2 0-.7-.3-1.4-.8-1.9-.5-.7-1.8-1.3-4-2-1-.4-1.9-.7-2.6-1-.7-.3-1.3-.6-1.9-.9-1.1-.6-1.9-1.5-2.5-2.5-.7-1.1-1-2.4-1-3.7 0-3.1 1.7-5.9 4.5-7.3 1.3-.5 2.6-.8 4-.8h2.2c.6 0 1.1 0 1.5.1.4 0 .8.1 1.1.2l1.2.3c.8.2 1.3.5 1.4 1 .1.5.2 1 .1 1.4v.8c0 .2-.1.4-.2.6-.1.2-.2.4-.4.5-.2.2-.5.3-.8.3-.4 0-.7 0-1.1-.1l-2.6-.8c-.6-.2-1.2-.3-1.9-.4-.5 0-1 0-1.5.1-.8.1-1.5.5-2 1.1-.5.6-.7 1.3-.7 2.1-.1.9.3 1.7.9 2.3 1.4.8 2.8 1.4 4.4 1.8 2.3.7 4.4 1.8 6.2 3.3zM339.7 23.2c0 9.4-3.5 14.1-10.4 14.1-2.9.1-5.7-1.1-7.6-3.4-1.8-2.2-2.7-5.7-2.7-10.4 0-9.2 3.5-13.7 10.4-13.8 2.9-.1 5.7 1.1 7.5 3.3 1.9 2.2 2.8 5.6 2.8 10.2zm-5.8.2c0-3.6-.4-6.2-1.2-7.6-.6-1.3-2-2.1-3.4-2.1-3 0-4.6 3.2-4.6 9.7-.2 2.5.2 5 1 7.3.5 1.5 2 2.4 3.5 2.3 1.6 0 3-.9 3.5-2.4 1-2.2 1.3-4.7 1.2-7.2zM203.3 15.1c0-.4-.3-.7-.7-.7h-2.2c-.9.1-1.7-.5-1.8-1.4v-2c0-.5.4-.8 1.1-.8h3c.4 0 .8-.3.8-.7l.1-4.7c0-.5.2-.9.5-1.2.3-.2.6-.3 1-.3h2.1c.4 0 .7.1 1 .3.4.3.6.8.5 1.2l.1 4.7c0 .4.4.7.8.7h3c.7 0 1.1.3 1.1.8v1.6c.1.9-.5 1.7-1.4 1.8h-2.9c-.4 0-.7.3-.7.6v15c-.1.6.2 1.3.7 1.7.7.5 1.5.7 2.3.6.8 0 2.3-.3 2.7.2.8.8.6 3 .4 3.5s-.7.7-1.5.8l-.8.1-.6.1H210c-.9 0-1.9-.2-2.7-.6-.8-.4-1.4-.9-2-1.5-.4-.6-.8-1.2-1.1-1.8-.5-1.1-.8-2.4-.7-3.7v-1.7c-.2-.9-.2-11.4-.2-12.6zM232 19.9c-.1.2-.2.3-.4.4-.2.1-.5.2-.8.2h-9.7c-1 .1-1.8 1-1.7 2 .1.9.8 1.6 1.7 1.7h12.7c1 0 1.9-.4 2.4-1.2.6-.8.8-1.8.8-2.8 0-.7 0-1.4-.1-2.1-.1-.6-.2-1.3-.4-1.9-.6-1.9-1.7-3.6-3.3-4.9-1.6-1.3-3.6-1.9-5.7-1.9-3-.1-5.9 1.3-7.7 3.7-1.9 2.5-2.8 6-2.8 10.5s.9 7.8 2.8 10c1.7 2.3 4.5 3.6 7.4 3.4h2.4c.7 0 1.3-.1 1.9-.1s1.1-.1 1.5-.2l1.4-.2c.8-.2 1.3-.5 1.4-1 .1-.5.2-1 .1-1.4v-.8c0-.2-.1-.4-.2-.6-.1-.2-.2-.4-.4-.6-.2-.2-.5-.3-.7-.3-.4 0-.8 0-1.1.1-1 .3-1.9.5-2.8.7-.9.2-1.9.3-2.8.3h-.1c-.7 0-1.4-.1-2-.4-.6-.3-1.2-.8-1.6-1.3-.6-.8-1-1.8-1.2-2.8-.3-2.9-.3-5.7 0-8.6.1-1.7.6-3.3 1.4-4.8.7-1 1.9-1.6 3.2-1.6 1.3 0 2.5.5 3.2 1.5.9 1.2 1.3 2.6 1.2 4v.3c.1.3.1.5 0 .7zM286 19.9c-.1.2-.2.3-.4.4-.2.1-.5.2-.8.2h-9.7c-1-.1-1.9.7-2 1.7-.1 1 .7 1.9 1.7 2h13c1 .1 1.9-.4 2.5-1.2.6-.8.8-1.8.8-2.8 0-.8 0-1.4-.1-2.1-.1-.6-.2-1.3-.4-1.9-.6-1.9-1.7-3.6-3.3-4.9-1.6-1.3-3.6-1.9-5.6-1.9-3-.1-5.9 1.3-7.7 3.7-1.9 2.5-2.9 6-2.9 10.5s.9 7.8 2.8 10c1.7 2.3 4.5 3.6 7.4 3.4h2.4c.7 0 1.3-.1 1.9-.1s1.1-.1 1.5-.2l1.4-.2c.8-.2 1.3-.5 1.4-1 .1-.5.2-1 .1-1.4v-.8c0-.2-.1-.4-.2-.6-.1-.2-.2-.4-.4-.6-.2-.2-.5-.3-.7-.3-.4 0-.8 0-1.1.1-1 .3-1.9.5-2.8.7-.9.2-1.9.3-2.8.3h-.1c-.7 0-1.4-.1-2-.4-.6-.3-1.2-.8-1.6-1.3-.6-.8-1-1.8-1.2-2.8-.3-2.9-.3-5.7 0-8.6.1-1.7.6-3.3 1.4-4.8.7-1 1.9-1.6 3.2-1.6 1.3 0 2.5.5 3.3 1.5.8 1.2 1.3 2.6 1.2 4v.3c0 .3-.1.5-.2.7zM302.7 9.7s-5.9.3-6.6 5.2c-.1 1-.2 2-.2 3V33c0 .5 0 1-.1 1.4-.1.4-.1.9-.1 1.3 0 .3.1.6.2.8.2.2.5.4.8.3h3.9c.4 0 .6-.1.7-.4.1-.3.1-.7.1-1 0-.4 0-.8-.1-1.2-.1-.4-.1-.8-.1-1.2V16.9c0-2 1.8-2.8 3.8-2.8 2 0 3.8.8 3.8 2.8v16.2c0 .4 0 .8-.1 1.2-.1.4-.1.8-.1 1.2 0 .3 0 .7.1 1 .1.2.3.4.7.4h3.9c.3 0 .6-.1.8-.3.1-.2.2-.5.2-.8 0-.4 0-.9-.1-1.3-.1-.5-.1-1-.1-1.4V17.9c0-1-.1-2-.2-3-.8-4.9-6.6-5.2-6.6-5.2h-4.6zM253.1 15.4c.4 0 .7-.1.9-.4.1-1.2.1-2.3 0-3.5 0-.6-.4-1.1-.9-1.1 0 0-4.3-.3-6 2.6v-.1c0-.6-.1-1.2-.3-1.7-.5-.6-1.8-.7-2.2-.7-.4 0-.8 0-1.2.1-.3.1-1.7.1-1.7 1.5V33c0 .4 0 .8-.1 1.2-.1.4-.1.8-.1 1.2 0 .3 0 .7.2 1 .1.3.4.4.7.4h3.9c.3 0 .6-.1.8-.3.1-.2.2-.5.2-.8 0-.4 0-.8-.1-1.3s-.1-1-.1-1.4V20.2c-.1-4.7 6-4.8 6-4.8zM268.6 15.4c.4 0 .7-.1.9-.4.1-1.2.1-2.3 0-3.5 0-.6-.4-1.1-.9-1.1 0 0-4.3-.3-6 2.6v-.1c0-.6-.1-1.2-.4-1.7-.5-.6-1.8-.7-2.2-.7-.4 0-.8 0-1.2.1-.3.1-1.7.1-1.7 1.5V33c0 .4 0 .8-.1 1.2-.1.4-.1.8-.1 1.2 0 .3 0 .7.2 1 .1.3.4.4.7.4h3.9c.3 0 .6-.1.8-.3.1-.2.2-.5.2-.8 0-.4 0-.8-.1-1.3s-.1-1-.1-1.4V20.2c0-4.7 6.1-4.8 6.1-4.8z"/><path class="cyt-c" d="M194.5 39.6c-.3 1.2-.8 2.4-1.6 3.4-1.3 1.7-5.2 2.5-7.8 2.5h-2.8c-.3 0-.6 0-.9-.1l-.9-.2c-.7-.1-1.1-.4-1.1-.7-.1-.3-.2-.7-.1-1.1v-.6c0-.1.1-.3.1-.4.1-.2.2-.3.3-.4.2-.1.4-.2.6-.2.3 0 .6 0 .9.1l1 .3c.3.1.5.1.7.2.3.1.5.1.8.1h1c1.2 0 2.4-.1 3.6-.3.5-.2.9-.6 1.3-1 .5-.7.8-1.4.9-2.2.2-.9.2-1.8.2-2.7 0-.1 0-.1-.1-.2s-.2-.2-.3-.1c-.3 0-.5.2-.7.3l-.6.5-.6.5c-.3.2-.6.4-1 .5-.5.1-1 .2-1.5.2h-.7c-.8 0-1.5-.2-2.2-.6-.6-.3-1.1-.7-1.5-1.2-.5-.6-.8-1.3-.9-2-.1-.7-.2-1.5-.2-2.2V20.2c0-.4-.1-.8-.1-1.2-.1-.3-.1-.6-.1-.9v-.6c0-.4.2-.7.6-.9l.9-.3c.4-.1.7-.1 1.1-.1h1c.3 0 .5.1.7.3.1.2.3.5.3.7 0 .4 0 .8-.1 1s0 .4 0 .5V21.6c0 1.1-.1 4.7-.1 5.8s0 2.2.1 3.2 0 1.6 0 1.8c0 .6.3 1.2.8 1.6.5.3 1 .5 1.6.5.5 0 1-.1 1.4-.2.5-.2.9-.5 1.2-.9.2-.2.3-.5.4-.7.1-.3.2-.5.3-.8.1-.4.1-.7.1-1.1V19c0-.4 0-.7-.1-1-.1-.3-.1-.6-.1-.9 0-.2 0-.4.1-.6.2-.2.4-.3.6-.2h3.1c.3 0 .5.1.6.3.1.2.1.5.1.7 0 .3 0 .6-.1.8 0 .3-.1.6-.1.9v14.6c.3 2 .2 4.1-.1 6z"/><path class="cyt-t" d="M128.4 24c1.3 1.3 1.9 3 1.8 4.8 0 2.3-.9 4.4-2.6 5.9-1.9 1.7-4.4 2.5-7 2.4h-1.3c-.8 0-1.5 0-2-.1l-1.5-.2c-.4 0-.9-.1-1.3-.2l-1.2-.2c-.8-.2-1.3-.5-1.4-1-.1-.5-.2-1-.1-1.5v-.4c0-.1 0-.3.1-.4.1-.4.3-.8.6-1.1.3-.4 1-.5 1.8-.2 1 .3 2 .5 3 .8.8.2 1.7.3 2.5.3h1.8c.9-.1 1.8-.5 2.5-1.2.5-.6.8-1.4.8-2.2 0-.7-.3-1.4-.8-1.9-.5-.7-1.8-1.3-4-2-1-.4-1.9-.7-2.6-1-.7-.3-1.3-.6-1.9-.9-1-.6-1.9-1.5-2.4-2.5-.7-1.1-1-2.4-1-3.7 0-3.1 1.7-5.9 4.5-7.3 1.3-.5 2.6-.8 4-.8h2.2c.6 0 1.1 0 1.5.1.4 0 .8.1 1.1.2l1.2.3c.8.2 1.3.5 1.4 1 .1.5.2 1 .1 1.4 0 .1 0 .3-.1.4 0 .1 0 .3-.1.4 0 .2-.1.4-.2.6-.1.2-.2.4-.4.5-.2.2-.5.3-.8.3-.4 0-.7 0-1.1-.1-1-.3-1.9-.5-2.6-.8-.6-.2-1.2-.3-1.9-.4-.5 0-1 0-1.6.1-.8.1-1.5.5-1.9 1.1-.5.6-.7 1.3-.7 2.1-.1.9.3 1.7.9 2.3 1.4.8 2.8 1.4 4.4 1.8 2.5.8 4.6 1.8 6.3 3.3zM173.4 24c1.3 1.3 2 3 1.8 4.8 0 2.3-.9 4.4-2.6 5.9-1.9 1.7-4.4 2.5-7 2.4h-1.3c-.8 0-1.5 0-2-.1l-1.5-.2c-.4 0-.9-.1-1.3-.2l-1.3-.2c-.8-.2-1.3-.5-1.4-1-.1-.5-.2-1-.1-1.5v-.4c0-.1 0-.3.1-.4.1-.4.3-.8.6-1.1.3-.4 1-.5 1.8-.2 1 .3 2 .5 3 .8.8.2 1.7.3 2.5.3h1.8c.9-.1 1.8-.5 2.5-1.2.5-.6.8-1.4.8-2.2 0-.7-.3-1.4-.8-1.9-.5-.7-1.8-1.3-4-2-1-.4-1.9-.7-2.6-1s-1.3-.6-1.9-.9c-1-.6-1.8-1.5-2.4-2.5-.7-1.1-1-2.4-1-3.7 0-3.1 1.7-5.9 4.5-7.3 1.3-.5 2.6-.8 4-.8h2.2c.6 0 1.1 0 1.5.1.4 0 .8.1 1.1.2l1.2.3c.8.2 1.3.5 1.4 1 .1.5.2 1 .1 1.4 0 .1 0 .3-.1.4s0 .3-.1.4c0 .2-.1.4-.2.6-.1.2-.2.4-.4.5-.2.2-.5.3-.8.3-.4 0-.7 0-1.1-.1-1-.3-1.9-.5-2.6-.8-.6-.2-1.2-.3-1.9-.4-.5 0-1 0-1.6.1-.8.1-1.5.5-1.9 1.1-.5.6-.7 1.3-.7 2.1-.1.9.3 1.7.9 2.3 1.4.8 2.8 1.4 4.4 1.8 2.6.8 4.7 1.8 6.4 3.3zM83.6 32.6c-1.9.3-3.9.4-5.9.4-1.5 0-2.9-1-3.5-2.4-.9-2.2-1.3-4.5-1.2-6.8v-1.1c-.1-2.3.3-4.6 1.2-6.8.6-1.4 2-2.3 3.5-2.4 2-.1 3.9.1 5.9.4.4 0 .8-.2.9-.6.2-.8.3-1.6.3-2.5-.1-.5-.6-.8-1.4-1-.5-.1-.9-.2-1.2-.2s-.7-.1-1.1-.1-.9-.1-1.4-.1h-2.2c-3.4 0-5.9 1.2-7.5 3.6-1.4 2.2-2.2 4.7-2.3 7.3 0 .5-.1 1-.1 1.4v2.8c0 .4 0 1 .1 1.4.1 2.6.9 5.1 2.3 7.3 1.6 2.4 4.1 3.6 7.5 3.6h2.2c.6 0 1.1 0 1.4-.1s.8-.1 1.1-.1.8-.1 1.2-.2c.8-.2 1.3-.5 1.4-1 0-.8 0-1.7-.3-2.5-.1-.1-.5-.3-.9-.3zM108.1 33.2c-.1-.8-.2-1.5-.2-2.3V20.2c0-1.1 0-2.3-.2-3.4-.1-.8-.2-1.6-.4-2.4-.4-1.4-1.4-2.6-2.6-3.4-1.7-1-3.6-1.5-5.5-1.5-2.5-.1-5 .3-7.4.9-.5.2-1 .5-1.3 1-.2.8-.2 1.6.2 2.4.1.2.2.4.4.5.2.2.5.3.7.3.4.1.7 0 1.1-.1 1.6-.5 3.3-.9 5-1.1h.1c.9 0 1.9.1 2.8.2.7.1 1.2.7 1.5 1.7.1.6.2 1.1.2 1.7v2.5c0 .3-.1.6-.3.7-.2.1-.4.1-.7.1h-2.3c-.7 0-1.3.1-2 .1-.8.1-1.5.2-2.2.4-.7.2-1.5.4-2.2.7-.6.3-1.2.6-1.8 1.1-2 1.7-3.1 4.2-3 6.8-.1 2.1.6 4.1 2 5.6 1.4 1.4 3.4 2.1 5.4 2 2.7.1 5.5-.4 8.1-1.2.4.7 1.1 1 1.9 1h1.3c.4 0 .8-.1 1.1-.2.3-.1.5-.5.5-1v-.8c-.1-.5-.1-1.1-.2-1.6zm-10.8-.1c-2.3 0-3.5-1.4-3.5-4.1 0-2 .7-3.4 2-4.2 1.7-.8 3.6-1.2 5.5-1.2.6 0 1 .1 1.1.3.1.2.2.5.2.8V26s0 3.1.2 5.6c-1.8.8-3.6 1.3-5.5 1.5zM153.1 33.2c-.1-.8-.2-1.5-.2-2.3V20.2c0-1.1 0-2.3-.2-3.4-.1-.8-.2-1.6-.4-2.4-.5-1.4-1.4-2.6-2.6-3.4-1.6-1-3.5-1.5-5.5-1.5-2.5-.1-5 .3-7.4.9-.5.2-1 .5-1.3 1-.2.8-.2 1.6.2 2.4.1.2.2.4.4.5.2.2.5.3.7.3.4.1.7 0 1.1-.1 1.6-.5 3.3-.9 5-1.1h.2c.9 0 1.9.1 2.8.2.7.1 1.2.7 1.5 1.7.1.6.2 1.1.2 1.7v2.5c0 .3-.1.6-.4.7-.2.1-.4.1-.7.1h-2.3c-.7 0-1.3.1-2 .1-.8.1-1.5.2-2.2.4-.7.2-1.5.4-2.1.7-.6.3-1.2.6-1.8 1.1-2 1.7-3.1 4.2-3 6.8-.1 2.1.6 4.1 2 5.6 1.4 1.4 3.4 2.1 5.4 2 2.7.1 5.5-.4 8.1-1.2.4.7 1.1 1 1.9 1h1.3c.4 0 .8-.1 1.1-.2.3-.1.5-.5.5-1v-.8c-.2-.5-.2-1.1-.3-1.6zm-10.8-.1c-2.3 0-3.5-1.4-3.5-4.1 0-2 .7-3.4 2-4.2 1.7-.8 3.6-1.2 5.5-1.2.6 0 1 .1 1.1.3.1.2.2.5.2.8V26s0 3.1.2 5.6c-1.7.8-3.6 1.3-5.5 1.5z"/><path class="cyt-c" d="m51.5 26-6.1-6.1v-5.8h-3.1v2.6l-4.1-4.2L24.9 26h3.5v8.1h6.4V26h6.7v8.1h6.4V26z"/><path class="cyt-c" d="M54.2 6.7c-9-8.8-23.4-8.8-32.2.2-7.7 7.8-8.8 19.9-2.5 29L18 37.3c.3.4.7.9 1 1.3L.7 56.9c-1 1-1 2.5 0 3.5l.2.2c1 1 2.5 1 3.5 0l18.4-18.4c.4.3.9.7 1.3 1l1.5-1.5c10.6 6.9 24.7 3.9 31.5-6.7 5.9-8.9 4.7-20.7-2.9-28.3zm-2.8 29.4c-7.3 7.3-19.2 7.3-26.6 0s-7.3-19.2 0-26.6 19.2-7.3 26.6 0c3.5 3.5 5.5 8.3 5.5 13.3.1 5-1.9 9.7-5.5 13.3z"/><path class="cyt-c" d="M38.2 7.2v2.4c-.6 0-1.2.1-1.8.2-7.2 1.1-12.8 6.7-13.8 13.9-.1-8.8 6.8-16.1 15.6-16.5z"/><path class="cyt-t" d="M433.6 34.1c0-1.7 1.4-3.1 3.1-3.1 1.7 0 3.1 1.4 3.1 3.1s-1.4 3.1-3.1 3.1c-1.7 0-3.1-1.4-3.1-3.1zm5.7 0c0-1.4-1.2-2.6-2.6-2.6-1.4 0-2.6 1.2-2.6 2.6s1.2 2.6 2.6 2.6c1.4 0 2.6-1.1 2.6-2.6zm-2.6-1.9c1.1 0 1.3.6 1.3 1.1 0 .5-.4.9-.9 1l.8 1.8h-.5l-.8-1.7h-.8v1.7h-.5v-3.8h1.4zm-.8 1.8h.6c.8 0 .9-.3.9-.6s-.3-.7-.8-.7h-.7V34zM370.1 33.3v3.1c0 .7-.6 1.1-2 1.1H367c-1.4 0-2-.4-2-1.1v-3.1c0-.7.6-1.1 2-1.1h1.1c1.4 0 2 .4 2 1.1zM385.2 21.8c0 .6-1.2 2.6-1.8 2.6-.2 0-.4-.1-.6-.2-.9-.5-1.9-.7-2.9-.7-2.7 0-3.8 1.7-3.8 5.1s1 5.2 3.6 5.2c1.1 0 2.3-.3 3.3-.8.2-.1.4-.2.6-.2.7 0 1.8 1.9 1.8 2.6 0 1.9-4.8 2.4-5.9 2.4-5.8 0-8.5-2.9-8.5-9s2.6-9.2 8.7-9.2c2.3-.1 5.5.7 5.5 2.2zM402.4 28.6c0 5.9-2.8 9.1-8.2 9.1s-8.2-3.2-8.2-9.1 2.8-9.1 8.2-9.1 8.2 3.2 8.2 9.1zm-11.3 0c0 3.4 1 5.2 3.1 5.2s3.1-1.8 3.1-5.2-1-5.1-3.1-5.1-3.1 1.7-3.1 5.1zM428.9 25v11.4c0 .7-.6 1.1-2 1.1h-1c-1.4 0-2-.4-2-1.1V25.7c0-1.3-.5-2.1-2-2.1-1.2.1-2.2.8-2.7 1.9v10.9c0 .7-.6 1.1-2 1.1h-1c-1.4 0-2-.4-2-1.1V25.7c0-1.3-.5-2.1-2-2.1-1.2.1-2.2.9-2.7 2v10.8c0 .7-.6 1.1-2 1.1h-1c-1.4 0-2-.4-2-1.1V25.7c0-1.6-.1-3.2-.4-4.8 0-.8 2.9-1.1 3.8-1.1 1.1 0 1.1 1.3 1.4 2.2 1.2-1.6 3-2.5 5-2.6 2.3 0 3.8.8 4.5 2.6 1.3-1.6 3.2-2.5 5.2-2.6 3.2.1 4.9 1.8 4.9 5.6z"/></svg>