<svg xmlns="http://www.w3.org/2000/svg" xmlns:xlink="http://www.w3.org/1999/xlink" viewBox="0 0 539 159">
	<title>CINVESTAV</title>
	<path fill="#059C95" d="M157.7,56.1c-4.2-13-8.7-18.6-13.4-24.5c-1.5-1.8-3.6-3.1-6-3.5c-2.9-0.4-5.8,0.3-11.1,6.1 c-0.9,0.9-1.8,1.9-2.9,3c-2.1-2.1-4.4-4-6.8-5.7c-2.8-2.1-5.7-3.9-8.8-5.4c0.7-1.4,1.4-2.7,2.1-3.9c3.8-6.8,3.4-9.8,2.3-12.5 c-1.3-3.3-5.8-5.1-5.8-5.1C100,2.7,94,0,80.3,0S59.9,2.5,52.8,5.1c-2.2,0.9-4,2.5-5.2,4.6c-1.3,2.6-1.5,5.6,2.3,12.5 c0.8,1.4,1.6,3,2.6,4.8c-2.5,1.4-4.9,2.9-7.2,4.7c-2.6,1.9-5.1,4-7.3,6.4c-1.3-1.4-2.6-2.7-3.6-3.8c-5.3-5.8-8.2-6.5-11.1-6.1 c-2.3,0.4-4.4,1.7-5.9,3.5C12.6,37.4,8.2,43.1,4,56.1S0.3,75.7,0,83.3c0,0,0.3,4.9,3,7.2c2.3,1.9,4.9,3.2,12.6,1.6 c1.8-0.4,3.9-0.7,6.2-1.1c0.5,2.7,1.2,5.4,2.1,8c1,3.1,2.2,6.1,3.7,8.9c-2,1-3.9,1.9-5.5,2.7c-7.1,3.3-8.7,5.9-9.2,8.8 c-0.3,2.3,0.2,4.7,1.5,6.7c4.2,6.3,8.2,12.2,19.3,20.2s17.5,9.4,24.6,12c0,0,4.8,1.2,7.8-0.7c2.4-1.6,4.5-3.7,5.4-11.5 c0.2-1.8,0.5-3.8,0.8-6c3.1,0.5,6.1,0.7,9.2,0.7c2.7,0,5.4-0.1,8.1-0.4c0.3,2,0.6,3.9,0.7,5.6c0.9,7.8,2.9,9.9,5.4,11.5 c3,1.9,7.7,0.7,7.7,0.7c7.1-2.6,13.5-4,24.6-12s15.1-14,19.3-20.2c1.3-2,1.8-4.4,1.5-6.7c-0.5-2.9-2.1-5.4-9.2-8.7 c-1.4-0.6-2.9-1.4-4.6-2.2c1.6-3,3-6.2,4-9.4c0.9-2.5,1.6-5.1,2.1-7.7c1.8,0.3,3.4,0.6,4.8,0.9c7.7,1.5,10.3,0.2,12.6-1.6 c2.8-2.3,3-7.2,3-7.2C161.4,75.6,162,69.1,157.7,56.1L157.7,56.1z M119,48.1l1-1c0.7,0.8,1.2,1.5,1.6,2.1c0,0,2.5,2.9,2.5,4.9 c0,1.5-1.8,2.7-5.8,4.7C115.2,53.7,112.9,54,119,48.1L119,48.1z M124.2,76.1c4.2-0.6,6.3-0.6,7.1,0.6c1.1,1.6,0.8,5.4,0.8,5.4 c-0.1,1.1-0.2,2.2-0.4,3.5l-0.6-0.1C122.2,84.2,125.1,83.1,124.2,76.1z M131.2,89.5c-0.4,2.2-1,4.3-1.7,6.4c-0.9,2.7-2,5.3-3.3,7.8 c-3.2-1.8-6.6-3.4-10-4.8c-3.7-1.3-4.5-0.8-7.1,3.5c-0.2,0.3-0.4,0.6-0.6,0.9c-3.3-3.7-0.1-3.1,2.5-9.5c1.1-2.4,1.9-5,2.6-7.6 c1.7-6.2-0.8-7.8,3-8.9c0.1,1,0.2,2,0.1,3c-0.5,5.1-0.1,5.8,3.6,7C122.1,88,126.4,88.7,131.2,89.5L131.2,89.5z M124.2,106.9 l-0.8,1.2c0,0-2,3.2-3.9,3.8c-1.3,0.4-2.8-0.6-5.5-3.1c3.3-4.1,2.7-5.8,9.9-2L124.2,106.9z M102.4,101c1.3,1.5,2.6,3,4.1,4.4 c-2.6,2.5-5.4,4.6-8.4,6.4c-0.8-1.6-1.7-3.2-2.7-4.8c-1.7-2.4-2.3-2.5-5.9-1c-3.3,1.4-11.9,1.4-15.4-0.1s-4.2-1.4-5.9,0.9 c-1.2,1.9-2.3,3.8-3.3,5.7c-3.1-1.8-6.1-3.9-8.7-6.3c2.1-2.1,3.8-3.9,4.6-4.8c1.8-2.3,1.7-3-0.9-5.8s-5.1-11-4.7-14.5 c0.4-3.8,0.1-4.4-2.7-5.3c-2.2-0.6-4.4-1-6.7-1.3c0.8-3.5,2-6.9,3.6-10.2c1.8,0.9,3.7,1.7,5.6,2.4c2.8,0.9,3.4,0.6,5.3-2.7 s8.9-8.3,12.4-9.2c3.7-0.8,4.2-1.3,4.1-4.3c-0.1-1.8-0.3-3.5-0.7-5.2c3.7-0.4,7.4-0.3,11,0.3c-0.3,1.7-0.5,3.4-0.6,5.1 c-0.1,2.9,0.4,3.4,4.2,4.3c3.5,0.8,10.5,5.7,12.4,9s2.5,3.6,5.3,2.7c1.5-0.5,2.9-1.2,4.3-1.9c1.5,3.1,2.6,6.3,3.3,9.7 c-1.7,0.2-3.3,0.6-4.9,1c-2.8,0.9-3.2,1.4-2.8,5.2c0.3,3.5-2.3,11.6-4.9,14.5S100.7,98.7,102.4,101L102.4,101z M45.6,99 c-3.1,1.3-6.1,2.7-9.1,4.3c-1.2-2.3-2.2-4.7-3-7.2c-0.7-2.2-1.3-4.5-1.7-6.8c3.2-0.4,6.4-1.1,9.5-1.8c3.8-1.2,4.2-2,3.7-7 c-0.1-1,0-2.1,0.1-3.1c6.1,1.1,2.8,2.3,4.6,9.2c0.6,2.6,1.5,5.2,2.6,7.6c2.6,6.6,6,5.7,1.8,10.1c-0.5-0.5-0.9-1.1-1.3-1.7 C50.2,98.1,49.4,97.7,45.6,99L45.6,99z M48.4,109.6c-2.3,2.1-3.7,3-4.9,2.6c-1.9-0.6-3.9-3.9-3.9-3.9c-0.3-0.5-0.7-1.1-1.2-1.8 C45.5,103,44.5,105.1,48.4,109.6L48.4,109.6z M31.4,85.4c-0.1-1.1-0.2-2.1-0.3-3.1c0,0-0.3-3.8,0.8-5.4c0.7-1,2.4-1.1,5.5-0.7 C36.6,82.9,39.3,84.1,31.4,85.4L31.4,85.4z M111.7,39.6c2,1.4,3.8,3,5.6,4.7c-2.9,2.8-5.7,5.7-8.3,8.8c-2.3,3.2-2.2,4,1.2,7.9 c0.3,0.4,0.6,0.8,0.9,1.2c-3.2,1-2.4-1.7-7.2-5.7c-2-1.8-4.2-3.4-6.5-4.7c-5.4-3.4-7.7-1.7-7.6-5.4l0.8,0.3c4.7,2,5.6,1.9,7.8-1.3 c2.1-3.3,4-6.7,5.7-10.2C106.8,36.4,109.4,37.9,111.7,39.6L111.7,39.6z M91,38.6c0.8-4.2,1.4-6.2,2.8-6.6c1.9-0.6,5.4,0.9,5.4,0.9 l1.2,0.5c-0.2,0.3-0.3,0.6-0.4,0.9C96.5,41.6,96,40,91,38.6L91,38.6z M55.5,19.3C57.1,17.2,62,16,62,16c4.4-0.9,9.5-2.5,18.6-2.5 c6.1-0.1,12.2,0.7,18.1,2.5c0,0,5,1.2,6.6,3.3c0.8,1.1,0.6,2.6-0.4,5.1c-2.2-0.8-4.2-1.4-6.3-2c-1.7-0.5-3.6-0.3-5.2,0.5 c-2,1-3.4,2.7-4.2,8.5c-0.2,1.9-0.6,4.2-1,6.6c-0.8-0.1-1.6-0.2-2.5-0.3c-2.1-0.1-3.1-0.5-10.7,0h-0.3c-0.4-2.4-0.8-4.6-1-6.4 c-0.8-5.8-2.3-7.5-4.2-8.5c-1.6-0.7-3.5-0.9-5.2-0.4c-2.8,0.7-5.5,1.7-8.1,2.8C54.9,22.2,54.6,20.4,55.5,19.3z M71.8,38.1 c-6.9,1.3-7.1,4.4-11.1-3.7c0,0,0-0.1,0-0.1c1.1-0.5,2.1-0.9,3-1.3c0,0,3.5-1.5,5.4-1C70.4,32.4,71,34.3,71.8,38.1z M51.3,39.8 c1.9-1.4,3.9-2.7,6-3.8c1.5,3.2,3.3,6.3,5.2,9.4c2.3,3.2,3.1,3.3,7.8,1.3c1-0.4,2-0.7,3-0.8c0.4,4.3-2,2.3-7.5,5.9 c-2.3,1.4-4.5,3-6.5,4.8c-5.3,4.4-3.7,7.3-8.4,5.3c0.2-0.3,0.4-0.6,0.7-0.9c3.3-3.8,3.4-4.7,1.1-7.9c-2.4-2.8-4.9-5.5-7.5-8 C47,43.1,49.1,41.4,51.3,39.8L51.3,39.8z M41.5,49.4c0.3-0.4,0.7-0.9,1.1-1.4l0.1,0.1c5.9,5.8,3.9,5.6,1,10.3 c-3.2-1.7-4.7-2.7-4.7-4.1C39,52.3,41.5,49.4,41.5,49.4z M23.4,73.5c-1.2,1.3-2,2.9-2.1,4.7c-0.2,2.9-0.2,5.8,0,8.6 c-3.8,0.4-5.8,0.3-6.8-1.1c-1.5-2.1-1.1-7.2-1.1-7.2c0.1-6.1,1.2-12.2,3.1-18c2.8-8.7,5.9-13,8.2-16.9c0,0,2.7-4.3,5.1-5.2 c1.4-0.5,3,0.3,5.4,2.5c-1.5,1.9-2.8,3.6-4.2,5.5c0,0-2,3.1-1.3,5.6c0.6,2.1,1.6,4,7,6.4c1.5,0.7,3.3,1.5,5.3,2.4 c-0.3,0.6-0.5,1.1-0.8,1.8c-2.8,7.1-2.8,8.2-3.3,10.2c0,0.1-0.1,0.2-0.1,0.4c-1.9-0.3-3.7-0.6-5.2-0.9C27.1,71.2,25,72,23.4,73.5z  M65.2,145.2c-2.5,0.8-7.2-1.2-7.2-1.2c-5.8-2-11.3-4.8-16.2-8.5c-7.4-5.4-10.5-9.6-13.6-12.9c0,0-3.3-3.9-3.4-6.5 c0-1.6,1.5-2.9,4.8-4.8c1.3,2.1,2.6,3.8,3.9,5.7c0,0,2.3,2.8,5,3c2.2,0.1,4.4-0.2,8.4-4.5c1-1.1,2.3-2.4,3.7-3.7 c0.3,0.3,0.6,0.5,0.9,0.8c2.7,2.4,5.6,4.4,8.7,6.3c0.3,0.2,0.7,0.4,1,0.6c-0.9,1.7-1.8,3.3-2.5,4.6c-2.9,5.1-2.7,7.3-1.8,9.3 c1,2.5,4.4,3.8,4.4,3.8c2.4,0.7,4.6,1.4,7.1,2.1C67.5,142.9,66.8,144.7,65.2,145.2z M70,129.4c-0.8-0.2-1.6-0.4-2.2-0.6 c0,0-3.7-0.9-4.9-2.5c-0.8-1-0.3-2.6,1.1-5.5C69.5,123.1,71.2,121.5,70,129.4z M86.8,120c0.2,3.5,0.7,7,1.3,10.4 c-2.2,0.3-4.5,0.4-6.7,0.4c-2.5,0-5.1-0.2-7.6-0.6c0.6-3.3,1-6.7,1.3-10.1c0-3.9-0.6-4.6-5.6-5.6c-0.7-0.2-1.3-0.4-1.9-0.6 c2.9-5.2,3-1.7,10.2-1.2c2.7,0.3,5.4,0.3,8.1,0.1c6.7-0.3,7.4-3.4,9.7,0.5c-1,0.5-2,0.9-3.1,1.1C87.5,115.4,86.8,116.1,86.8,120 L86.8,120z M99,120.2c1.7,3.5,2.3,5.3,1.4,6.4c-1.2,1.6-4.9,2.4-4.9,2.4c-1.1,0.2-2.2,0.5-3.5,0.7C90.5,120.8,92.5,123.3,99,120.2 L99,120.2z M137,116c0,2.6-3.4,6.5-3.4,6.5c-3,3.4-6.2,7.6-13.6,12.9c-4.9,3.7-10.3,6.5-16.1,8.5c0,0-4.7,2-7.2,1.2 c-1.4-0.4-2.2-2.1-2.9-5.3c2.9-0.6,5.8-1.5,8.6-2.6c1.7-0.6,3-1.8,3.9-3.4c1-1.9,1.2-4.2-1.7-9.3c-0.9-1.6-1.9-3.6-3-5.7l0.1-0.1 c3.1-1.8,6-3.9,8.7-6.3c0.6-0.5,1.2-1,1.7-1.4c1.5,1.5,2.9,3,4.1,4.2c4,4.3,6.2,4.7,8.4,4.6c2.7-0.1,5-3,5-3 c1.2-1.7,2.4-3.3,3.6-5.1C135.8,113.3,137,114.5,137,116L137,116z M147.1,85.8c-0.8,1.1-2.4,1.4-5.2,1.2c0.3-2.9,0.3-5.9,0.1-8.8 c-0.1-1.8-0.8-3.4-2-4.7c-1.6-1.5-3.7-2.4-9.5-1.3c-1.9,0.4-4.4,0.8-6.9,1.1l-0.1-0.4c-0.8-3.5-1.9-6.9-3.3-10.2 c-0.2-0.5-0.4-0.9-0.6-1.4c2.4-1.2,4.7-2.3,6.5-3.1c5.4-2.4,6.4-4.3,7-6.4c0.7-2.6-1.3-5.6-1.3-5.6c-1.6-2-2.9-3.9-4.7-6 c2-1.6,3.3-2.2,4.6-1.7c2.5,0.8,5.1,5.2,5.1,5.2c2.2,3.9,5.3,8.2,8.2,16.9c2,5.8,3.1,11.9,3.2,18C148.2,78.5,148.7,83.6,147.1,85.8 L147.1,85.8z"/>
	<path fill="var(--body-color-high, #059C95)" d="M231.4,50.7h13.3v9.8h-13.3V50.7z M221.1,104.8l3.4-1.6V90.6h-1.2c-0.7,0.6-1.5,1.3-2.4,2.1 c-1,0.8-2.1,1.6-3.2,2.3c-1.3,0.8-2.6,1.5-4.1,2c-1.6,0.6-3.4,0.9-5.1,0.9c-1.7,0-3.5-0.3-5.1-0.9c-1.8-0.6-3.3-1.6-4.7-2.9 c-1.6-1.6-2.7-3.4-3.5-5.5c-1-2.7-1.4-5.6-1.3-8.4c-0.1-2.8,0.4-5.6,1.3-8.3c0.7-2.1,1.8-4,3.3-5.6c1.3-1.4,2.9-2.5,4.6-3.2 c1.7-0.6,3.5-0.9,5.4-0.9c1.6,0,3.2,0.3,4.7,0.8c1.4,0.5,2.8,1.2,4.1,2c1.2,0.7,2.3,1.5,3.4,2.3c1,0.8,1.8,1.5,2.4,2.1h1.4V56.6 c-0.9-0.5-2.1-1-3.5-1.6c-1.3-0.6-2.6-1.1-4-1.5c-1.6-0.4-3.3-0.8-4.9-1c-1.9-0.3-3.8-0.4-5.8-0.4c-8.1,0-14.5,2.5-19.2,7.6 c-4.7,5.1-7.1,11.8-7.1,20.3c0,8.8,2.4,15.7,7.1,20.5s11.1,7.3,19.2,7.3c2,0,4.1-0.1,6.1-0.4c1.6-0.3,3.2-0.7,4.7-1.2 C218.5,105.9,219.8,105.4,221.1,104.8L221.1,104.8z M231.8,66.3h12.6v40.5h-12.6V66.3z M266.6,78.1c1-0.7,2.2-1.4,3.4-1.8 c1-0.4,2.1-0.6,3.1-0.6c1.1,0,2.2,0.2,3.3,0.6c0.8,0.4,1.5,1.1,1.9,2c0.4,1.1,0.7,2.4,0.7,3.6c0.1,1.6,0.2,3.3,0.2,4.9v20H292V80.5 c0-4.9-1.1-8.7-3.3-11.3s-5.3-3.9-9.5-3.9c-2.3,0-4.5,0.5-6.5,1.5c-2.2,1.1-4.2,2.5-6,4.1v-4.5H254v40.5h12.6V78.1z M326.2,66.3 L318,93.1l-8.3-26.8h-13.3l14.4,40.5h13.8l14.5-40.5C339.2,66.4,326.2,66.4,326.2,66.3z M381.3,84.4c0-6.2-1.6-11-4.7-14.3 s-7.8-5-14-5c-6.8,0-12.1,2-15.9,5.9s-5.7,9.2-5.7,15.8c0,6.8,2,12,6.1,15.6c4.1,3.6,9.9,5.5,17.6,5.5c1.8,0,3.5-0.1,5.3-0.3 c1.4-0.2,2.8-0.5,4.2-0.8c1.2-0.3,2.4-0.6,3.5-1.1c0.9-0.3,1.8-0.7,2.8-1.1V94.1h-1.3c-0.5,0.4-1.3,0.9-2.1,1.4 c-0.9,0.5-1.9,1-2.9,1.5c-1.2,0.6-2.6,1-3.9,1.3c-1.4,0.3-2.9,0.5-4.3,0.5c-1.6,0-3.2-0.2-4.7-0.5c-1.4-0.3-2.6-0.8-3.8-1.6 c-1.1-0.8-2-1.8-2.7-3c-0.7-1.5-1.1-3.1-1.2-4.7h27.6L381.3,84.4z M353.7,81.4c0-2.2,0.8-4.3,2.3-6c1.5-1.5,3.6-2.3,5.8-2.2 c2.4,0,4.2,0.7,5.4,2.1c1.3,1.8,1.9,3.9,1.9,6.1L353.7,81.4z M414.7,103.9c1.6-1.1,2.9-2.6,3.8-4.3c0.9-1.7,1.3-3.5,1.3-5.4 c0.1-2.6-0.7-5.2-2.3-7.2c-1.8-2-4.1-3.4-6.6-4.1c-1.3-0.4-2.7-0.8-4-1c-1.4-0.2-2.6-0.5-3.7-0.8c-1.4-0.2-2.8-0.8-4.1-1.6 c-0.6-0.5-1-1.3-0.9-2.2c0.1-1.1,0.8-2.1,1.9-2.5c1.5-0.7,3-1,4.6-0.9c1.3,0,2.7,0.2,4,0.5c1.2,0.3,2.4,0.7,3.6,1.2 c0.9,0.4,1.8,0.9,2.7,1.5c0.7,0.4,1.4,0.9,2.1,1.3h1V68.1c-1.9-0.9-3.9-1.6-6-2c-2.6-0.6-5.2-0.9-7.8-0.8c-2.7,0-5.4,0.3-8,1.1 c-2.2,0.6-4.2,1.6-6,2.9c-1.5,1.1-2.8,2.6-3.7,4.3c-0.8,1.6-1.3,3.3-1.3,5.1c-0.1,2.7,0.7,5.4,2.4,7.6c1.9,2.1,4.4,3.6,7.1,4.4 c1.3,0.4,2.6,0.7,3.9,1c1.5,0.3,2.7,0.5,3.6,0.8c1.3,0.2,2.5,0.7,3.6,1.4c0.6,0.5,1,1.3,0.9,2.1c0,1.2-0.8,2.3-2,2.6 c-1.5,0.6-3.1,0.9-4.7,0.8c-1.6,0-3.2-0.2-4.8-0.6c-1.4-0.4-2.7-0.8-4-1.4c-1.1-0.5-2.2-1.1-3.2-1.7c-0.8-0.6-1.5-1.1-2.1-1.5h-1 v10.7c2.1,1,4.3,1.8,6.6,2.3c2.8,0.7,5.6,1,8.5,1c2.8,0.1,5.7-0.3,8.4-1C410.8,106.4,412.9,105.3,414.7,103.9z M430.1,104.4 c2.4,2.1,6.1,3.2,11.2,3.2c1.9,0,3.8-0.1,5.7-0.3c1.5-0.2,2.9-0.5,4.4-0.8v-8.9h-1.1c-0.7,0.4-1.5,0.6-2.3,0.8 c-0.9,0.3-1.8,0.4-2.6,0.4c-1.3,0.1-2.6-0.2-3.7-0.7c-0.8-0.4-1.4-1.1-1.8-2c-0.4-0.9-0.6-1.9-0.6-2.8V75.1h12.1v-8.8h-12.2V54.8 h-12.6v11.6h-4.8v8.8h4.8v18.9C426.6,98.9,427.8,102.3,430.1,104.4L430.1,104.4z M486.6,68.7c-3.2-2.3-8.3-3.5-15.2-3.5 c-2.8,0-5.6,0.2-8.4,0.7c-2.8,0.5-4.8,0.9-6.1,1.3V77h1.1c1.9-0.8,3.9-1.5,5.9-2.1c1.7-0.5,3.5-0.8,5.2-0.8c2.5-0.1,5.1,0.3,7.4,1.3 c1.6,0.8,2.5,2.4,2.5,4.6v0.2c-3.7,0.2-7.1,0.6-10.2,1c-2.8,0.3-5.6,1.1-8.2,2.3c-2.1,1-3.9,2.5-5.2,4.4c-1.3,2.2-1.9,4.7-1.8,7.3 c-0.1,3.4,1.2,6.7,3.5,9.1c2.3,2.4,5.6,3.7,8.9,3.6c1.5,0,3-0.1,4.5-0.4c1.1-0.3,2.2-0.7,3.3-1.3c1-0.5,1.9-1,2.8-1.7 c0.7-0.6,1.5-1.2,2.3-2v4.3h12.5V79.3C491.4,74.5,489.8,71,486.6,68.7L486.6,68.7z M478.8,96.3c-0.9,0.9-2,1.6-3.1,2.1 c-1.1,0.5-2.2,0.7-3.4,0.8c-1.6,0.1-3.2-0.3-4.5-1.1c-1-0.7-1.5-2-1.5-3.9c-0.1-1.1,0.3-2.2,0.9-3.1c0.7-0.8,1.6-1.4,2.6-1.8 c1.3-0.5,2.6-0.8,3.9-0.9c1.3-0.2,3-0.3,5.2-0.6V96.3z M524.1,106.8l14.5-40.5h-13l-8.2,26.8l-8.3-26.8h-13.3l14.4,40.5H524.1 L524.1,106.8z"/>
</svg>
