<svg version="1.1" xmlns="http://www.w3.org/2000/svg" xmlns:xlink="http://www.w3.org/1999/xlink" x="0px" y="0px" viewBox="0 0 439.8 61.3" style="enable-background:new 0 0 439.8 61.3;" xml:space="preserve">
	<title>Casas y Terrenos</title>
	<style type="text/css">
		.cyt-t{ fill: var(--body-color-high, white); }
		.cyt-c{ fill: #F9A21F; }
	</style>
	<path class="cyt-t" d="M359.4,24c1.3,1.2,2,3,1.9,4.8c0,2.3-0.9,4.4-2.6,5.9c-1.9,1.7-4.4,2.5-7,2.4h-1.4c-0.8,0-1.5,0-2-0.1l-1.5-0.2
		c-0.5,0-0.9-0.1-1.3-0.2l-1.2-0.2c-0.8-0.2-1.3-0.5-1.4-1c-0.1-0.5-0.2-1-0.1-1.5c0-0.1,0-0.3,0-0.4c0-0.1,0-0.3,0.1-0.4
		c0.1-0.4,0.3-0.8,0.6-1.1c0.3-0.4,1-0.5,1.8-0.2c1,0.3,2,0.5,3,0.8c0.8,0.2,1.7,0.3,2.5,0.3h1.8c0.9-0.1,1.8-0.5,2.5-1.2
		c0.5-0.6,0.8-1.4,0.8-2.2c0-0.7-0.3-1.4-0.8-1.9c-0.5-0.7-1.8-1.3-4-2c-1-0.4-1.9-0.7-2.6-1c-0.7-0.3-1.3-0.6-1.9-0.9
		c-1.1-0.6-1.9-1.5-2.5-2.5c-0.7-1.1-1-2.4-1-3.7c0-3.1,1.7-5.9,4.5-7.3c1.3-0.5,2.6-0.8,4-0.8c0.9,0,1.6,0,2.2,0s1.1,0,1.5,0.1
		c0.4,0,0.8,0.1,1.1,0.2l1.2,0.3c0.8,0.2,1.3,0.5,1.4,1c0.1,0.5,0.2,1,0.1,1.4c0,0.1,0,0.3,0,0.4c0,0.1,0,0.3,0,0.4
		c0,0.2-0.1,0.4-0.2,0.6c-0.1,0.2-0.2,0.4-0.4,0.5c-0.2,0.2-0.5,0.3-0.8,0.3c-0.4,0-0.7,0-1.1-0.1l-2.6-0.8c-0.6-0.2-1.2-0.3-1.9-0.4
		c-0.5,0-1,0-1.5,0.1c-0.8,0.1-1.5,0.5-2,1.1c-0.5,0.6-0.7,1.3-0.7,2.1c-0.1,0.9,0.3,1.7,0.9,2.3c1.4,0.8,2.8,1.4,4.4,1.8
		C355.5,21.4,357.6,22.5,359.4,24z"/>
	<path class="cyt-t" d="M339.7,23.2c0,9.4-3.5,14.1-10.4,14.1c-2.9,0.1-5.7-1.1-7.6-3.4c-1.8-2.2-2.7-5.7-2.7-10.4
		c0-9.2,3.5-13.7,10.4-13.8c2.9-0.1,5.7,1.1,7.5,3.3C338.8,15.2,339.7,18.6,339.7,23.2z M333.9,23.4c0-3.6-0.4-6.2-1.2-7.6
		c-0.6-1.3-2-2.1-3.4-2.1c-3,0-4.6,3.2-4.6,9.7c-0.2,2.5,0.2,5,1,7.3c0.5,1.5,2,2.4,3.5,2.3c1.6,0,3-0.9,3.5-2.4
		C333.7,28.4,334,25.9,333.9,23.4L333.9,23.4z"/>
	<path class="cyt-t" d="M203.3,15.1c0-0.4-0.3-0.7-0.7-0.7c0,0,0,0,0,0h-2.2c-0.9,0.1-1.7-0.5-1.8-1.4c0-0.1,0-0.3,0-0.5V11
		c0-0.5,0.4-0.8,1.1-0.8h3c0.4,0,0.8-0.3,0.8-0.7c0,0,0,0,0,0l0.1-4.7c0-0.5,0.2-0.9,0.5-1.2c0.3-0.2,0.6-0.3,1-0.3h2.1
		c0.4,0,0.7,0.1,1,0.3c0.4,0.3,0.6,0.8,0.5,1.2l0.1,4.7c0,0.4,0.4,0.7,0.8,0.7c0,0,0,0,0,0h3c0.7,0,1.1,0.3,1.1,0.8v1.6
		c0.1,0.9-0.5,1.7-1.4,1.8c-0.2,0-0.3,0-0.5,0h-2.4c-0.4,0-0.7,0.3-0.7,0.6c0,0,0,0,0,0c0,0.9,0,11.5,0,12.8v2.2
		c-0.1,0.6,0.2,1.3,0.7,1.7c0.7,0.5,1.5,0.7,2.3,0.6c0.8,0,2.3-0.3,2.7,0.2c0.8,0.8,0.6,3,0.4,3.5s-0.7,0.7-1.5,0.8l-0.8,0.1
		l-0.6,0.1c-0.2,0-0.5,0-0.8,0h-1.1c-0.9,0-1.9-0.2-2.7-0.6c-0.8-0.4-1.4-0.9-2-1.5c-0.4-0.6-0.8-1.2-1.1-1.8
		c-0.5-1.1-0.8-2.4-0.7-3.7v-1.7C203.3,26.8,203.3,16.3,203.3,15.1L203.3,15.1z"/>
	<path class="cyt-t" d="M232,19.9c-0.1,0.2-0.2,0.3-0.4,0.4c-0.2,0.1-0.5,0.2-0.8,0.2h-9.7c-1,0.1-1.8,1-1.7,2c0.1,0.9,0.8,1.6,1.7,1.7
		h12.7c1,0,1.9-0.4,2.4-1.2c0.6-0.8,0.8-1.8,0.8-2.8c0-0.7,0-1.4-0.1-2.1c-0.1-0.6-0.2-1.3-0.4-1.9c-0.6-1.9-1.7-3.6-3.3-4.9
		c-1.6-1.3-3.6-1.9-5.7-1.9c-3-0.1-5.9,1.3-7.7,3.7c-1.9,2.5-2.8,6-2.8,10.5s0.9,7.8,2.8,10v0c1.7,2.3,4.5,3.6,7.4,3.4
		c0.9,0,1.7,0,2.4,0s1.3-0.1,1.9-0.1s1.1-0.1,1.5-0.2l1.4-0.2c0.8-0.2,1.3-0.5,1.4-1c0.1-0.5,0.2-1,0.1-1.4c0-0.1,0-0.3,0-0.4
		s0-0.3,0-0.4c0-0.2-0.1-0.4-0.2-0.6c-0.1-0.2-0.2-0.4-0.4-0.6c-0.2-0.2-0.5-0.3-0.7-0.3c-0.4,0-0.8,0-1.1,0.1
		c-1,0.3-1.9,0.5-2.8,0.7c-0.9,0.2-1.9,0.3-2.8,0.3h-0.1c-0.7,0-1.4-0.1-2-0.4c-0.6-0.3-1.2-0.8-1.6-1.3c-0.6-0.8-1-1.8-1.2-2.8
		c-0.3-2.9-0.3-5.7,0-8.6c0.1-1.7,0.6-3.3,1.4-4.8c0.7-1,1.9-1.6,3.2-1.6c1.3,0,2.5,0.5,3.2,1.5c0.9,1.2,1.3,2.6,1.2,4v0.3
		C232.1,19.5,232.1,19.7,232,19.9z"/>
	<path class="cyt-t" d="M286,19.9c-0.1,0.2-0.2,0.3-0.4,0.4c-0.2,0.1-0.5,0.2-0.8,0.2h-9.7c-1-0.1-1.9,0.7-2,1.7c-0.1,1,0.7,1.9,1.7,2
		c0.1,0,0.2,0,0.3,0h12.7c1,0.1,1.9-0.4,2.5-1.2c0.6-0.8,0.8-1.8,0.8-2.8c0-0.8,0-1.4-0.1-2.1c-0.1-0.6-0.2-1.3-0.4-1.9
		c-0.6-1.9-1.7-3.6-3.3-4.9c-1.6-1.3-3.6-1.9-5.6-1.9c-3-0.1-5.9,1.3-7.7,3.7c-1.9,2.5-2.9,6-2.9,10.5s0.9,7.8,2.8,10v0
		c1.7,2.3,4.5,3.6,7.4,3.4c0.9,0,1.7,0,2.4,0s1.3-0.1,1.9-0.1s1.1-0.1,1.5-0.2l1.4-0.2c0.8-0.2,1.3-0.5,1.4-1c0.1-0.5,0.2-1,0.1-1.4
		c0-0.1,0-0.3,0-0.4c0-0.1,0-0.3,0-0.4c0-0.2-0.1-0.4-0.2-0.6c-0.1-0.2-0.2-0.4-0.4-0.6c-0.2-0.2-0.5-0.3-0.7-0.3
		c-0.4,0-0.8,0-1.1,0.1c-1,0.3-1.9,0.5-2.8,0.7c-0.9,0.2-1.9,0.3-2.8,0.3h-0.1c-0.7,0-1.4-0.1-2-0.4c-0.6-0.3-1.2-0.8-1.6-1.3
		c-0.6-0.8-1-1.8-1.2-2.8c-0.3-2.9-0.3-5.7,0-8.6c0.1-1.7,0.6-3.3,1.4-4.8c0.7-1,1.9-1.6,3.2-1.6c1.3,0,2.5,0.5,3.3,1.5
		c0.8,1.2,1.3,2.6,1.2,4v0.3C286.2,19.5,286.1,19.7,286,19.9z"/>
	<path class="cyt-t" d="M302.7,9.7c0,0-5.9,0.3-6.6,5.2c-0.1,1-0.2,2-0.2,3V33c0,0.5,0,1-0.1,1.4c-0.1,0.4-0.1,0.9-0.1,1.3
		c0,0.3,0.1,0.6,0.2,0.8c0.2,0.2,0.5,0.4,0.8,0.3h3.9c0.4,0,0.6-0.1,0.7-0.4c0.1-0.3,0.1-0.7,0.1-1c0-0.4,0-0.8-0.1-1.2
		c-0.1-0.4-0.1-0.8-0.1-1.2V16.9c0-2,1.8-2.8,3.8-2.8l0,0c2,0,3.8,0.8,3.8,2.8v16.2c0,0.4,0,0.8-0.1,1.2c-0.1,0.4-0.1,0.8-0.1,1.2
		c0,0.3,0,0.7,0.1,1c0.1,0.2,0.3,0.4,0.7,0.4h3.9c0.3,0,0.6-0.1,0.8-0.3c0.1-0.2,0.2-0.5,0.2-0.8c0-0.4,0-0.9-0.1-1.3
		c-0.1-0.5-0.1-1-0.1-1.4V17.9c0-1-0.1-2-0.2-3c-0.8-4.9-6.6-5.2-6.6-5.2L302.7,9.7z"/>
	<path class="cyt-t" d="M253.1,15.4c0.4,0,0.7-0.1,0.9-0.4c0.1-1.2,0.1-2.3,0-3.5c0-0.6-0.4-1.1-0.9-1.1c0,0-4.3-0.3-6,2.6
		c0,0,0-0.1,0-0.1c0-0.6-0.1-1.2-0.3-1.7c-0.5-0.6-1.8-0.7-2.2-0.7c-0.4,0-0.8,0-1.2,0.1c-0.3,0.1-1.7,0.1-1.7,1.5c0,0,0,3.3,0,3.8
		V33c0,0.4,0,0.8-0.1,1.2c-0.1,0.4-0.1,0.8-0.1,1.2c0,0.3,0,0.7,0.2,1c0.1,0.3,0.4,0.4,0.7,0.4h3.9c0.3,0,0.6-0.1,0.8-0.3
		c0.1-0.2,0.2-0.5,0.2-0.8c0-0.4,0-0.8-0.1-1.3c-0.1-0.5-0.1-1-0.1-1.4V22c0-0.9,0-1.1,0-1.8C247,15.5,253.1,15.4,253.1,15.4z"/>
	<path class="cyt-t" d="M268.6,15.4c0.4,0,0.7-0.1,0.9-0.4c0.1-1.2,0.1-2.3,0-3.5c0-0.6-0.4-1.1-0.9-1.1c0,0-4.3-0.3-6,2.6
		c0,0,0-0.1,0-0.1c0-0.6-0.1-1.2-0.4-1.7c-0.5-0.6-1.8-0.7-2.2-0.7c-0.4,0-0.8,0-1.2,0.1c-0.3,0.1-1.7,0.1-1.7,1.5c0,0,0,3.3,0,3.8
		V33c0,0.4,0,0.8-0.1,1.2c-0.1,0.4-0.1,0.8-0.1,1.2c0,0.3,0,0.7,0.2,1c0.1,0.3,0.4,0.4,0.7,0.4h3.9c0.3,0,0.6-0.1,0.8-0.3
		c0.1-0.2,0.2-0.5,0.2-0.8c0-0.4,0-0.8-0.1-1.3c-0.1-0.5-0.1-1-0.1-1.4V22c0-0.9,0-1.1,0-1.8C262.5,15.5,268.6,15.4,268.6,15.4z"/>
	<path class="cyt-c" d="M194.5,39.6c-0.3,1.2-0.8,2.4-1.6,3.4l0,0c-1.3,1.7-5.2,2.5-7.8,2.5h-1.7h-1.1c-0.3,0-0.6,0-0.9-0.1l-0.9-0.2
		c-0.7-0.1-1.1-0.4-1.1-0.7c-0.1-0.3-0.2-0.7-0.1-1.1c0-0.1,0-0.2,0-0.3c0-0.1,0-0.2,0-0.3c0-0.1,0.1-0.3,0.1-0.4
		c0.1-0.2,0.2-0.3,0.3-0.4c0.2-0.1,0.4-0.2,0.6-0.2c0.3,0,0.6,0,0.9,0.1l1,0.3c0.3,0.1,0.5,0.1,0.7,0.2c0.3,0.1,0.5,0.1,0.8,0.1
		c0.3,0,0.6,0,1,0c1.2,0,2.4-0.1,3.6-0.3c0.5-0.2,0.9-0.6,1.3-1c0.5-0.7,0.8-1.4,0.9-2.2c0.2-0.9,0.2-1.8,0.2-2.7l0,0
		c0-0.1,0-0.1-0.1-0.2c-0.1-0.1-0.2-0.2-0.3-0.1c-0.3,0-0.5,0.2-0.7,0.3l-0.6,0.5l-0.6,0.5c-0.3,0.2-0.6,0.4-1,0.5
		c-0.5,0.1-1,0.2-1.5,0.2h-0.7c-0.8,0-1.5-0.2-2.2-0.6c-0.6-0.3-1.1-0.7-1.5-1.2c-0.5-0.6-0.8-1.3-0.9-2c-0.1-0.7-0.2-1.5-0.2-2.2
		V20.2c0-0.4-0.1-0.8-0.1-1.2c-0.1-0.3-0.1-0.6-0.1-0.9v-0.6c0-0.4,0.2-0.7,0.6-0.9c0.3-0.1,0.6-0.2,0.9-0.3c0.4-0.1,0.7-0.1,1.1-0.1
		c0.3,0,0.7,0,1,0c0.3,0,0.5,0.1,0.7,0.3c0.1,0.2,0.3,0.5,0.3,0.7c0,0.4,0,0.8-0.1,1s0,0.4,0,0.5v0.2c0,0.7,0,1.6,0,2.7
		c0,1.1-0.1,4.7-0.1,5.8s0,2.2,0.1,3.2s0,1.6,0,1.8c0,0.6,0.3,1.2,0.8,1.6c0.5,0.3,1,0.5,1.6,0.5c0.5,0,1-0.1,1.4-0.2
		c0.5-0.2,0.9-0.5,1.2-0.9c0.2-0.2,0.3-0.5,0.4-0.7c0.1-0.3,0.2-0.5,0.3-0.8c0.1-0.4,0.1-0.7,0.1-1.1c0-0.4,0-0.9,0-1.5V19
		c0-0.4,0-0.7-0.1-1c-0.1-0.3-0.1-0.6-0.1-0.9c0-0.2,0-0.4,0.1-0.6c0.2-0.2,0.4-0.3,0.6-0.2h3.1c0.3,0,0.5,0.1,0.6,0.3
		c0.1,0.2,0.1,0.5,0.1,0.7c0,0.3,0,0.6-0.1,0.8c0,0.3-0.1,0.6-0.1,0.9v14.6C194.9,35.6,194.8,37.7,194.5,39.6z"/>
	<path class="cyt-t" d="M128.4,24c1.3,1.3,1.9,3,1.8,4.8c0,2.3-0.9,4.4-2.6,5.9c-1.9,1.7-4.4,2.5-7,2.4h-1.3c-0.8,0-1.5,0-2-0.1
		l-1.5-0.2c-0.4,0-0.9-0.1-1.3-0.2l-1.2-0.2c-0.8-0.2-1.3-0.5-1.4-1c-0.1-0.5-0.2-1-0.1-1.5c0-0.1,0-0.3,0-0.4c0-0.1,0-0.3,0.1-0.4
		c0.1-0.4,0.3-0.8,0.6-1.1c0.3-0.4,1-0.5,1.8-0.2c1,0.3,2,0.5,3,0.8c0.8,0.2,1.7,0.3,2.5,0.3h1.8c0.9-0.1,1.8-0.5,2.5-1.2
		c0.5-0.6,0.8-1.4,0.8-2.2c0-0.7-0.3-1.4-0.8-1.9c-0.5-0.7-1.8-1.3-4-2c-1-0.4-1.9-0.7-2.6-1c-0.7-0.3-1.3-0.6-1.9-0.9
		c-1-0.6-1.9-1.5-2.4-2.5c-0.7-1.1-1-2.4-1-3.7c0-3.1,1.7-5.9,4.5-7.3c1.3-0.5,2.6-0.8,4-0.8c0.9,0,1.6,0,2.2,0s1.1,0,1.5,0.1
		c0.4,0,0.8,0.1,1.1,0.2l1.2,0.3c0.8,0.2,1.3,0.5,1.4,1c0.1,0.5,0.2,1,0.1,1.4c0,0.1,0,0.3-0.1,0.4c0,0.1,0,0.3-0.1,0.4
		c0,0.2-0.1,0.4-0.2,0.6c-0.1,0.2-0.2,0.4-0.4,0.5c-0.2,0.2-0.5,0.3-0.8,0.3c-0.4,0-0.7,0-1.1-0.1c-1-0.3-1.9-0.5-2.6-0.8
		c-0.6-0.2-1.2-0.3-1.9-0.4c-0.5,0-1,0-1.6,0.1c-0.8,0.1-1.5,0.5-1.9,1.1c-0.5,0.6-0.7,1.3-0.7,2.1c-0.1,0.9,0.3,1.7,0.9,2.3
		c1.4,0.8,2.8,1.4,4.4,1.8C124.6,21.5,126.7,22.5,128.4,24z"/>
	<path class="cyt-t" d="M173.4,24c1.3,1.3,2,3,1.8,4.8c0,2.3-0.9,4.4-2.6,5.9c-1.9,1.7-4.4,2.5-7,2.4h-1.3c-0.8,0-1.5,0-2-0.1l-1.5-0.2
		c-0.4,0-0.9-0.1-1.3-0.2l-1.3-0.2c-0.8-0.2-1.3-0.5-1.4-1c-0.1-0.5-0.2-1-0.1-1.5c0-0.1,0-0.3,0-0.4c0-0.1,0-0.3,0.1-0.4
		c0.1-0.4,0.3-0.8,0.6-1.1c0.3-0.4,1-0.5,1.8-0.2c1,0.3,2,0.5,3,0.8c0.8,0.2,1.7,0.3,2.5,0.3h1.8c0.9-0.1,1.8-0.5,2.5-1.2
		c0.5-0.6,0.8-1.4,0.8-2.2c0-0.7-0.3-1.4-0.8-1.9c-0.5-0.7-1.8-1.3-4-2c-1-0.4-1.9-0.7-2.6-1s-1.3-0.6-1.9-0.9
		c-1-0.6-1.8-1.5-2.4-2.5c-0.7-1.1-1-2.4-1-3.7c0-3.1,1.7-5.9,4.5-7.3c1.3-0.5,2.6-0.8,4-0.8c0.9,0,1.6,0,2.2,0c0.6,0,1.1,0,1.5,0.1
		c0.4,0,0.8,0.1,1.1,0.2l1.2,0.3c0.8,0.2,1.3,0.5,1.4,1c0.1,0.5,0.2,1,0.1,1.4c0,0.1,0,0.3-0.1,0.4s0,0.3-0.1,0.4
		c0,0.2-0.1,0.4-0.2,0.6c-0.1,0.2-0.2,0.4-0.4,0.5c-0.2,0.2-0.5,0.3-0.8,0.3c-0.4,0-0.7,0-1.1-0.1c-1-0.3-1.9-0.5-2.6-0.8
		c-0.6-0.2-1.2-0.3-1.9-0.4c-0.5,0-1,0-1.6,0.1c-0.8,0.1-1.5,0.5-1.9,1.1c-0.5,0.6-0.7,1.3-0.7,2.1c-0.1,0.9,0.3,1.7,0.9,2.3
		c1.4,0.8,2.8,1.4,4.4,1.8C169.6,21.5,171.7,22.5,173.4,24z"/>
	<path class="cyt-t" d="M83.6,32.6c-1.9,0.3-3.9,0.4-5.9,0.4c-1.5,0-2.9-1-3.5-2.4c-0.9-2.2-1.3-4.5-1.2-6.8v-1.1
		c-0.1-2.3,0.3-4.6,1.2-6.8c0.6-1.4,2-2.3,3.5-2.4c2-0.1,3.9,0.1,5.9,0.4c0.4,0,0.8-0.2,0.9-0.6c0.2-0.8,0.3-1.6,0.3-2.5
		c-0.1-0.5-0.6-0.8-1.4-1c-0.5-0.1-0.9-0.2-1.2-0.2s-0.7-0.1-1.1-0.1s-0.9-0.1-1.4-0.1s-1.3,0-2.2,0c-3.4,0-5.9,1.2-7.5,3.6
		c-1.4,2.2-2.2,4.7-2.3,7.3c0,0.5-0.1,1-0.1,1.4s0,2.4,0,2.8s0,1,0.1,1.4c0.1,2.6,0.9,5.1,2.3,7.3c1.6,2.4,4.1,3.6,7.5,3.6
		c0.9,0,1.6,0,2.2,0c0.6,0,1.1,0,1.4-0.1s0.8-0.1,1.1-0.1s0.8-0.1,1.2-0.2c0.8-0.2,1.3-0.5,1.4-1c0-0.8,0-1.7-0.3-2.5
		C84.4,32.8,84,32.6,83.6,32.6z"/>
	<path class="cyt-t" d="M108.1,33.2c-0.1-0.8-0.2-1.5-0.2-2.3V20.2c0-1.1,0-2.3-0.2-3.4c-0.1-0.8-0.2-1.6-0.4-2.4
		c-0.4-1.4-1.4-2.6-2.6-3.4c-1.7-1-3.6-1.5-5.5-1.5c-2.5-0.1-5,0.3-7.4,0.9c-0.5,0.2-1,0.5-1.3,1c-0.2,0.8-0.2,1.6,0.2,2.4
		c0.1,0.2,0.2,0.4,0.4,0.5c0.2,0.2,0.5,0.3,0.7,0.3c0.4,0.1,0.7,0,1.1-0.1c1.6-0.5,3.3-0.9,5-1.1H98c0.9,0,1.9,0.1,2.8,0.2
		c0.7,0.1,1.2,0.7,1.5,1.7c0.1,0.6,0.2,1.1,0.2,1.7v2.5c0,0.3-0.1,0.6-0.3,0.7c-0.2,0.1-0.4,0.1-0.7,0.1c-0.3,0-0.7,0-1,0
		s-0.8,0-1.3,0c-0.7,0-1.3,0.1-2,0.1c-0.8,0.1-1.5,0.2-2.2,0.4c-0.7,0.2-1.5,0.4-2.2,0.7c-0.6,0.3-1.2,0.6-1.8,1.1
		c-2,1.7-3.1,4.2-3,6.8c-0.1,2.1,0.6,4.1,2,5.6c1.4,1.4,3.4,2.1,5.4,2c2.7,0.1,5.5-0.4,8.1-1.2c0.4,0.7,1.1,1,1.9,1h1.3
		c0.4,0,0.8-0.1,1.1-0.2c0.3-0.1,0.5-0.5,0.5-1v-0.8C108.2,34.3,108.2,33.7,108.1,33.2z M97.3,33.1c-2.3,0-3.5-1.4-3.5-4.1
		c0-2,0.7-3.4,2-4.2c1.7-0.8,3.6-1.2,5.5-1.2c0.6,0,1,0.1,1.1,0.3c0.1,0.2,0.2,0.5,0.2,0.8v1.3c0,0,0,3.1,0.2,5.6
		C101,32.4,99.2,32.9,97.3,33.1L97.3,33.1z"/>
	<path class="cyt-t" d="M153.1,33.2c-0.1-0.8-0.2-1.5-0.2-2.3V20.2c0-1.1,0-2.3-0.2-3.4c-0.1-0.8-0.2-1.6-0.4-2.4
		c-0.5-1.4-1.4-2.6-2.6-3.4c-1.6-1-3.5-1.5-5.5-1.5c-2.5-0.1-5,0.3-7.4,0.9c-0.5,0.2-1,0.5-1.3,1c-0.2,0.8-0.2,1.6,0.2,2.4
		c0.1,0.2,0.2,0.4,0.4,0.5c0.2,0.2,0.5,0.3,0.7,0.3c0.4,0.1,0.7,0,1.1-0.1c1.6-0.5,3.3-0.9,5-1.1h0.2c0.9,0,1.9,0.1,2.8,0.2
		c0.7,0.1,1.2,0.7,1.5,1.7c0.1,0.6,0.2,1.1,0.2,1.7v2.5c0,0.3-0.1,0.6-0.4,0.7c-0.2,0.1-0.4,0.1-0.7,0.1c-0.3,0-0.6,0-1,0
		s-0.8,0-1.3,0c-0.7,0-1.3,0.1-2,0.1c-0.8,0.1-1.5,0.2-2.2,0.4c-0.7,0.2-1.5,0.4-2.1,0.7c-0.6,0.3-1.2,0.6-1.8,1.1
		c-2,1.7-3.1,4.2-3,6.8c-0.1,2.1,0.6,4.1,2,5.6c1.4,1.4,3.4,2.1,5.4,2c2.7,0.1,5.5-0.4,8.1-1.2c0.4,0.7,1.1,1,1.9,1h1.3
		c0.4,0,0.8-0.1,1.1-0.2c0.3-0.1,0.5-0.5,0.5-1v-0.8C153.2,34.3,153.2,33.7,153.1,33.2z M142.3,33.1c-2.3,0-3.5-1.4-3.5-4.1
		c0-2,0.7-3.4,2-4.2c1.7-0.8,3.6-1.2,5.5-1.2c0.6,0,1,0.1,1.1,0.3c0.1,0.2,0.2,0.5,0.2,0.8v1.3c0,0,0,3.1,0.2,5.6
		C146.1,32.4,144.2,32.9,142.3,33.1L142.3,33.1z"/>
	<polygon class="cyt-c" points="51.5,26 45.4,19.9 45.4,14.1 42.3,14.1 42.3,16.7 38.2,12.5 24.9,26 28.4,26 28.4,34.1 34.8,34.1 34.8,26 41.5,26 41.5,34.1 47.9,34.1 47.9,26 "/>
	<path class="cyt-c" d="M54.2,6.7c-9-8.8-23.4-8.8-32.2,0.2c-7.7,7.8-8.8,19.9-2.5,29L18,37.3c0.3,0.4,0.7,0.9,1,1.3L0.7,56.9c-1,1-1,2.5,0,3.5l0.2,0.2c1,1,2.5,1,3.5,0l18.4-18.4c0.4,0.3,0.9,0.7,1.3,1l1.5-1.5c10.6,6.9,24.7,3.9,31.5-6.7 C63,26.1,61.8,14.3,54.2,6.7z M51.4,36.1c-7.3,7.3-19.2,7.3-26.6,0s-7.3-19.2,0-26.6s19.2-7.3,26.6,0c3.5,3.5,5.5,8.3,5.5,13.3 C57,27.8,55,32.5,51.4,36.1z"/>
	<path class="cyt-c" d="M38.2,7.2v2.4c-0.6,0-1.2,0.1-1.8,0.2c-7.2,1.1-12.8,6.7-13.8,13.9l0,0C22.5,14.9,29.4,7.6,38.2,7.2z"/>
	<path class="cyt-t" d="M433.6,34.1c0-1.7,1.4-3.1,3.1-3.1c1.7,0,3.1,1.4,3.1,3.1s-1.4,3.1-3.1,3.1l0,0C435,37.2,433.6,35.8,433.6,34.1z M439.3,34.1c0-1.4-1.2-2.6-2.6-2.6c-1.4,0-2.6,1.2-2.6,2.6s1.2,2.6,2.6,2.6l0,0C438.1,36.7,439.3,35.6,439.3,34.1C439.3,34.1,439.3,34.1,439.3,34.1L439.3,34.1z M436.7,32.2c1.1,0,1.3,0.6,1.3,1.1c0,0.5-0.4,0.9-0.9,1l0.8,1.8h-0.5l-0.8-1.7h-0.8v1.7h-0.5v-3.8H436.7z M435.9,34h0.6c0.8,0,0.9-0.3,0.9-0.6s-0.3-0.7-0.8-0.7h-0.7L435.9,34z"/>
	<path class="cyt-t" d="M370.1,33.3v3.1c0,0.7-0.6,1.1-2,1.1H367c-1.4,0-2-0.4-2-1.1v-3.1c0-0.7,0.6-1.1,2-1.1h1.1C369.5,32.2,370.1,32.6,370.1,33.3z"/>
	<path class="cyt-t" d="M385.2,21.8c0,0.6-1.2,2.6-1.8,2.6c-0.2,0-0.4-0.1-0.6-0.2c-0.9-0.5-1.9-0.7-2.9-0.7c-2.7,0-3.8,1.7-3.8,5.1s1,5.2,3.6,5.2c1.1,0,2.3-0.3,3.3-0.8c0.2-0.1,0.4-0.2,0.6-0.2c0.7,0,1.8,1.9,1.8,2.6c0,1.9-4.8,2.4-5.9,2.4c-5.8,0-8.5-2.9-8.5-9s2.6-9.2,8.7-9.2C382,19.5,385.2,20.3,385.2,21.8z"/>
	<path class="cyt-t" d="M402.4,28.6c0,5.9-2.8,9.1-8.2,9.1s-8.2-3.2-8.2-9.1s2.8-9.1,8.2-9.1S402.4,22.7,402.4,28.6z M391.1,28.6c0,3.4,1,5.2,3.1,5.2s3.1-1.8,3.1-5.2s-1-5.1-3.1-5.1S391.1,25.2,391.1,28.6z"/>
	<path class="cyt-t" d="M428.9,25v11.4c0,0.7-0.6,1.1-2,1.1h-1c-1.4,0-2-0.4-2-1.1V25.7c0-1.3-0.5-2.1-2-2.1c-1.2,0.1-2.2,0.8-2.7,1.9v10.9c0,0.7-0.6,1.1-2,1.1h-1c-1.4,0-2-0.4-2-1.1V25.7c0-1.3-0.5-2.1-2-2.1c-1.2,0.1-2.2,0.9-2.7,2v10.8c0,0.7-0.6,1.1-2,1.1h-1c-1.4,0-2-0.4-2-1.1V25.7c0-1.6-0.1-3.2-0.4-4.8c0-0.8,2.9-1.1,3.8-1.1c1.1,0,1.1,1.3,1.4,2.2c1.2-1.6,3-2.5,5-2.6c2.3,0,3.8,0.8,4.5,2.6c1.3-1.6,3.2-2.5,5.2-2.6C427.2,19.5,428.9,21.2,428.9,25z"/>
</svg>
