<svg xmlns="http://www.w3.org/2000/svg" width="325.716" height="384.942" viewBox="0 0 305.359 360.883">  
	<defs>
		<style>
			.dgeti { fill: var(--body-color-high, #00266d); stroke: none }
		</style>
	</defs>
	<path class="dgeti" d="M317.654 509.833c-7.338-.756-12.357-2.545-17.061-6.081-3.537-2.658-6.29-5.999-8.315-10.087-2.812-5.679-4.02-11.39-4.013-18.99.005-5.615.673-10.608 2.216-16.539 1.029-3.951 1.815-5.796 3.655-8.57 5.888-8.882 17.68-12.363 38.098-11.249 5.083.277 15.287 1.207 15.64 1.425.1.063-.43 3.085-1.296 7.373l-1.467 7.267-1.533-.117c-.844-.064-3.073-.25-4.954-.413-4.478-.387-15.432-.437-17.91-.082-7.695 1.103-10.644 4.335-12.517 13.72-.945 4.734-.786 10.627.397 14.745 1.043 3.63 2.263 5.799 4.56 8.109 1.423 1.43 1.967 1.844 3.24 2.46 2.757 1.334 6.815 1.928 11.762 1.72l2.458-.103v-21.726h19.26v34.175l-.945.188c-4.736.945-14.918 2.33-19.926 2.712-2.234.17-9.89.213-11.349.063zm47.7-35.719v-35.121l23.749.07c13.062.038 23.787.108 23.834.156.09.089-1.455 15.21-1.594 15.611-.061.177-2.94.225-13.583.225h-13.506v9.72h12.66c6.963 0 12.698.038 12.744.084.046.046-.18 3.428-.503 7.515s-.59 7.613-.594 7.836l-.007.405h-24.3v12.78h28.98l.011.855c.006.47.189 4 .405 7.845.217 3.845.36 7.024.32 7.065-.042.041-10.997.075-24.346.075h-24.27v-35.121zm-149.22-.009v-34.98l16.156.008c16.327.008 18.168.066 23.084.723 11.42 1.525 17.714 6.06 19.88 14.322 1.191 4.55 1.906 10.226 2.028 16.114.142 6.863-.373 10.95-2.022 16.046-2.176 6.727-6.818 13.593-11.199 16.564-4.367 2.963-10.048 4.747-18.23 5.727-1.963.235-5.034.306-16.062.373l-13.635.082v-34.98zm29.7 18.493c1.456-.355 2.338-.725 3.581-1.503 5.405-3.384 8.445-11.784 7.76-21.438-.236-3.337-.607-5.647-1.186-7.384-1.197-3.592-3.833-6.256-6.94-7.01-1.501-.364-4.845-.564-9.47-.566l-4.545-.002v38.142l1.035.076c2.342.173 8.59-.029 9.765-.315zm197.28-10.183v-26.64h-10.71c-5.89 0-10.71-.046-10.71-.104 0-.215 2.169-15.487 2.267-15.96l.102-.496h29.686c28.598 0 29.685.013 29.685.328 0 .18-.486 3.833-1.08 8.118-.594 4.284-1.08 7.862-1.08 7.952 0 .095-3.969.162-9.54.162h-9.54v53.28h-19.08v-26.64zm48.96-8.277v-34.917l11.265-.048c6.196-.026 11.3-.014 11.34.027.042.042.075 15.776.075 34.965v34.89h-22.68v-34.917zm-108.457-54.495-1.087-.063-1.03-5.077c-.566-2.793-1.029-5.138-1.028-5.213.001-.074 2.766-.135 6.143-.135h6.141l-.077.405c-.043.223-.516 2.613-1.052 5.31l-.974 4.905-2.975-.034c-1.635-.02-3.463-.063-4.06-.098zm-15.987-2.035c-1.966-.38-3.599-.716-3.629-.747-.03-.03-.114-2.47-.187-5.42l-.132-5.365.431.105c.237.058 2.927.581 5.978 1.162 3.05.58 5.578 1.088 5.617 1.127.04.039-.794 2.274-1.852 4.968-1.655 4.217-1.973 4.895-2.287 4.88-.2-.01-1.973-.33-3.939-.71zm-17.846-5.259a293.94 293.94 0 0 1-3.648-1.486c-.106-.075 1.713-10.615 1.827-10.589.504.117 11.271 4.496 11.271 4.584 0 .186-5.582 8.885-5.72 8.915-.072.016-1.75-.625-3.73-1.424zm-15.487-7.664-3.37-2.144-1.204-.765.55-1.485c.302-.817 1.12-3.065 1.817-4.996.697-1.93 1.29-3.535 1.318-3.566.1-.115 10.256 6.384 10.256 6.563 0 .176-6.878 7.68-7.097 7.743-.057.017-1.078-.59-2.27-1.35zm48.787-.335c-6.57-.349-14.532-1.944-21.87-4.382-22.817-7.582-42.701-24.842-53.18-46.163-.924-1.88-1.787-3.723-1.916-4.095l-.236-.675h-57.888v-23.76h51.88l-.105-.585c-1.04-5.763-1.319-17.405-.568-23.805 2.232-19.044 9.463-35.447 22.043-50.007 2.036-2.357 7.265-7.461 9.916-9.681a92.11 92.11 0 0 1 39.083-19.313c6.964-1.558 12.07-2.092 21.465-2.243l7.184-.116-1.4-2.07c-4.95-7.326-10.576-13.138-17.198-17.768-8.578-5.998-18.989-9.971-30.53-11.654-6.071-.885-5.454-.869-35.254-.944-24.918-.062-28.293-.038-30.018.215-6.86 1.006-10.533 3.736-12.36 9.189-1.134 3.384-1.144 3.527-1.226 16.522-.05 7.94-.01 12.275.12 13.14.402 2.677 1.387 4.568 3.033 5.823 1.586 1.21 1.609 1.212 12.111 1.275l9.466.057-1.224 5.438c-.673 2.99-1.859 8.232-2.634 11.647l-1.41 6.21-38.737.046c-28.325.033-38.737-.008-38.737-.155 0-.174 1.642-7.243 3.236-13.93a971.81 971.81 0 0 0 1.262-5.4c.411-1.783.786-3.378.834-3.545.08-.282.933-.31 11.012-.373 9.799-.06 11.038-.1 12.006-.385 3.328-.981 5.208-2.989 6.252-6.678l.408-1.44.04-27.127c.034-23.532.075-27.284.312-28.307.6-2.582 1.773-3.958 3.964-4.648l1.264-.398h47.88c52.79 0 49.02-.073 55.89 1.096 11.854 2.017 24.318 7.039 34.73 13.991 12.087 8.072 22.023 18.581 28.937 30.608 1.437 2.5 3.23 6.029 4.195 8.26l.603 1.395H483.614v23.76h-25.92c-20.617 0-25.92.046-25.918.225.002.124.16 1.494.354 3.045 1.401 11.229.66 23.208-2.09 33.81-3.81 14.682-10.93 27.737-21.255 38.976-13.975 15.21-33.115 25.371-53.7 28.506-4.797.73-7.846.94-15.156 1.045-3.935.056-7.155.158-7.155.227s.66 1.09 1.465 2.271c11.648 17.063 27.978 26.739 49.627 29.404 5.764.71 8.247.757 36.208.691l26.91-.063 1.768-.405c7.77-1.777 11.056-6.01 11.832-15.242.125-1.486.172-6.181.128-12.87-.066-10.074-.086-10.59-.452-11.91-.211-.76-.543-1.69-.739-2.07-.917-1.78-2.722-3.086-4.785-3.464-.676-.124-4.334-.196-9.964-.196h-8.897l.1-.405c.054-.222.475-2.065.934-4.095.46-2.03 1.387-6.12 2.062-9.09l1.725-7.605.499-2.205h77.526l-.092.405c-.284 1.239-1.56 6.696-2.727 11.655-.734 3.119-1.63 6.941-1.99 8.494l-.654 2.824-10.907.066c-9.67.059-11.028.102-11.972.377-3.29.959-5.279 3.055-6.349 6.69-.296 1.004-.325 3.003-.42 28.71-.078 20.862-.157 27.819-.322 28.402-.8 2.828-2.383 4.245-5.254 4.707-.795.127-16.004.177-47.52.155-25.492-.018-46.836-.059-47.43-.09zm-43.377-79.078c15.797-1.007 27.328-4.497 38.752-11.728 2.567-1.625 6.006-4.147 7.29-5.346 1.923-1.796 6.553-7.228 9.07-10.643 10.427-14.147 15.222-28.584 14.448-43.507-.16-3.102-.64-7.13-1.132-9.503l-.224-1.08-1.883-.112c-3.059-.184-10.827-.168-14.124.028-15.226.907-27.295 4.503-38.34 11.424-4.338 2.719-7.226 4.966-9.39 7.309-10.24 11.083-17.194 23.065-20.105 34.64-1.382 5.495-1.823 9.201-1.806 15.201.014 4.763.226 7.18.992 11.289l.376 2.018 1.647.06c4.03.144 11.8.118 14.43-.05zm152.23 51.438.047-27.765.57-1.202c.966-2.04 2.485-3.424 4.524-4.126.918-.316 1.611-.342 9.244-.342h8.252v61.2H491.89l.048-27.765zm-174.069 15.84c-1.589-1.41-2.894-2.642-2.901-2.737-.014-.193 5.006-9.063 5.195-9.18.192-.118 9.229 8.04 9.067 8.185-.624.563-8.2 6.297-8.319 6.297-.084 0-1.453-1.154-3.042-2.565zm-12.917-13.842c-1.28-1.6-2.385-3.005-2.456-3.124-.078-.131 1.177-1.825 3.214-4.337 1.84-2.267 3.363-4.142 3.386-4.168.046-.05 7.534 9.292 7.624 9.513.03.073-.617.495-1.44.936-5.585 2.999-7.67 4.087-7.824 4.087-.097 0-1.224-1.308-2.504-2.907zm-9.762-14.958c-2.493-4.741-2.45-4.64-2.075-5.004.685-.663 7.716-6.469 7.835-6.47.069 0 .75 1.194 1.513 2.654l2.8 5.347c.777 1.48 1.351 2.745 1.277 2.811-.074.066-1.147.424-2.385.795-1.237.371-3.424 1.03-4.86 1.463-1.435.433-2.664.788-2.73.789-.066 0-.685-1.073-1.375-2.385zm57.187-5.042c-1.624-4.173-1.865-4.921-1.62-5.03.159-.069 2.718-.5 5.688-.958 2.97-.458 5.587-.877 5.816-.931l.416-.098-.106 3.397a357.13 357.13 0 0 1-.206 5.39l-.101 1.991-3.63.575c-1.996.315-3.79.572-3.989.57-.304-.002-.658-.768-2.268-4.906zm17.573-3.65c-1.463-2.529-2.63-4.62-2.592-4.646.209-.15 11.55-3.725 11.613-3.66.09.09 1.324 9.539 1.324 10.134 0 .358-.364.515-3.674 1.583-2.02.653-3.75 1.186-3.843 1.186-.093 0-1.366-2.068-2.828-4.597zm18.51-4.807-3.538-3.98c-.78-.878-1.349-1.665-1.265-1.75.084-.084 2.5-1.453 5.37-3.043l5.215-2.89 1.667 4.996c.916 2.748 1.666 5.042 1.666 5.097 0 .083-5.16 3.016-6.603 3.754-.363.185-.562.012-2.513-2.184zm17.178-8.74a813.41 813.41 0 0 0-6.952-5.36c-.204-.154.663-.97 4.284-4.027 2.497-2.109 4.656-3.844 4.8-3.856.278-.024 5.309 8.632 5.236 9.011-.022.118-1.394 1.352-3.048 2.742l-3.008 2.527-1.312-1.037zm10.624-14.274c-2.605-1.297-4.767-2.387-4.805-2.423-.037-.035.77-1.1 1.793-2.367 1.024-1.266 2.707-3.355 3.741-4.642a343.576 343.576 0 0 1 2.014-2.492c.117-.133 7.01 7.715 7.01 7.98 0 .092-3.368 4.35-4.533 5.73l-.483.572-4.737-2.358zm-128.307-9.34-5.13-.833-.115-1.07c-.064-.587-.124-2.417-.135-4.065l-.02-2.997 5.175-1.262c2.847-.694 5.188-1.249 5.204-1.233.079.08.318 12.22.241 12.254-.05.022-2.398-.335-5.22-.793zm139.41-5.298c-2.673-.914-4.846-1.736-4.83-1.827.017-.092.734-1.341 1.594-2.777.859-1.435 2.222-3.72 3.03-5.078.806-1.358 1.522-2.472 1.59-2.475.188-.01 7.886 6.824 7.886 7 0 .338-3.998 6.852-4.196 6.835-.118-.01-2.4-.765-5.074-1.678zm-135.81-11.8a380.956 380.956 0 0 0-4.68-1.71c-1.831-.658-3.404-1.27-3.494-1.358-.098-.097.08-1.704.448-4.025l.611-3.862.723-.096c1.336-.177 9.813-.532 9.93-.415.176.177-1.803 12.001-2.008 11.99-.099-.006-.787-.241-1.53-.524zm144.09-4.191c-2.574-.298-4.7-.558-4.726-.578-.095-.076 3.831-11.6 3.955-11.607.273-.016 9.044 5.01 9.115 5.223.041.124-.483 1.873-1.164 3.887l-1.24 3.66-.63-.022c-.346-.012-2.736-.266-5.31-.563zm-143.64-14.918c-2.475-1.393-4.53-2.561-4.567-2.596-.098-.092 2.524-7.638 2.656-7.643.061-.003 2.44.257 5.286.576 3.579.401 5.175.647 5.175.796 0 .119-.85 2.708-1.89 5.755-1.04 3.047-1.89 5.566-1.89 5.599 0 .171-.643-.164-4.77-2.487zm144.358-2.72c.052-.222.5-2.91.997-5.973.496-3.063.933-5.6.97-5.637.08-.079 9.667 3.368 9.875 3.551.146.128-1.017 7.692-1.213 7.888-.12.12-7.224.546-9.415.565-1.268.011-1.306-.001-1.214-.394zm-137.637-14.223c-3.494-3.096-3.88-3.492-3.711-3.818.155-.3 3.71-6.341 3.852-6.547.097-.139 10.148 3.311 10.14 3.48-.013.285-6.017 10.232-6.21 10.29-.095.028-1.926-1.504-4.07-3.405zm139.822-5.025a720.415 720.415 0 0 1-.213-6.132l-.108-3.555.51.005c.61.006 9.924 1.519 10.027 1.629.04.042.13 1.868.202 4.059l.13 3.983-5.015 1.217c-2.759.669-5.108 1.251-5.221 1.294-.146.054-.237-.68-.312-2.5zm-129.578-10.22c-1.856-2.17-3.375-4.028-3.375-4.128 0-.1 1.1-1.557 2.444-3.237l2.445-3.055.66.302c.364.166 2.506 1.232 4.76 2.367 2.896 1.46 4.07 2.138 4.004 2.312-.113.294-7.342 9.366-7.473 9.378-.05.004-1.608-1.768-3.465-3.939zm14.339-9.403c-.258-.502-3.067-5.495-4.5-8l-.427-.747 3.094-2.614 3.094-2.613 1.897 1.459c5.373 4.128 6.503 5.036 6.453 5.18-.046.13-2.38 2.122-8.46 7.22l-.846.71-.305-.595zm13.966-10.1c0-.038-.729-2.222-1.62-4.854-.89-2.632-1.62-4.903-1.62-5.046 0-.151 1.445-1.066 3.45-2.182 2.827-1.575 3.49-1.88 3.68-1.687 1.28 1.3 6.86 7.822 6.765 7.909-.105.096-9.003 5.057-10.25 5.715-.222.118-.405.183-.405.145zm-120.42-35.217v-30.607h22.86v26.967c0 18.74-.06 27.293-.197 28.035-.447 2.43-1.885 4.344-4.077 5.428l-1.376.68-8.605.052-8.605.051v-30.606zm135.03 22.357c-.33-2.647-.64-5.02-.69-5.273-.086-.45-.026-.478 3.661-1.665 2.062-.663 3.83-1.202 3.93-1.197.16.008 5.275 8.656 5.363 9.07.031.146-10.995 3.868-11.484 3.877-.1.002-.443-2.112-.78-4.812zm17.159-5.464c.071-2.91.181-5.34.245-5.403.233-.226 7.768-1.308 7.92-1.137.322.362 3.824 9.674 3.684 9.797-.081.071-2.618.512-5.638.98-3.02.467-5.681.895-5.915.95l-.425.102.129-5.29zm58.617-.63c-1.52-2.928-2.695-5.387-2.61-5.465.15-.14 9.612-3.066 9.906-3.064.081 0 .43.547.776 1.215.345.668 1.184 2.263 1.866 3.544 1.199 2.255 1.227 2.34.894 2.61-.19.154-2.012 1.677-4.05 3.385-2.037 1.708-3.775 3.103-3.861 3.101-.086-.002-1.4-2.399-2.921-5.326zm-8.59-13.605a1322.756 1322.756 0 0 0-3.797-4.754l-.6-.74 4.698-2.48 4.697-2.479.42.43c.735.752 4.58 5.641 4.583 5.828.004.215-6.39 8.071-6.636 8.153-.093.031-1.608-1.75-3.365-3.958zm-12.347-13.343c-2.443-2.195-4.448-4.049-4.455-4.118-.02-.192 8.26-6.476 8.449-6.41.161.055 5.937 5.185 5.937 5.273 0 .176-5.27 9.27-5.367 9.26-.068-.007-2.122-1.809-4.564-4.005zm-12.034-9.263a914.807 914.807 0 0 0-5.164-3.26l-1.839-1.147.67-.755c.367-.416 2-2.182 3.627-3.926l2.958-3.171.654.395c3.209 1.94 6.12 3.847 6.12 4.01 0 .11-.534 1.649-1.186 3.422a579.932 579.932 0 0 0-1.726 4.753c-.298.842-.598 1.59-.666 1.662-.068.072-1.62-.82-3.448-1.983zm-16.82-8.698c-2.969-1.19-5.435-2.201-5.481-2.247-.047-.047.068-.346.254-.664.39-.669 3.798-6.065 4.71-7.46l.615-.94.849.337c2.891 1.145 6.442 2.576 6.535 2.633.06.037-.24 2.156-.666 4.709-1.02 6.116-.956 5.812-1.204 5.803-.12-.004-2.645-.981-5.613-2.171zm-10.715-3.713c-3.657-.677-11.198-2.187-11.267-2.255-.087-.087 3.381-9.145 3.696-9.654.126-.204.675-.147 3.187.332 5.088.97 4.72.855 4.82 1.508.15 1.005.284 10.202.146 10.177l-.582-.108zm-28.26-3.252c0-.179.446-2.544.99-5.256.545-2.712.99-4.969.99-5.014 0-.108 7.948.122 8.06.233.083.084.22.712 1.408 6.491.347 1.683.675 3.242.73 3.465l.101.405h-6.14c-5.793 0-6.139-.018-6.139-.324z" transform="translate(-213.102 -149.037)" />
	<path class="dgeti" d="M142.101 248.577c-20.867-9.111-37.31-24.181-46.725-42.826l-2.679-5.304H35.153V176.204h25.506l25.506-.001.03-14.9c.025-12.318.42-16.261 2.28-22.766 7.218-25.23 23.114-45.061 45.85-57.2 11.21-5.984 22.584-9.155 37.198-10.368 6.945-.577 12.805-1.216 13.022-1.42.218-.203-1.556-2.9-3.942-5.992-8.342-10.813-20.782-18.725-36.008-22.901-7.34-2.014-10.406-2.18-41.762-2.256-37.483-.09-37.813-.04-42.136 6.38-2.166 3.218-2.31 4.437-2.31 19.446 0 20.461-.29 20.054 14.21 20.054 9.2 0 10.122.168 9.674 1.768-.273.972-1.477 6.2-2.677 11.616l-2.18 9.85H-.423l.614-2.445c.337-1.344 1.564-6.572 2.725-11.617L5.03 84.28h10.974c6.035 0 12.042-.487 13.348-1.082 4.933-2.248 5.139-3.532 5.613-35.087.366-24.411.708-29.866 1.945-31.103 1.297-1.297 8.835-1.46 55.683-1.207l54.183.294 9.962 3.448c22.778 7.884 41.985 23.873 51.915 43.218l3.782 7.368 29.042.004 29.042.005V94.38H219.39l.058 12.88c.032 7.12-.557 15.928-1.319 19.698l-1.377 6.818h-13.017c-7.16 0-13.018-.129-13.018-.287 0-.158.97-3 2.154-6.314 2.333-6.527 3.687-22.713 2.45-29.304l-.707-3.772-13.313.57c-25.122 1.075-41.764 8.233-54.35 23.38-6.576 7.914-14.13 22.333-16.18 30.88-1.418 5.92-1.662 24.158-.351 26.28 1.248 2.02 25.472.645 34.575-1.963 4.02-1.152 7.544-2.094 7.829-2.094.284 0 .518 5.66.518 12.58v12.579l-3.789 1.098c-2.083.605-9.562 1.604-16.62 2.222l-12.832 1.122 3.236 4.525c5.018 7.016 14.198 14.762 22.472 18.962l7.533 3.824v11.95c0 14.038.474 13.676-11.24 8.562z" />
	<path class="dgeti" d="M188.696 254.913c-16.39-.323-31.104-1.022-32.7-1.553l-2.899-.965.179-12.057c.098-6.63.266-12.136.374-12.232.107-.097 3.605.757 7.772 1.897 6.898 1.887 10.604 2.081 41.416 2.168 30.053.086 34.19-.096 36.973-1.62 6.212-3.403 6.933-5.693 7.31-23.243.34-15.851.337-15.87-2.228-18.435-2.391-2.391-3.23-2.568-12.21-2.568-7.055 0-9.634-.338-9.613-1.262.043-1.908 4.678-20.954 5.235-21.51.266-.267 17.749-.366 38.85-.22l38.365.264-2.601 11.364-2.601 11.364h-10.794c-19.548 0-19.006-1.032-19.006 36.204 0 25.397-.177 28.435-1.768 30.343-1.693 2.032-2.786 2.132-26.011 2.385-13.334.145-37.653 0-54.043-.324zM153.345 183.596l.004-12.948 7.656-3.93c4.39-2.255 9.84-6.133 12.778-9.092 5.08-5.12 14.232-18.092 15.433-21.878.578-1.821 1.623-1.97 13.8-1.97h13.173l-.663 2.777c-1.1 4.613-7.212 16.907-11.773 23.68-10.595 15.732-30.198 30.239-48.14 35.626l-2.273.682.004-12.947z" />
	<path class="dgeti" d="M279.305 255.365c-.388-.388-.706-13.07-.706-28.18 0-34.311-.633-32.798 13.726-32.798h9.538l-.268 30.557-.267 30.557-10.659.284c-5.862.157-10.976-.032-11.364-.42zM278.6 325.201v-34.85h23.233v69.7h-23.234v-34.85zM230.112 333.283v-26.77h-21.446l.696-5.808c.383-3.194.94-6.831 1.237-8.081l.54-2.273h59.54l-.532 2.778c-.293 1.528-.826 5.164-1.185 8.081l-.654 5.304h-19.003v53.538H230.112v-26.77zM152.33 325.201v-34.85h47.6l-.709 7.324c-.39 4.028-1.213 7.657-1.829 8.065-.616.409-6.688.75-13.494.758l-12.375.016V315.605h25.529l-.643 4.687c-.353 2.577-.642 6.214-.642 8.08v3.395h-24.244v12.122h14.025c16.08 0 15.23-.576 15.256 10.354l.014 5.809H152.33v-34.85zM97.583 359.719c-9.934-2.823-17.594-10.37-20.519-20.22-1.964-6.613-1.934-21.82.059-29.49 3.972-15.29 13.252-20.641 35.811-20.647 16.18-.004 22.397.822 21.81 2.9-.251.894-.953 4.132-1.56 7.197l-1.102 5.573-14.04-.017c-12.649-.015-14.322.192-16.897 2.086-4.119 3.03-6.477 10.41-6.106 19.11.557 13.043 5.42 18.678 16.128 18.685l5.808.004v-21.214H137.178v34.13l-6.313 1.163c-10.244 1.888-27.863 2.28-33.282.74zM2.828 325.23v-35.05l21.97.364c18.319.304 22.643.663 26.012 2.16 9.848 4.375 13.034 11.576 13.041 29.467.005 14.059-2.244 20.506-9.89 28.346-7.267 7.453-11.671 8.665-33.708 9.279l-17.425.485v-35.05zm33.042 16.675c6.358-3.877 9.603-15.01 7.428-25.488-1.672-8.053-4.036-9.901-13.588-10.624l-7.69-.581v38.678l5.304-.005c3.481-.003 6.417-.683 8.546-1.98zM3.838 45.356V14.513l11.364.286 11.364.286.313 20.203c.172 11.111.014 23.997-.351 28.635-.91 11.54-1.724 12.276-13.599 12.276H3.838V45.356z" />
</svg>