<svg xmlns="http://www.w3.org/2000/svg" viewBox="0 0 383.12 78.12">
<title>ITESO logo</title>
<path fill="#00457C" d="M38.55,21.25a105.17,105.17,0,0,0-9.42,8.39c-1.88,1.87-3.65,3.75-5.28,5.63-7.33-9.81-10.61-18.6-7.53-21.89S28.52,13.45,38.55,21.25ZM62,13.56c-3.32-3.13-12.28.26-22.21,7.74a107.83,107.83,0,0,1,8.68,7.83q3.15,3.15,5.88,6.37C62,25.59,65.38,16.7,62,13.56ZM39,57.36C28,65.85,17.74,70.05,12.68,67.77l-.2-.09A39,39,0,0,0,65.34,68l-.11,0C60.19,70.3,49.91,66,39,57.36ZM20.76,39C12.24,28,8,17.64,10.41,12.61a1.11,1.11,0,0,1,.07-.16,39,39,0,0,0-.27,52.94l-.09-.2C7.86,60.14,12.13,49.89,20.76,39ZM67.68,65.61a39,39,0,0,0,.24-52.85s0,0,0,.05h0c2.4,5-1.87,15.34-10.59,26.35,8.54,11,12.74,21.37,10.35,26.38ZM49,48.5c-2.1,2.1-4.23,4.07-6.36,5.88C52.55,62,61.43,65.39,64.58,62s-.26-12.28-7.74-22.22A104.7,104.7,0,0,1,49,48.5ZM35.26,54.3c-1.88-1.65-3.76-3.42-5.63-5.28a107.92,107.92,0,0,1-8.38-9.43c-7.81,10-11.26,19-7.87,22.22S25.46,61.62,35.26,54.3Zm3.9-33.53C50.19,12.23,60.55,8,65.57,10.42l.08,0a39,39,0,0,0-52.95-.22l.17-.08C17.89,7.82,28.19,12.1,39.16,20.77Zm-6.25,25a99.22,99.22,0,0,1-8.61-9.85C26,34,27.75,32,29.67,30.14a101.51,101.51,0,0,1,9.54-8.37A101.94,101.94,0,0,1,48,29.67q3.18,3.22,5.88,6.45a102,102,0,0,1-8.15,9.11c-2.25,2.22-4.52,4.28-6.76,6.15C37,49.65,34.92,47.77,32.91,45.73ZM29.28,37l8.63-.27a.46.46,0,0,1,.53.5L38.24,46H40l-.21-8.73a.48.48,0,0,1,.53-.5L49,37V35.26l-8.64.26c-.36-.05-.5-.21-.53-.48L40,26.3H38.24l.2,8.74a.49.49,0,0,1-.53.48l-8.63-.26Z"/>
<path fill="var(--body-color-high, #00457C)" d="M197.57,34.22s-.16-.48.24-.63a3.27,3.27,0,0,0,1.64-1.18,2.86,2.86,0,0,0,.67-1.77q0-.75-.48-.75a1.13,1.13,0,0,0-.29.06A1,1,0,0,1,199,30a1.28,1.28,0,0,1-.86-.31,1,1,0,0,1-.34-.79,1.17,1.17,0,0,1,.33-.86,1.15,1.15,0,0,1,.86-.35,1.53,1.53,0,0,1,1.31.75,3,3,0,0,1,.51,1.75,4,4,0,0,1-.88,2.54,4.39,4.39,0,0,1-2.39,1.48M170.94,8.86Zm1.19,12.6A5.88,5.88,0,0,0,170,19.37a45.59,45.59,0,0,0-4.34-2A16.66,16.66,0,0,1,161.31,15a3.17,3.17,0,0,1-1.22-2.52,3.25,3.25,0,0,1,1-2.27,4,4,0,0,1,3-1,5.65,5.65,0,0,1,3.81,1.41,6.73,6.73,0,0,1,2.05,3.07h0a1.1,1.1,0,0,0,1,.8h0V10.6h0c-.44-.26-.87-.49-1.28-.69a13,13,0,0,0-5.1-1.42h0l-.68,0A6.27,6.27,0,0,0,159.54,10a4.91,4.91,0,0,0-1.71,3.82,5.44,5.44,0,0,0,.79,2.84,6.11,6.11,0,0,0,2.21,2.16A33.16,33.16,0,0,0,165,20.76a14.67,14.67,0,0,1,4.3,2.31,3.57,3.57,0,0,1,1.18,2.71,3.94,3.94,0,0,1-1.34,2.89A5.22,5.22,0,0,1,165.38,30a6.08,6.08,0,0,1-4.31-1.59,3,3,0,0,1-.25-.25,6.26,6.26,0,0,1-.59-.7l-.16-.23a10.25,10.25,0,0,1-1.28-2.85c-.3-1-.93-1.12-1.09-1.12h0l0,5,0,0a10.38,10.38,0,0,0,1.15.76,14.1,14.1,0,0,0,6.52,1.7h.36A7.76,7.76,0,0,0,171,29a5.66,5.66,0,0,0,2-4.48,5.68,5.68,0,0,0-.82-3.07m7.51,1c-1.9-5.21-1.2-10.72,3-12.54s8.4.93,10.24,6.64c1.71,5.27,1.41,10.37-2.8,12.18s-8.56-1-10.45-6.28m17.76-3.17a10.67,10.67,0,0,0-10.94-11c-6.79,0-11.21,5-11.21,11.37,0,6,4,10.71,10.84,10.71s11.31-4.19,11.31-11.09m-42.56,4.23c-.14,0-.68.09-1,1a.94.94,0,0,1,0,.09c0,.12-.07.22-.11.33a9,9,0,0,1-.61,1.43,5.47,5.47,0,0,1-.31.54l-.05.06c-.18.27-.41.56-.67.88A4.28,4.28,0,0,1,150.58,29a4.5,4.5,0,0,1-1.71.31l-1.61,0c-1.43-.16-1.92-.29-2.53-1-.46-.53-.63-1.43-.63-3.92V19.65h6.31s-.31-1-1.09-1c-.34,0-5-.3-5.22-.3l0-8s5.45-.37,6.11-.21a3,3,0,0,1,1.72,1.11,3.54,3.54,0,0,1,.23.35c.12.22.3.57.47,1,.08.22.16.45.22.68a.65.65,0,0,1,0,.13l0,.05c.26,1,1,.93,1,.93l-.38-4,0-.61h0a18.84,18.84,0,0,0-4.94-.57H138.36s0,.64.85.74l.24,0,.23,0L140,10l0,0a.91.91,0,0,1,.28.12,1.49,1.49,0,0,1,.6,1.06,22.86,22.86,0,0,1,.13,3.15V24.63A25.3,25.3,0,0,1,141,27.9a1.86,1.86,0,0,1-.58,1.05.9.9,0,0,1-.29.18,2,2,0,0,1-.56.15h-.08a5.07,5.07,0,0,1-.6.06l-.12,0a.73.73,0,0,0-.8.71h16.5l.45-6.52ZM135.93,9.14H115.68l-.11,5h.07a.79.79,0,0,0,.22-.07,1,1,0,0,0,.52-.64,8.46,8.46,0,0,1,.83-2.23,2.13,2.13,0,0,1,1.31-1c.46-.13,5.78.14,5.78.14l0,14.27a24,24,0,0,1-.14,3.34,1.56,1.56,0,0,1-.67,1.05,2.07,2.07,0,0,1-.71.26h0l-.4,0-.23,0h-.61a.91.91,0,0,0-1,.7H131a.9.9,0,0,0-1-.7h-.12l-.57,0h0a2.49,2.49,0,0,1-1.25-.35,1.64,1.64,0,0,1-.63-1.14,29.71,29.71,0,0,1-.11-3.22l0-14.23s5.34-.3,5.81-.17a2.25,2.25,0,0,1,1.33,1,6.7,6.7,0,0,1,.78,2.05,1.49,1.49,0,0,0,.27.58.89.89,0,0,0,.13.14,1,1,0,0,0,.35.2h.1ZM112.34,29.35h-.12l-.54,0h0a2.5,2.5,0,0,1-1.19-.33,1.53,1.53,0,0,1-.59-1.08,26.58,26.58,0,0,1-.11-3V11.71a3.83,3.83,0,0,1,.07-.53,1.47,1.47,0,0,1,.62-1,1.8,1.8,0,0,1,.68-.24h0l.39,0,.21,0h.58a.87.87,0,0,0,.9-.67h-9.85a.86.86,0,0,0,.9.66h.12l.53,0h0a2.32,2.32,0,0,1,1.19.33,1.56,1.56,0,0,1,.59,1.08,26.58,26.58,0,0,1,.11,3V27.5a4.33,4.33,0,0,1-.07.53,1.47,1.47,0,0,1-.63,1,1.74,1.74,0,0,1-.68.24h0l-.38.05-.22,0h-.57a.85.85,0,0,0-.9.66h9.85a.87.87,0,0,0-.9-.66m136.46,0h0a2.38,2.38,0,0,1-.86-.21,1,1,0,0,1-.48-.71,16.55,16.55,0,0,1-.07-1.75V25.3h0V21.84a9.79,9.79,0,0,0-.27-2.65,2.88,2.88,0,0,0-1.23-1.54,4.4,4.4,0,0,0-2.46-.63,5.39,5.39,0,0,0-2.52.64,8.07,8.07,0,0,0-2.3,1.93V17.73h-4.27a.32.32,0,0,0,0,.07c0,.18.19.62.63.65H235a2,2,0,0,1,.82.21,1,1,0,0,1,.49.7,23.85,23.85,0,0,1,.08,2.59v4.15h0v.49a13,13,0,0,1-.1,1.88,1,1,0,0,1-.51.65,2.18,2.18,0,0,1-.77.18H235c-.52.05-.62.68-.63.72h6.33s-.11-.68-.63-.72h0a2.37,2.37,0,0,1-.85-.21,1,1,0,0,1-.49-.71,14.9,14.9,0,0,1-.07-1.65v-.64h0V22.47h0V20.63a7.12,7.12,0,0,1,1.91-2,3.88,3.88,0,0,1,2.13-.67,2.62,2.62,0,0,1,1.62.49A2,2,0,0,1,245,19.6a11.32,11.32,0,0,1,.14,2.11v8.34h4.25s-.11-.68-.63-.72M306.61,17Zm.69,7.5a3.47,3.47,0,0,0-1.23-1.29A25.31,25.31,0,0,0,303.61,22a9.32,9.32,0,0,1-2.44-1.44,1.56,1.56,0,0,1-.69-1.29A1.71,1.71,0,0,1,301,18a2.11,2.11,0,0,1,1.71-.64,3.06,3.06,0,0,1,2.16.87A3.64,3.64,0,0,1,306,19.94h0s.15.5.57.49h0V18h0a8,8,0,0,0-.73-.42,6.79,6.79,0,0,0-2.88-.88h-.38a3.39,3.39,0,0,0-2.46.94,3.17,3.17,0,0,0-1,2.35,4.21,4.21,0,0,0,.38,1.89,3.71,3.71,0,0,0,1.25,1.33,17.85,17.85,0,0,0,2.38,1.19,8.49,8.49,0,0,1,2.43,1.43,2,2,0,0,1,.73,1.52,2.18,2.18,0,0,1-.78,1.62,2.78,2.78,0,0,1-2.13.79,3.28,3.28,0,0,1-2.44-1l-.14-.15a3.46,3.46,0,0,1-.34-.44l-.08-.13a5.52,5.52,0,0,1-.71-1.59c-.17-.64-.53-.69-.62-.7h0l0,3.11h0a5.61,5.61,0,0,0,.65.47,7.37,7.37,0,0,0,3.68,1h.21a4.16,4.16,0,0,0,3-1.06,3.66,3.66,0,0,0,1.12-2.76,4.77,4.77,0,0,0-.45-2.14M232.53,9.32H225.6s.12.66.66.75h0a3,3,0,0,1,1.28.44,1.87,1.87,0,0,1,.85,1.11,7.22,7.22,0,0,1,.19,1.65v0c0,.24,0,.51,0,.8v7.06a27.26,27.26,0,0,1-.16,3.54,5.23,5.23,0,0,1-.93,2.19,5.67,5.67,0,0,1-2.31,1.77,7.63,7.63,0,0,1-3.32.71A6.37,6.37,0,0,1,218,28.32a4.23,4.23,0,0,1-1.77-2.49,25.35,25.35,0,0,1-.31-4.81V14.49c0-.62,0-1.15,0-1.6V12.8q0-.84.09-1.29a1.71,1.71,0,0,1,.53-1.1,1.49,1.49,0,0,1,.67-.28,1.13,1.13,0,0,1,.18,0l.08,0,.41,0h.42a.85.85,0,0,0,.81-.7h-9.47a.86.86,0,0,0,.85.7h.39l.52,0h0l.17,0a1.57,1.57,0,0,1,.65.27,1.68,1.68,0,0,1,.56,1.14.17.17,0,0,0,0,.07c0,.11,0,.25,0,.39,0,.3,0,.67.05,1.13v-.24c0,.45,0,1,0,1.6v6.45l0,2.13a8.23,8.23,0,0,0,.82,4,5.89,5.89,0,0,0,2.74,2.43,10.52,10.52,0,0,0,4.68,1,11.53,11.53,0,0,0,4.26-.65,6.62,6.62,0,0,0,2.77-2,5.51,5.51,0,0,0,1.2-2.52,28.58,28.58,0,0,0,.2-3.93v-6.9c0-.31,0-.6,0-.87h0a9.06,9.06,0,0,1,.15-1.68,2.16,2.16,0,0,1,.83-1.19,2.69,2.69,0,0,1,1.29-.63h0c.51-.1.62-.72.63-.76Zm39.57,8.27h-4.22s.11.65.58.77h0a1.77,1.77,0,0,1,.46.17.89.89,0,0,1,.43.61.78.78,0,0,1,0,.22A4.87,4.87,0,0,1,269,20.8a.37.37,0,0,0-.05.11l-.25.58-3,6.77-3.38-7.6a5.71,5.71,0,0,1-.61-1.63.57.57,0,0,1,.34-.58,2.06,2.06,0,0,1,.66-.14h0c.52,0,.62-.68.62-.71h-5.66s.1.63.56.76h0a1.3,1.3,0,0,1,.67.35,7.28,7.28,0,0,1,1,1.85l4.45,10.05h.89l4.07-9a17.67,17.67,0,0,1,1.2-2.34c.09-.14.18-.26.25-.35l0,0a1.79,1.79,0,0,1,.78-.53l0,0a1.14,1.14,0,0,0,.5-.78h0Zm5,.42a3.94,3.94,0,0,0-2.41,3.57h7.86c-1.19-3.18-3-4.44-5.45-3.57m4.56,11.47a3.55,3.55,0,0,0,2-2.17h1.59a6.58,6.58,0,0,1-6.05,3.18,6.27,6.27,0,0,1-6.64-6.56,6.68,6.68,0,0,1,6.87-7c2.95,0,4.91,2,5.71,4.64l.15.59H274.7a9.69,9.69,0,0,0,.61,3.44,8.37,8.37,0,0,0,.82,1.67c1.36,2.1,3.52,3.07,5.58,2.17M255,17.73h-4.53l0,.07a.77.77,0,0,0,.66.65h.07a2.41,2.41,0,0,1,.86.2,1,1,0,0,1,.52.71c.06.3.09,3.1.09,3.1v3.64h0v.49a11.62,11.62,0,0,1-.1,1.88,1,1,0,0,1-.54.65,2.38,2.38,0,0,1-.82.18h-.07c-.55.05-.66.68-.66.72h6.7s-.12-.68-.67-.72h0a2.64,2.64,0,0,1-.9-.21,1,1,0,0,1-.52-.71,14,14,0,0,1-.08-1.65v-.64h0c0-.12,0-8.38,0-8.38m-2.95-7.13a1.57,1.57,0,0,0,.47,1.14,1.55,1.55,0,0,0,2.24,0,1.6,1.6,0,0,0,.46-1.14,1.58,1.58,0,0,0-.46-1.13,1.55,1.55,0,0,0-2.24,0,1.55,1.55,0,0,0-.47,1.13m61.82,7.1h-4.53s0,0,0,.08a.76.76,0,0,0,.67.64h.07a2.53,2.53,0,0,1,.86.2,1,1,0,0,1,.51.71c.06.3.09,3.1.09,3.1v3.63h0v.5a13.15,13.15,0,0,1-.1,1.88,1,1,0,0,1-.55.65,2.32,2.32,0,0,1-.81.18H310c-.55,0-.66.68-.67.71v0h6.7v0s-.11-.67-.67-.71h0a2.19,2.19,0,0,1-.9-.21,1,1,0,0,1-.52-.71,13.61,13.61,0,0,1-.08-1.64v-.65h0c0-.11,0-8.38,0-8.38m-2.94-7.13a1.57,1.57,0,0,0,.46,1.15,1.52,1.52,0,0,0,1.13.48,1.48,1.48,0,0,0,1.11-.48,1.64,1.64,0,0,0,0-2.28A1.5,1.5,0,0,0,312.52,9a1.55,1.55,0,0,0-1.13.47,1.57,1.57,0,0,0-.46,1.13m17.95,13.32a13.68,13.68,0,0,0-.47-2,6.25,6.25,0,0,0-3-3.94,3.75,3.75,0,0,0-3.21,0c-2.59,1.12-3.07,4.39-1.9,7.58s3.83,4.91,6.39,3.8a3.54,3.54,0,0,0,1.77-1.61,4.45,4.45,0,0,0,.45-1.22Zm.2,6.15-.16-1.18a7.21,7.21,0,0,1-4.69,1.54,6.28,6.28,0,0,1-6.65-6.57,6.92,6.92,0,0,1,11.3-5.42v-5c0-1.33,0-2.17-.05-2.52a1.34,1.34,0,0,1,0-.2h0a.93.93,0,0,0-.16-.38,1.15,1.15,0,0,0-.33-.29,2.43,2.43,0,0,0-.84-.19h-.07a.75.75,0,0,1-.66-.64.21.21,0,0,1,0-.06h4.44s0,16.93,0,17h0v.63c0,.62,0,1.08.05,1.37a1.31,1.31,0,0,0,0,.25.91.91,0,0,0,.51.69,2.09,2.09,0,0,0,.88.21h0a.64.64,0,0,1,.48.28,1,1,0,0,1,.18.43h-4.25ZM360,23.89a13.68,13.68,0,0,0-.47-2,6.27,6.27,0,0,0-3-3.94,3.77,3.77,0,0,0-3.22,0c-2.59,1.12-3.06,4.39-1.9,7.58s3.84,4.91,6.39,3.8a3.54,3.54,0,0,0,1.77-1.61,4.45,4.45,0,0,0,.45-1.22Zm.2,6.15L360,28.86a7.21,7.21,0,0,1-4.69,1.54,6.28,6.28,0,0,1-6.65-6.57A6.92,6.92,0,0,1,360,18.41v-5c0-1.33,0-2.17-.05-2.52a1.34,1.34,0,0,1,0-.2h0a1.1,1.1,0,0,0-.17-.38,1,1,0,0,0-.33-.29,2.43,2.43,0,0,0-.84-.19h-.07c-.46,0-.61-.46-.66-.64a.22.22,0,0,0,0-.06h4.44s0,16.93,0,17h0v.63c0,.62,0,1.08.05,1.37,0,.1,0,.19,0,.25a1,1,0,0,0,.51.69,2.09,2.09,0,0,0,.88.21h0a.64.64,0,0,1,.48.28,1,1,0,0,1,.18.43H360.2ZM297.84,18.9h0v0a2.24,2.24,0,0,0-.06-.38,1.34,1.34,0,0,0-.07-.18,2.43,2.43,0,0,0-.45-.68,2.09,2.09,0,0,0-1.59-.62,3.72,3.72,0,0,0-2.28.91A5.4,5.4,0,0,0,292,19.58V17.73h-4.52a.32.32,0,0,0,0,.07.79.79,0,0,0,.67.65h.07a2.23,2.23,0,0,1,.86.21,1,1,0,0,1,.52.7c.05.3.08,3.1.08,3.1v3.64h0v.49a11.62,11.62,0,0,1-.1,1.88,1,1,0,0,1-.54.65,2.44,2.44,0,0,1-.82.18h-.07c-.55.05-.66.68-.67.72h6.71s-.12-.68-.68-.72h0a2.58,2.58,0,0,1-.9-.21,1,1,0,0,1-.52-.71,14,14,0,0,1-.08-1.65v-.64h0c0-.07,0-2.6,0-4.86l.11-.41A4.06,4.06,0,0,1,293.25,19l0,0c.12-.12.24-.22.36-.32l.21-.15a.71.71,0,0,1,.14-.1l.2-.12.17-.08.15-.06a1.17,1.17,0,0,1,.3-.05c.42,0,.57.45.61.85a1.08,1.08,0,0,0,.1.35h0a1.18,1.18,0,0,0,.11.19v0h0a1.2,1.2,0,0,0,1,.57,1.18,1.18,0,0,0,.89-.42h0a.3.3,0,0,0,.07-.1,1.09,1.09,0,0,0,.14-.23,1,1,0,0,0,.09-.43m44.53,3.31a4.78,4.78,0,0,1-2,1.15c-1.22.3-2.29.47-3,1.28a2.71,2.71,0,0,0-.75,2.09,3,3,0,0,0,1.92,2.66c1.59.49,3-.44,3.86-1.1Zm3.81,7.06c.55,0,.66.72.67.75h-4.19l-.29-1a3.89,3.89,0,0,1-1,.7,5.88,5.88,0,0,1-4.46.5l0,0a3.4,3.4,0,0,1-1.39-5.56h0s1-1.28,3.77-1.66a5.39,5.39,0,0,0,3.15-1.7,14.36,14.36,0,0,0-.15-2.22,2.24,2.24,0,0,0-.66-1.37,2.73,2.73,0,0,0-1.7-.51,3.49,3.49,0,0,0-1.38.29c-.31.17-1.06.8-.91,1.38a2.64,2.64,0,0,1,.1,1.24h0v.05l0,.12a1.21,1.21,0,0,1-1.16.9A1.18,1.18,0,0,1,335.18,20a1.71,1.71,0,0,1,.28-1,7.79,7.79,0,0,1,2.22-1.9,6.45,6.45,0,0,1,2.84-.76,4.57,4.57,0,0,1,2.58.67,2.87,2.87,0,0,1,1.3,1.61,10.35,10.35,0,0,1,.29,2.79s0,6.45,0,6.71a1.47,1.47,0,0,0,.57.94,2.15,2.15,0,0,0,.9.23h0M135.25,46.45Zm.69,7.49a3.44,3.44,0,0,0-1.23-1.28,23.17,23.17,0,0,0-2.46-1.22A9.57,9.57,0,0,1,129.81,50a1.56,1.56,0,0,1-.69-1.29,1.73,1.73,0,0,1,.54-1.23,2.14,2.14,0,0,1,1.71-.64,3.06,3.06,0,0,1,2.16.87,3.62,3.62,0,0,1,1.15,1.72h0s.14.49.56.49h0V47.52h0c-.25-.16-.49-.3-.73-.43a6.85,6.85,0,0,0-2.88-.87h-.38a3.42,3.42,0,0,0-2.46.93,3.19,3.19,0,0,0-1,2.36,4,4,0,0,0,.39,1.88,3.62,3.62,0,0,0,1.24,1.34,19.17,19.17,0,0,0,2.38,1.19,8.51,8.51,0,0,1,2.43,1.42,2,2,0,0,1,.73,1.53,2.18,2.18,0,0,1-.78,1.61,2.78,2.78,0,0,1-2.13.79,3.28,3.28,0,0,1-2.44-1,1,1,0,0,1-.14-.15,4.58,4.58,0,0,1-.34-.43,1,1,0,0,1-.08-.14,5.52,5.52,0,0,1-.71-1.59c-.17-.63-.53-.69-.62-.69h0v3.1h0a4.63,4.63,0,0,0,.65.47,7.47,7.47,0,0,0,3.69,1h.2a4.2,4.2,0,0,0,3-1.06,3.66,3.66,0,0,0,1.12-2.76,4.81,4.81,0,0,0-.45-2.15m-18.61-6.5A3.93,3.93,0,0,0,114.92,51h7.86c-1.19-3.18-3-4.43-5.45-3.56m4.56,11.47a3.57,3.57,0,0,0,2-2.18h1.59a6.56,6.56,0,0,1-6,3.18,6.27,6.27,0,0,1-6.64-6.56,6.68,6.68,0,0,1,6.87-7c3,0,4.91,2,5.71,4.64l.15.6H114.88a9.77,9.77,0,0,0,.61,3.44,8.28,8.28,0,0,0,.82,1.66c1.36,2.1,3.52,3.07,5.58,2.18m16.67-11h0a2.38,2.38,0,0,1,.86.21,1,1,0,0,1,.48.72,15.13,15.13,0,0,1,.08,1.74V51.9h0v3.22a9.93,9.93,0,0,0,.27,2.66,2.86,2.86,0,0,0,1.23,1.53,4.4,4.4,0,0,0,2.46.63,5.24,5.24,0,0,0,2.52-.64,8.07,8.07,0,0,0,2.3-1.93l.21,2.11H153v0s0,0,0-.07-.19-.62-.63-.64h-.07a2.26,2.26,0,0,1-.81-.2,1,1,0,0,1-.48-.71,20.21,20.21,0,0,1-.09-2.58V51.1h0v-.5a13.71,13.71,0,0,1,.09-1.88,1,1,0,0,1,.51-.65,2.23,2.23,0,0,1,.77-.18h.07c.52,0,.63-.68.63-.71v0h-6.33v0s.11.67.63.71h0a2.2,2.2,0,0,1,.85.2,1,1,0,0,1,.49.72,14.51,14.51,0,0,1,.07,1.64v.65h0v3.63h0v1.6a7,7,0,0,1-1.91,2,3.8,3.8,0,0,1-2.13.67,2.59,2.59,0,0,1-1.61-.49,1.92,1.92,0,0,1-.78-1.13,10.25,10.25,0,0,1-.15-2.11v-8.1h-4.25v0s.11.67.63.71m116.4,0h0a2.31,2.31,0,0,1,.85.21,1,1,0,0,1,.49.72,16.15,16.15,0,0,1,.07,1.74V51.9h0v3.22a9.85,9.85,0,0,0,.28,2.66,2.77,2.77,0,0,0,1.23,1.53,4.37,4.37,0,0,0,2.45.63,5.31,5.31,0,0,0,2.53-.64,8,8,0,0,0,2.29-1.93l.22,2.11h4.06v0l0-.07c0-.18-.18-.62-.63-.64h-.06a2.2,2.2,0,0,1-.81-.2,1,1,0,0,1-.49-.71,23.61,23.61,0,0,1-.08-2.58V51.1h0v-.5a11.62,11.62,0,0,1,.1-1.88.93.93,0,0,1,.51-.65,2.12,2.12,0,0,1,.77-.18h.07c.51,0,.62-.68.62-.71v0h-6.32v0s.1.67.63.71h0a2.15,2.15,0,0,1,.85.2,1,1,0,0,1,.49.72,13.61,13.61,0,0,1,.08,1.64v.65h0v3.63h0v1.6a7,7,0,0,1-1.9,2,3.8,3.8,0,0,1-2.14.67,2.59,2.59,0,0,1-1.61-.49,2,2,0,0,1-.78-1.13,10.44,10.44,0,0,1-.14-2.11v-8.1h-4.26v0s.11.67.64.71m-96.27-.73h-4.53a.54.54,0,0,1,0,.08c.05.17.21.62.67.64h.07a2.21,2.21,0,0,1,.86.2,1,1,0,0,1,.52.7c.06.31.09,3.11.09,3.11v3.63h0V56a11.62,11.62,0,0,1-.1,1.88,1,1,0,0,1-.54.65,2.38,2.38,0,0,1-.82.18h-.07c-.55,0-.66.68-.67.71h6.71s-.12-.68-.67-.71h0a2.24,2.24,0,0,1-.9-.21,1,1,0,0,1-.52-.71,14,14,0,0,1-.08-1.65v-.64h0c0-.12,0-8.38,0-8.38M155.74,40a1.59,1.59,0,0,0,.47,1.15,1.57,1.57,0,0,0,2.24,0,1.63,1.63,0,0,0,.46-1.15,1.58,1.58,0,0,0-.46-1.13,1.57,1.57,0,0,0-2.24,0,1.55,1.55,0,0,0-.47,1.13M322.29,59.56h0a1.32,1.32,0,0,0-.19-.43.64.64,0,0,0-.47-.27h0a2.33,2.33,0,0,1-.88-.2,1,1,0,0,1-.51-.7c0-.06,0-.14,0-.25,0-.29,0-.74-.05-1.37V55.7h0c0-.12,0-17,0-17h-4.45l0,.07a.76.76,0,0,0,.66.63h.06a2.28,2.28,0,0,1,.84.2.91.91,0,0,1,.33.28.87.87,0,0,1,.17.38h0c0,.06,0,.13,0,.19,0,.35,0,1.19,0,2.53l0,14.53c0,.11,0,.38,0,.44a1,1,0,0,1-.51.7,2.28,2.28,0,0,1-.88.2h0a.66.66,0,0,0-.48.27,1,1,0,0,0-.18.43h6.52Zm47.14-11.2h0v0s0,0,0,0a1.54,1.54,0,0,0-.06-.38.67.67,0,0,0-.07-.18,2.23,2.23,0,0,0-.45-.68,2.06,2.06,0,0,0-1.59-.62,3.72,3.72,0,0,0-2.28.91A5.42,5.42,0,0,0,363.56,49c0-1.08,0-1.85,0-1.85H359l0,.07a.77.77,0,0,0,.66.65h.07a2.41,2.41,0,0,1,.86.2,1,1,0,0,1,.52.71c.06.3,0,8.88,0,9.11a1,1,0,0,1-.54.65,2.38,2.38,0,0,1-.82.18h-.07c-.55,0-.66.68-.66.72h6.7s-.12-.68-.67-.72h0a2.58,2.58,0,0,1-.9-.21,1,1,0,0,1-.52-.71c0-.24-.08-4.89-.08-7.15l.11-.41a4.06,4.06,0,0,1,1.17-1.85l0,0,.36-.32.21-.15a.71.71,0,0,1,.14-.1l.2-.12.18-.08.14-.06a1.18,1.18,0,0,1,.31-.05c.41,0,.57.44.6.85a1.08,1.08,0,0,0,.1.35h0a1.18,1.18,0,0,0,.11.19v0a1.22,1.22,0,0,0,1,.57,1.2,1.2,0,0,0,.9-.42h0a.53.53,0,0,0,.06-.1,1.14,1.14,0,0,0,.15-.23,1.22,1.22,0,0,0,.08-.43m-73.25,5a12.16,12.16,0,0,0-.48-2,6.19,6.19,0,0,0-3-3.94,3.77,3.77,0,0,0-3.22,0c-2.58,1.11-3.06,4.38-1.9,7.58s3.84,4.9,6.4,3.79a3.54,3.54,0,0,0,1.77-1.61,4.71,4.71,0,0,0,.44-1.21Zm.19,6.15-.15-1.17a7.23,7.23,0,0,1-4.69,1.54,6.29,6.29,0,0,1-6.66-6.58,6.93,6.93,0,0,1,11.31-5.41v-5q0-2-.06-2.52c0-.07,0-.14,0-.2h0a1,1,0,0,0-.17-.39,1,1,0,0,0-.33-.28,2.34,2.34,0,0,0-.84-.2h-.07a.73.73,0,0,1-.65-.63.41.41,0,0,1,0-.07h4.44s0,16.92,0,17h0v.63c0,.62,0,1.08,0,1.37q0,.15,0,.24a1,1,0,0,0,.51.7,2.3,2.3,0,0,0,.88.21h0a.66.66,0,0,1,.47.27,1,1,0,0,1,.18.43h-4.25ZM178,51.79A4.7,4.7,0,0,1,176,53c-1.22.3-2.29.47-3,1.27a2.68,2.68,0,0,0-.75,2.09A3,3,0,0,0,174.18,59a4.39,4.39,0,0,0,3.86-1.1Zm3.81,7.07c.55,0,.66.72.66.75h-4.25l-.22-1a3.59,3.59,0,0,1-1,.7,5.86,5.86,0,0,1-4.47.51l0,0a3.41,3.41,0,0,1-1.39-5.56h0s1-1.29,3.78-1.66a5.39,5.39,0,0,0,3.15-1.7,14.51,14.51,0,0,0-.15-2.23,2.24,2.24,0,0,0-.66-1.36,2.75,2.75,0,0,0-1.7-.52,3.38,3.38,0,0,0-1.39.3c-.31.16-1,.8-.91,1.38a2.52,2.52,0,0,1,.11,1.23h0v.05l0,.12a1.22,1.22,0,0,1-1.16.9,1.2,1.2,0,0,1-1.3-1.12,1.71,1.71,0,0,1,.28-1,7.85,7.85,0,0,1,2.23-1.9,6.32,6.32,0,0,1,2.84-.76,4.62,4.62,0,0,1,2.58.66,3,3,0,0,1,1.3,1.62,10.35,10.35,0,0,1,.29,2.79s0,6.45,0,6.71a1.46,1.46,0,0,0,.56.94,2.43,2.43,0,0,0,.91.23h0m97.23-7.22a4.7,4.7,0,0,1-2,1.16c-1.22.3-2.29.47-3,1.27a2.68,2.68,0,0,0-.75,2.09,3,3,0,0,0,1.92,2.66c1.59.49,3-.44,3.86-1.1Zm3.81,7.06c.55,0,.66.72.66.76h-4.22l-.25-1a3.59,3.59,0,0,1-1,.7,5.9,5.9,0,0,1-4.47.51l0,0a3.41,3.41,0,0,1-1.39-5.56h0s1-1.29,3.78-1.66a5.33,5.33,0,0,0,3.15-1.71,14.46,14.46,0,0,0-.15-2.22,2.24,2.24,0,0,0-.66-1.36,2.69,2.69,0,0,0-1.7-.52,3.38,3.38,0,0,0-1.39.3c-.31.16-1.05.79-.91,1.38a2.52,2.52,0,0,1,.11,1.23h0v0l0,.13a1.23,1.23,0,0,1-1.16.9,1.2,1.2,0,0,1-1.3-1.12,1.71,1.71,0,0,1,.28-1,7.87,7.87,0,0,1,2.23-1.91,6.43,6.43,0,0,1,2.84-.75,4.62,4.62,0,0,1,2.58.66,3,3,0,0,1,1.3,1.62,10.35,10.35,0,0,1,.29,2.79s0,6.45,0,6.7a1.48,1.48,0,0,0,.56.95,2.27,2.27,0,0,0,.91.22h0m27.26-7.06a4.7,4.7,0,0,1-2,1.16c-1.22.3-2.29.47-3,1.27a2.72,2.72,0,0,0-.75,2.09,3,3,0,0,0,1.92,2.66c1.59.49,3-.44,3.86-1.1ZM314,58.7c.55,0,.66.72.67.76h-4.24l-.24-1a3.42,3.42,0,0,1-1,.7,5.88,5.88,0,0,1-4.46.51l0,0a3.4,3.4,0,0,1-2.31-3.23,3.33,3.33,0,0,1,.93-2.33h0s1-1.29,3.77-1.66a5.33,5.33,0,0,0,3.15-1.71,14.46,14.46,0,0,0-.15-2.22,2.24,2.24,0,0,0-.66-1.36,2.67,2.67,0,0,0-1.7-.52,3.33,3.33,0,0,0-1.38.3c-.31.16-1.06.79-.91,1.38a2.6,2.6,0,0,1,.1,1.23h0a.06.06,0,0,0,0,0l0,.13a1.22,1.22,0,0,1-1.16.9A1.18,1.18,0,0,1,303,49.45a1.71,1.71,0,0,1,.28-1,7.81,7.81,0,0,1,2.22-1.91,6.43,6.43,0,0,1,2.84-.75,4.59,4.59,0,0,1,2.58.66,2.92,2.92,0,0,1,1.3,1.62,10.35,10.35,0,0,1,.29,2.79s0,6.45,0,6.7a1.49,1.49,0,0,0,.57.95,2.17,2.17,0,0,0,.9.22h0m17.7-7.06a4.7,4.7,0,0,1-2,1.16c-1.22.3-2.29.47-3,1.27a2.68,2.68,0,0,0-.75,2.09,3,3,0,0,0,1.92,2.66c1.59.49,3-.44,3.86-1.1Zm3.81,7.06c.55,0,.66.72.66.76H331.9l-.24-1a3.59,3.59,0,0,1-1,.7,5.9,5.9,0,0,1-4.47.51l0,0a3.4,3.4,0,0,1-1.39-5.56h0s1-1.29,3.78-1.66a5.33,5.33,0,0,0,3.15-1.71,14.46,14.46,0,0,0-.15-2.22,2.2,2.2,0,0,0-.67-1.36,2.64,2.64,0,0,0-1.69-.52,3.38,3.38,0,0,0-1.39.3c-.31.16-1.05.79-.91,1.38a2.35,2.35,0,0,1,.1,1.23h0v0a.5.5,0,0,1,0,.13,1.25,1.25,0,0,1-2.45-.22,1.71,1.71,0,0,1,.28-1A7.87,7.87,0,0,1,327,46.51a6.43,6.43,0,0,1,2.84-.75,4.62,4.62,0,0,1,2.58.66,3,3,0,0,1,1.3,1.62,10.35,10.35,0,0,1,.29,2.79s0,6.45,0,6.7a1.48,1.48,0,0,0,.56.95,2.27,2.27,0,0,0,.91.22h0m17.94-7.06a4.7,4.7,0,0,1-2,1.16c-1.22.3-2.29.47-3,1.27a2.68,2.68,0,0,0-.75,2.09,3,3,0,0,0,1.92,2.66c1.59.49,3-.44,3.86-1.1Zm3.81,7.06c.55,0,.66.72.66.76h-4.2l-.27-1a3.59,3.59,0,0,1-1,.7,5.9,5.9,0,0,1-4.47.51l0,0a3.4,3.4,0,0,1-1.39-5.56h0s1-1.29,3.78-1.66a5.33,5.33,0,0,0,3.15-1.71,14.46,14.46,0,0,0-.15-2.22,2.24,2.24,0,0,0-.66-1.36,2.69,2.69,0,0,0-1.7-.52,3.38,3.38,0,0,0-1.39.3c-.31.16-1.05.79-.91,1.38a2.52,2.52,0,0,1,.11,1.23h0v0l0,.13a1.23,1.23,0,0,1-1.16.9,1.2,1.2,0,0,1-1.3-1.12,1.71,1.71,0,0,1,.28-1,7.87,7.87,0,0,1,2.23-1.91,6.43,6.43,0,0,1,2.84-.75,4.62,4.62,0,0,1,2.58.66,3,3,0,0,1,1.3,1.62,10.35,10.35,0,0,1,.29,2.79s0,6.45,0,6.7a1.48,1.48,0,0,0,.56.95,2.27,2.27,0,0,0,.91.22h0m21.43-7.06a4.82,4.82,0,0,1-2,1.16c-1.23.3-2.29.47-3,1.27a2.76,2.76,0,0,0-.75,2.09,3,3,0,0,0,1.92,2.66c1.59.49,3-.44,3.87-1.1Zm3.8,7.06c.56,0,.67.72.67.76h-4.23l-.24-1a3.59,3.59,0,0,1-1,.7,5.9,5.9,0,0,1-4.47.51l0,0a3.4,3.4,0,0,1-1.39-5.56h0s1-1.29,3.77-1.66a5.3,5.3,0,0,0,3.15-1.71,14.46,14.46,0,0,0-.15-2.22,2.19,2.19,0,0,0-.66-1.36,2.64,2.64,0,0,0-1.69-.52,3.34,3.34,0,0,0-1.39.3c-.31.16-1.06.79-.91,1.38a2.47,2.47,0,0,1,.1,1.23h0a.06.06,0,0,1,0,0,.5.5,0,0,1,0,.13,1.22,1.22,0,0,1-1.15.9,1.19,1.19,0,0,1-1.3-1.12,1.71,1.71,0,0,1,.28-1A7.73,7.73,0,0,1,374,46.51a6.36,6.36,0,0,1,2.84-.75,4.62,4.62,0,0,1,2.58.66A3,3,0,0,1,380.67,48a10,10,0,0,1,.29,2.79s0,6.45,0,6.7a1.48,1.48,0,0,0,.56.95,2.17,2.17,0,0,0,.9.22h0M109.59,38.41h-6.31a.94.94,0,0,0,.55.65.91.91,0,0,0,.31,0h0c1.06.19,1.71.46,1.94.81.32.53.49,2.06.49,4.59V54.88c0,3.79-.39,6.52-1.15,8.18a8.63,8.63,0,0,1-4.62,4.06,12.42,12.42,0,0,1-2,.55l-1.19.16H97.4l-.57,0s.19,1,1.51.72a6.69,6.69,0,0,0,.94-.29c.56-.17,1.09-.35,1.58-.54,0,0,0,0,0,0l.17-.07c.25-.09.48-.19.72-.29l.44-.2.55-.26a12.19,12.19,0,0,0,5-4q1.86-2.87,1.86-8V44.52c0-2.53.14-4.05.41-4.56s.78-.65,1.7-.83H112a.8.8,0,0,0,.36-.08.91.91,0,0,0,.45-.61h-3.22Zm57.19,9.53H169v-.75h-1.56a1.36,1.36,0,0,1-.29,0,1,1,0,0,1-.7-.51,11.07,11.07,0,0,1-.13-1.59v0h0v0a.77.77,0,0,0-.65-.67l-.07,0h0v0c0,2.85-3.37,2.87-3.37,2.87h0l0,.08a.76.76,0,0,0,.66.64H163a2.41,2.41,0,0,1,.86.2,1,1,0,0,1,.52.7,4.92,4.92,0,0,1,.09.73c0,.19,0,7.71,0,8v.09a2.25,2.25,0,0,0,2.25,2.23H169s-.12-.65-.65-.71h0a2.58,2.58,0,0,1-.9-.21,1,1,0,0,1-.52-.71,14,14,0,0,1-.08-1.65s0-7,0-8.65m84.93,2h-6.86a.73.73,0,0,0,.73.6h.33l.45,0h0l.14,0a1.44,1.44,0,0,1,.57.24,1.46,1.46,0,0,1,.48,1v.06c0,.1,0,.22,0,.34s.06,1.61.06,2.14v.79a5.37,5.37,0,0,1-3.13,3.2C240.37,60.22,235.89,57.2,234,52c-1.54-4.21-1.56-8.14.79-10.63a11.76,11.76,0,0,1,1.63-1.43,6.94,6.94,0,0,1,4.35-1.2,6.52,6.52,0,0,1,4.61,1.9,13.17,13.17,0,0,1,2.58,4c.36.91,1,.83,1,.83h0V41.91a7.48,7.48,0,0,0-3.3-3l0,0h0a5.16,5.16,0,0,0-.49-.21l-.59-.22-.34-.11c-.26-.08-.52-.15-.8-.21l-.33-.06c-.33-.07-.67-.12-1-.16h0c-.45,0-.84-.06-1.12-.06-.43,0-.85,0-1.27.06a12.11,12.11,0,0,0-2.31.43h0l-.57.2a9.59,9.59,0,0,0-3.88,2.41c-.11.12-.23.23-.33.35h0a11.49,11.49,0,0,0-2.95,7.91c0,6,4,10.71,10.84,10.71,4.41,0,7.89-1.81,9.77-5,0,0,0-1.44,0-1.83s0-.95.09-1.21a1.56,1.56,0,0,1,.46-.94,1.58,1.58,0,0,1,.58-.24l.15,0h.11l.31,0,.27,0h.09a.72.72,0,0,0,.7-.6h-1.29ZM341.6,39.1a1.38,1.38,0,0,0-1-.44,1.35,1.35,0,0,0-1.06.47,1.57,1.57,0,0,0-.43,1.09,1.38,1.38,0,0,0,.41,1,1.4,1.4,0,0,0,1,.43,1.46,1.46,0,0,0,1.08-.45,1.47,1.47,0,0,0,0-2.1m.19,8.12h-4.53s0,0,0,.08A.77.77,0,0,0,338,48H338a2.2,2.2,0,0,1,.85.2.83.83,0,0,1,.18.13,1,1,0,0,1,.29.59c0,.1,0,.86,0,1.92h0v8.87c0,3.1-.24,4.72-.6,5.53A7.06,7.06,0,0,1,336,68.57a8.46,8.46,0,0,1-2.13.88h0v0c0,.08.16.31.64.29a6.51,6.51,0,0,0,2.51-.92A14.14,14.14,0,0,0,340,66.28a9.75,9.75,0,0,0,1.84-6.23s0-12.83,0-12.83m-129.67.22a3.93,3.93,0,0,0-2.4,3.56h7.85c-1.19-3.18-3-4.43-5.45-3.56m4.56,11.47a3.58,3.58,0,0,0,2-2.18h1.59a6.58,6.58,0,0,1-6,3.18,6.27,6.27,0,0,1-6.64-6.56,6.68,6.68,0,0,1,6.86-7c2.95,0,4.92,2,5.71,4.64q.09.3.15.6H209.68a9.53,9.53,0,0,0,.6,3.44,8.87,8.87,0,0,0,.83,1.66c1.36,2.1,3.51,3.07,5.57,2.18m-13.9-5.26a13.25,13.25,0,0,0-.47-2,6.2,6.2,0,0,0-3-3.94,3.75,3.75,0,0,0-3.21,0c-2.59,1.12-3.06,4.39-1.9,7.59s3.84,4.9,6.4,3.79a3.54,3.54,0,0,0,1.77-1.61,4.71,4.71,0,0,0,.44-1.21Zm.2,6.15-.16-1.18a7.21,7.21,0,0,1-4.69,1.54,6.28,6.28,0,0,1-6.65-6.57,6.69,6.69,0,0,1,6.88-7,6.62,6.62,0,0,1,4.42,1.57v-5c0-1.34,0-2.18-.05-2.53a1.21,1.21,0,0,1,0-.19h0a1.19,1.19,0,0,0-.17-.38,1,1,0,0,0-.33-.28,2.19,2.19,0,0,0-.84-.2h-.07c-.46,0-.61-.46-.66-.63a.35.35,0,0,0,0-.07h4.44s0,16.92,0,17h0v.63c0,.63,0,1.08,0,1.37,0,.11,0,.19,0,.25a1,1,0,0,0,.51.7,2.28,2.28,0,0,0,.88.2h0a.63.63,0,0,1,.48.27,1,1,0,0,1,.18.43H203Z"/>
</svg>