<svg xmlns="http://www.w3.org/2000/svg" viewBox="0 0 78.12 78.12">
  <title>ITESO isotipo</title>
  <path fill="#00457c" d="M38.55,21.25a105.17,105.17,0,0,0-9.42,8.39c-1.88,1.87-3.65,3.75-5.28,5.63-7.33-9.81-10.61-18.6-7.53-21.89S28.52,13.45,38.55,21.25ZM62,13.56c-3.32-3.13-12.28.26-22.21,7.74a107.83,107.83,0,0,1,8.68,7.83q3.15,3.15,5.88,6.37C62,25.59,65.38,16.7,62,13.56ZM39,57.36C28,65.85,17.74,70.05,12.68,67.77l-.2-.09A39,39,0,0,0,65.34,68l-.11,0C60.19,70.3,49.91,66,39,57.36ZM20.76,39C12.24,28,8,17.64,10.41,12.61a1.11,1.11,0,0,1,.07-.16,39,39,0,0,0-.27,52.94l-.09-.2C7.86,60.14,12.13,49.89,20.76,39ZM67.68,65.61a39,39,0,0,0,.24-52.85s0,0,0,.05h0c2.4,5-1.87,15.34-10.59,26.35,8.54,11,12.74,21.37,10.35,26.38ZM49,48.5c-2.1,2.1-4.23,4.07-6.36,5.88C52.55,62,61.43,65.39,64.58,62s-.26-12.28-7.74-22.22A104.7,104.7,0,0,1,49,48.5ZM35.26,54.3c-1.88-1.65-3.76-3.42-5.63-5.28a107.92,107.92,0,0,1-8.38-9.43c-7.81,10-11.26,19-7.87,22.22S25.46,61.62,35.26,54.3Zm3.9-33.53C50.19,12.23,60.55,8,65.57,10.42l.08,0a39,39,0,0,0-52.95-.22l.17-.08C17.89,7.82,28.19,12.1,39.16,20.77Zm-6.25,25a99.22,99.22,0,0,1-8.61-9.85C26,34,27.75,32,29.67,30.14a101.51,101.51,0,0,1,9.54-8.37A101.94,101.94,0,0,1,48,29.67q3.18,3.22,5.88,6.45a102,102,0,0,1-8.15,9.11c-2.25,2.22-4.52,4.28-6.76,6.15C37,49.65,34.92,47.77,32.91,45.73ZM29.28,37l8.63-.27a.46.46,0,0,1,.53.5L38.24,46H40l-.21-8.73a.48.48,0,0,1,.53-.5L49,37V35.26l-8.64.26c-.36-.05-.5-.21-.53-.48L40,26.3H38.24l.2,8.74a.49.49,0,0,1-.53.48l-8.63-.26Z"/>
</svg>