<svg xmlns="http://www.w3.org/2000/svg" xmlns:xlink="http://www.w3.org/1999/xlink" viewBox="0 0 150 150">
	<title>Phoenix.vg</title>
	<defs>
		<linearGradient id="pvg-a" x1="46.73" y1="83.72" x2="149.54" y2="83.72" gradientUnits="userSpaceOnUse">
			<stop offset="0" stop-color="#802022" />
			<stop offset="1" stop-color="#af1917" />
		</linearGradient>
		<linearGradient id="pvg-b" x1="35.08" y1="87.78" x2="143.64" y2="87.78" gradientUnits="userSpaceOnUse">
			<stop offset="0" stop-color="#9c2e30" />
			<stop offset="1" stop-color="#af1917" />
		</linearGradient>
		<linearGradient id="pvg-c" x1="14" y1="89.62" x2="87.62" y2="89.62" gradientUnits="userSpaceOnUse">
			<stop offset="0" stop-color="#d6272c" />
			<stop offset="1" stop-color="#af1917" />
		</linearGradient>
		<linearGradient id="pvg-d" x1="-5.88" y1="36.57" x2="79.57" y2="85.9" gradientUnits="userSpaceOnUse">
			<stop offset="0" stop-color="#e30613" />
			<stop offset="1" stop-color="#f3954a" />
		</linearGradient>
	</defs>
	<g>
		<path fill="url(#pvg-a)" d="M145.63,93.27c8.52-22.37.45-37.91.45-37.91S128.33,103.64,91.4,93.94C51.24,83.39,56.61,40.26,56.61,40.26s-22.86,22.77,1,59.83C69.61,118.78,122.69,153.61,145.63,93.27Z" />
		<path fill="#00000010" d="M88.72,117.67S67.05,100.91,58.56,77.31c-6.81-18.92-1.28-39.56-1.18-39.46S43.15,62.75,51.15,86.1C57.68,105.15,88.72,117.67,88.72,117.67Z" />
		<path fill="url(#pvg-b)" d="M81.62,30.8s-45.38,7.83-26.4,50.91c23.22,52.69,88.42,32.57,88.42,32.57S123,145.93,91.77,144.74c-39.35-1.5-50.21-29.43-48-26.2,0,0-17.34-30-3.06-57.58A57.54,57.54,0,0,1,81.62,30.8Z" />
		<path fill="#00000010" d="M62.08,139S44.62,116.75,42,91.56c-2.94-21.7,11.86-44.77,11.93-44.65S29.91,65.19,32.42,98C34.22,118.25,62.08,139,62.08,139Z" />
		<path fill="url(#pvg-c)" d="M76,29.24a16.15,16.15,0,0,1-4.42,5c-2.45,1.78-4.36,2-6.85,3.09,0,0-3.3,1.44-8.38,6.4-4.77,4.66-16.73,23.17-16.91,42.8C39.23,111.59,58.29,137,87.62,150c-.07.08-49.3.32-67-31-10-17.64-5.91-35.53-5-39.54C21.64,54.11,45.48,34.35,76,29.24Z" />
		<path fill="#00000010" d="M17.52,91.38s7.35-16.32,24.27-35.17c14.23-16.88,33-24.66,33-24.53S47.42,33.71,30.5,52C16.67,66.88,17.52,91.38,17.52,91.38Z" />
		<path fill="url(#pvg-d)" d="M13.87,120.63S-.25,98.22,1,81.23c2.3-30.16,25-49.55,25-49.55L.46,25.59s15.08-.41,24.13-3,16.08-5.51,16.08-5.51S38,16.9,35.8,13.4,33.36,0,33.36,0s2.83,6.76,8.53,9.75c7.23,3.78,30.43,1.25,39.6,4.85,12.75,5,23.76,26.83,23.76,26.83s-27.84-15.2-53.61,2.43C16.6,67.85,13.87,120.63,13.87,120.63Z" />
	</g>
</svg>
