<svg xmlns="http://www.w3.org/2000/svg" viewBox="0 0 601.43 195.87">
  <title>Uxlon logo</title>
  <defs>
    <style>
      .uxlon-a { fill: var(--body-color-high, black); }
      .uxlon-b { fill: #f9b233; }
    </style>
  </defs>
  <polygon class="uxlon-a" points="332.9 179.16 350.97 155.44 350.97 154.86 287.46 154.86 287.46 37.6 263.16 37.6 263.16 154.86 263.16 179.16 287.46 179.16 332.9 179.16" />
  <polygon class="uxlon-b" points="252.87 37.36 222.49 37.36 183.56 90 213.92 90 252.87 37.36" />
  <polygon class="uxlon-a" points="112.2 179.16 142.58 179.16 181.29 128.3 219.95 179.16 250.33 179.16 142.58 37.4 112.2 37.4 166.08 108.28 112.2 179.16" />
  <polygon class="uxlon-a" points="576.62 37.88 576.62 133.59 517.66 37.59 493.37 37.59 493.37 178.7 517.66 178.7 517.66 82.28 576.62 179.03 576.62 178.99 601.43 179.03 601.43 37.92 576.62 37.88" />
  <path class="uxlon-a" d="M114.43,142.81a58.16,58.16,0,0,0,4.66-23.19V93.75h0V71.47L93.85,37.36V90h0v25.92a35,35,0,0,1-2.63,13.47c-1.76,4.25-3.39,8.07-6.77,11.44a33.92,33.92,0,0,1-24.91,10.33,34.7,34.7,0,0,1-24.91-10.33c-3.37-3.37-5-7.19-6.76-11.44a34.85,34.85,0,0,1-2.63-13.47V37.37H0v82.25a58,58,0,0,0,4.66,23.19,59.7,59.7,0,0,0,31.69,31.7,58.23,58.23,0,0,0,23.19,4.66,58.16,58.16,0,0,0,23.19-4.66,59.67,59.67,0,0,0,31.7-31.7Z" />
  <path class="uxlon-a" d="M375.4,125.31a101.16,101.16,0,0,1-2.53-24.25c0-40.11,15.28-52.36,37.71-52.36,7.44,0,14.08,1.36,19.65,4.62l16-21L470.79,0H450.72L431,26a70.36,70.36,0,0,0-7.43-1.61L442.07,0H422L404.07,23.6c-36.68,2.79-60.91,29.52-60.91,77.46,0,20.71,4.52,37.45,12.61,50Z" />
  <path class="uxlon-b" d="M441.34,65.06c4.46,8.14,7,19.8,7,36,0,40.12-15.28,52.37-37.71,52.37-11.45,0-21-3.2-27.67-11.66L366.36,163.5l-24.6,32.37h20.07l17.91-23.57a60,60,0,0,0,6.6,2.7l-15.86,20.87h20.06l13.19-17.36c2.24.18,4.52.28,6.85.28,40.3,0,67.42-27,67.42-77.73,0-25.9-7.09-45.6-19.37-58.69Z" />
</svg>