<svg xmlns="http://www.w3.org/2000/svg" viewBox="0 0 601.43 195.87"><defs><style>.uxlon-a{fill:var(--body-color-high, black)}.uxlon-b{fill:#f9b233}</style></defs><path class="uxlon-a" d="m332.9 179.16 18.07-23.72v-.58h-63.51V37.6h-24.3v141.56h69.74z"/><path class="uxlon-b" d="M252.87 37.36h-30.38L183.56 90h30.36l38.95-52.64z"/><path class="uxlon-a" d="M112.2 179.16h30.38l38.71-50.86 38.66 50.86h30.38L142.58 37.4H112.2l53.88 70.88-53.88 70.88zM576.62 37.88v95.71l-58.96-96h-24.29V178.7h24.29V82.28l58.96 96.75v-.04l24.81.04V37.92l-24.81-.04z"/><path class="uxlon-a" d="M114.43 142.81a58.16 58.16 0 0 0 4.66-23.19V71.47L93.85 37.36v78.56a35 35 0 0 1-2.63 13.47c-1.76 4.25-3.39 8.07-6.77 11.44a33.92 33.92 0 0 1-24.91 10.33 34.7 34.7 0 0 1-24.91-10.33c-3.37-3.37-5-7.19-6.76-11.44a34.85 34.85 0 0 1-2.63-13.47V37.37H0v82.25a58 58 0 0 0 4.66 23.19 59.7 59.7 0 0 0 31.69 31.7 58.23 58.23 0 0 0 23.19 4.66 58.16 58.16 0 0 0 23.19-4.66 59.67 59.67 0 0 0 31.7-31.7zM375.4 125.31a101.16 101.16 0 0 1-2.53-24.25c0-40.11 15.28-52.36 37.71-52.36 7.44 0 14.08 1.36 19.65 4.62l16-21L470.79 0h-20.07L431 26a70.36 70.36 0 0 0-7.43-1.61L442.07 0H422l-17.93 23.6c-36.68 2.79-60.91 29.52-60.91 77.46 0 20.71 4.52 37.45 12.61 50z"/><path class="uxlon-b" d="M441.34 65.06c4.46 8.14 7 19.8 7 36 0 40.12-15.28 52.37-37.71 52.37-11.45 0-21-3.2-27.67-11.66l-16.6 21.73-24.6 32.37h20.07l17.91-23.57a60 60 0 0 0 6.6 2.7l-15.86 20.87h20.06l13.19-17.36c2.24.18 4.52.28 6.85.28 40.3 0 67.42-27 67.42-77.73 0-25.9-7.09-45.6-19.37-58.69z"/></svg>