<svg xmlns="http://www.w3.org/2000/svg" xmlns:xlink="http://www.w3.org/1999/xlink" viewBox="0 0 284 80">
  <title>Xolvex logo</title>
  <defs>
    <linearGradient id="xolvex-a" y1="60" x2="24.85" y2="60" gradientUnits="userSpaceOnUse">
      <stop offset="0" stop-color="#6933ff" />
      <stop offset="1" stop-color="#223a7e" />
    </linearGradient>
    <linearGradient id="xolvex-b" x1="40" y1="12.42" x2="80" y2="12.42" gradientUnits="userSpaceOnUse">
      <stop offset="0" stop-color="#223a7e" />
      <stop offset="1" stop-color="#23a0f5" />
    </linearGradient>
    <linearGradient id="xolvex-c" y1="67.58" x2="40" y2="67.58" gradientUnits="userSpaceOnUse">
      <stop offset="0" stop-color="#23a0f5" />
      <stop offset="1" stop-color="#223a7e" />
    </linearGradient>
    <linearGradient id="xolvex-d" x1="55.15" y1="20" x2="80" y2="20" gradientUnits="userSpaceOnUse">
      <stop offset="0" stop-color="#223a7e" />
      <stop offset="1" stop-color="#6933ff" />
    </linearGradient>
    <linearGradient id="xolvex-e" xlink:href="#xolvex-c" x1="80" y1="67.58" y2="67.58"/>
    <linearGradient id="xolvex-f" xlink:href="#xolvex-b" y1="40" x2="40" y2="70.3"/>
    <linearGradient id="xolvex-g" xlink:href="#xolvex-a" x1="9.7" y1="40" x2="40" y2="40"/>
    <linearGradient id="xolvex-h" xlink:href="#xolvex-a" y1="20" x2="24.85" y2="20"/>
    <linearGradient id="xolvex-i" xlink:href="#xolvex-a" x1="80" x2="55.15"/>
    <linearGradient id="xolvex-j" xlink:href="#xolvex-a" x1="70.3" y1="40" x2="40" y2="40"/>
    <linearGradient id="xolvex-k" xlink:href="#xolvex-c" y1="12.43" y2="12.43"/>
    <linearGradient id="xolvex-l" xlink:href="#xolvex-b" y1="40" x2="40" y2="9.7"/>
  </defs>
  <path fill="var(--body-color-high, black)" d="m131.32 39 13.16-19h-10.56l-8.32 12.11L117.36 20H107l13.23 19.35L106 59.61h10.45l9.15-13.19 9.34 13.19h10.67z" />
  <path fill="var(--body-color-high, black)" d="M159.84 28.89c-9.77 0-16.32 6.16-16.32 15.5S150.07 60 159.84 60s16.27-6.28 16.27-15.56-6.56-15.55-16.27-15.55zm0 24c-4.52 0-7.63-3.39-7.63-8.37s3.11-8.38 7.63-8.38 7.58 3.4 7.58 8.38-3.11 8.35-7.58 8.35zM193.85 51.4a7.06 7.06 0 0 1-2.94.85c-1.58 0-2.71-1-2.71-3.28V20h-8.65v29.53c0 7.08 4.3 10.47 9.39 10.47a13.61 13.61 0 0 0 5.75-1.36zM214.52 29.16l-7.12 22.19-7.18-22.19-9 .07 9.61 25.3a7.84 7.84 0 0 0 7.33 5.08h3.53l11.46-30.45zM238.92 53.16a7.62 7.62 0 0 1-7.24-4.71l21-5.54c-.33-8.7-6.15-14.09-15-14-9.55.05-15.59 6.39-15.59 15.55S228.63 60 238.29 60A17.24 17.24 0 0 0 252 53.72l-5-4.53a10.79 10.79 0 0 1-8.08 3.97zm-.74-17.82a5.77 5.77 0 0 1 6 4.29l-13.34 3.62c.28-5.15 3.05-7.91 7.34-7.91z" />
  <path fill="var(--body-color-high, black)" d="m273.65 44 9.67-14.83h-9.5l-5.92 9.23-5.6-9.23h-10l9.78 14.89-10.46 15.55h9.6l6.68-10 6.09 10h10z" />
  <path fill="#223a7e" d="M80 0H49.7L40 9.7 30.3 0H0v30.3L9.7 40 0 49.7V80h30.3l9.7-9.7 9.7 9.7H80V49.7L70.3 40l9.7-9.7V0z" />
  <path fill="url(#xolvex-a)" d="M24.85 55.15 0 80V49.7L9.7 40l3.63 3.64 9.7 9.69 1.82 1.82z" />
  <path fill="url(#xolvex-b)" d="M80 0 55.15 24.85l-1.82-1.82-9.69-9.7L40 9.7 49.7 0H80z" />
  <path fill="url(#xolvex-c)" d="M40 70.3 30.3 80H0l24.85-24.85 1.82 1.82 9.7 9.7L40 70.3z" />
  <path fill="url(#xolvex-d)" d="M80 0v30.3L70.3 40 56.97 26.67l-1.82-1.82L80 0z" />
  <path fill="url(#xolvex-e)" d="M80 80H49.7L40 70.3l15.15-15.15 11.52 11.52L80 80z" />
  <path fill="url(#xolvex-f)" d="m40 70.3-3.63-3.63-9.7-9.7-1.82-1.82L40 40l13.33 13.33 1.82 1.82L40 70.3z" />
  <path fill="url(#xolvex-g)" d="M40 40 24.85 55.15l-1.82-1.82-9.7-9.69L9.7 40l13.34-13.33 1.81-1.82 1.82 1.82L40 40z" />
  <path fill="url(#xolvex-h)" d="m24.85 24.85-1.81 1.82L9.7 40 0 30.3V0l13.33 13.33 11.52 11.52z" />
  <path fill="url(#xolvex-i)" d="M80 49.7V80L66.67 66.67 55.15 55.15 70.3 40l9.7 9.7z" />
  <path fill="url(#xolvex-j)" d="M70.3 40 55.15 55.15l-1.82-1.82L40 40l15.15-15.15 1.82 1.82L70.3 40z" />
  <path fill="url(#xolvex-k)" d="M40 9.7 26.67 23.04l-1.82 1.81-11.52-11.52L0 0h30.3L40 9.7z" />
  <path fill="url(#xolvex-l)" d="M55.15 24.85 40 40 26.67 26.67l-1.82-1.82 1.82-1.81L40 9.7l3.64 3.63 9.69 9.7 1.82 1.82z" />
</svg>