<?xml version="1.0" encoding="utf-8"?>
<!-- Generator: Adobe Illustrator 22.1.0, SVG Export Plug-In . SVG Version: 6.00 Build 0)  -->
<svg version="1.1" id="Capa_1" xmlns="http://www.w3.org/2000/svg" xmlns:xlink="http://www.w3.org/1999/xlink" x="0px" y="0px"
	 viewBox="0 0 50 50" style="enable-background:new 0 0 50 50;" xml:space="preserve">
<style type="text/css">
	.head {fill:#FFCB4C;}
	.hand {fill:#F19020;}
	.s {fill:#65471B;}
</style>
	<circle class="head" cx="25" cy="25" r="17"/>
	<ellipse class="eye-left s" cx="20.1" cy="19.2" rx="2.1" ry="2.7"/>
	<ellipse class="eye-right s" cx="31.4" cy="20.2" rx="2.1" ry="2.7"/>
	<path class="mouth s" d="M21.5,29c-0.1-0.1-0.3-0.3-0.3-0.5c-0.1-0.5,0.1-0.9,0.6-1c4.5-1,7.6,1.4,7.7,1.5c0.4,0.3,0.5,0.8,0.2,1.2c-0.3,0.4-0.8,0.4-1.2,0.1c-0.1-0.1-2.5-1.9-6.2-1.1C22,29.3,21.7,29.2,21.5,29z"/>
	<path class="eyebrow-left s" d="M16.3,14.4c-0.2-0.1-0.3-0.3-0.4-0.4c-0.2-0.5,0-1,0.4-1.2c4.3-1.8,7.7,0,7.8,0c0.4,0.2,0.6,0.7,0.4,1.2c-0.2,0.4-0.7,0.5-1.2,0.3c-0.1-0.1-2.8-1.4-6.3,0C16.8,14.5,16.5,14.5,16.3,14.4z"/>
	<path class="eyebrow-right s" d="M28.4,18.1c-0.2-0.1-0.3-0.2-0.4-0.4c-0.2-0.4,0-0.9,0.5-1.1c4.4-1.5,7.7,0.5,7.8,0.6c0.4,0.3,0.6,0.8,0.3,1.2c-0.2,0.4-0.8,0.5-1.2,0.2c-0.1-0.1-2.7-1.6-6.3-0.4C28.9,18.3,28.7,18.2,28.4,18.1z"/>
	<path class="hand" d="M23.3,44.1c0,0,1.3-0.4,1.4-1.4c0.2-1-0.6-1.2-0.6-1.2s1-0.2,1.2-1.4c0.1-1.1-0.9-1.4-0.9-1.4s1-0.4,1-1.5 c0-1-1-1.4-1-1.4s5-1.2,5.6-1.3c0.5-0.1,1.3-0.6,1.1-1.7c-0.2-1.1-1.2-1.1-1.7-1s-6.7,1.6-8.9,2.1L19,34.3c-0.5,0.1-0.8-0.1-0.4-0.5 c0.5-0.5,0.8-1.1,0.9-2.1c0.1-1-0.2-2.3-0.4-2.8c-0.4-0.9-1-1.6-1.7-1.9c-1.1-0.4-1.9,0.3-1.5,1.6c0.6,1.9,0.2,3.4-0.8,4.3 c-2.4,2.2-3.6,3.7-2.8,7c0.8,3.6,4.4,5.9,8,5C20.1,44.8,23.3,44.1,23.3,44.1z"/>
</svg>
