<svg xmlns="http://www.w3.org/2000/svg" width="1em" height="1em" viewBox="0 0 257 257">
  <title>ChakraUI</title>
  <defs>
    <linearGradient id="gradient" x1="-435.5" y1="492" x2="-435.5" y2="235"
      gradientTransform="matrix(1, 0, 0, -1, 564, 492)" gradientUnits="userSpaceOnUse">
      <stop offset="0" stop-color="#7bcbd4" />
      <stop offset="1" stop-color="#29c6b7" />
    </linearGradient>
  </defs>
  <path fill="url(#gradient)"
    d="M128.5,0h0A128.5,128.5,0,0,1,257,128.5h0A128.5,128.5,0,0,1,128.5,257h0A128.5,128.5,0,0,1,0,128.5H0A128.5,128.5,0,0,1,128.5,0Z" />
  <path fill="white"
    d="M69.56,134l87.59-87a2,2,0,0,1,3.16,2.37l-32.6,59.75a2,2,0,0,0,1.76,3h56.34a2,2,0,0,1,1.36,3.46L88.45,207.69a2,2,0,0,1-3-2.64l46.74-64.47a2,2,0,0,0-1.62-3.18H71A2,2,0,0,1,69.56,134Z" />
</svg>