<svg xmlns="http://www.w3.org/2000/svg" width="48" height="42" viewBox="0 0 48 42" fill="none">
  <title>HitFilm Express</title>
  <path d="M24 42L48 0H0L24 42Z" fill="#FF7440"/>
  <path d="M41.11 4L24 33.94L6.89 4H41.11ZM48 0H0L24 42L48 0Z" fill="#FF4E2B"/>
  <path d="M24 8.06L29.11 17H18.89L24 8.06ZM24 0L12 21H36L24 0Z" fill="#FF4E2B"/>
  <path d="M44.55 2L24 37.97L3.45 2H44.55ZM48 0H0L24 42L48 0Z" fill="#FFFF90"/>
  <path d="M24 4.03L32.55 19H15.45L24 4.03ZM24 0L12 21H36L24 0Z" fill="#FFFFD7"/>
</svg>