<svg xmlns="http://www.w3.org/2000/svg" xmlns:xlink="http://www.w3.org/1999/xlink" aria-hidden="true" role="img" width="1em" height="1em" preserveAspectRatio="xMidYMid meet" viewBox="0 0 128 128">
  <title>Mongoose.js</title>
  <path fill="#800" d="M48.68,63.12s2.07,3.19,5.5,9.3l5.51-9.2,10,0V81a12.09,12.09,0,0,0,1.9-1.1c2-1.39,2.5-2.64,3.79-3.76s2.35-1.33,4.63-1.93c2.48-.65,3.83-.51,11.41-.73l2.41-.08A9.11,9.11,0,0,1,93,71.82a3.57,3.57,0,0,1-.42-2.31c.34-1,1.78-1.29,2.37-1.41,8.12-1.72,16.16-3.82,24.35-5.15a10.27,10.27,0,0,0,5.55-2.31,10.49,10.49,0,0,0,2.89-5.51c.43-1.66.22-2.22,0-2.54a4.68,4.68,0,0,0-2.6-1.26h0S124.48,52.89,124,54c-.16.39-.38,1-.64,1.65.08-1,.21-2,.41-3.11.1-.54.21-1.07.33-1.58-1.36-.62-3.29-1.48-5.64-2.41a137.18,137.18,0,0,0-21.32-6.2C87,40.14,80.52,38.76,71.5,39.05c-2.63.08-4.8.28-6.3.45.9.42,1.81.87,2.74,1.34,1.43.73,2.8,1.47,4.09,2.21-2.49-.94-4.62-1.66-6.24-2.18,0,0-5.77-1.84-10.42-1.5a2.84,2.84,0,0,0-1.95.77,3.06,3.06,0,0,0-.64,2.06c-.18,4.79,2,8.65,4.87,12.17a24.64,24.64,0,0,0,10.68,7.56c-1.78-.48-9.34-2.71-13.62-10.16A21.13,21.13,0,0,1,52,42.39c-.57,0-1.43-.06-2.47-.07-12.59-.06-22.13,4.12-27.31,6.45a72.55,72.55,0,0,0-17,10.58A68.83,68.83,0,0,0,0,64.23,42.36,42.36,0,0,1,5.83,62.6a37.62,37.62,0,0,1,15.1-.37,25.88,25.88,0,0,1,12.32,5.59,66.14,66.14,0,0,1,4.92,4.59V63.17ZM69.26,50.48a13.23,13.23,0,0,0-3.83-1.59,7.68,7.68,0,0,1,1.39,1.68,8,8,0,0,1,.64,1.35,8.77,8.77,0,0,0-1.83-1,8.64,8.64,0,0,0-2.08-.54c.7.67,1.44,1.42,2.18,2.26.51.58,1,1.16,1.42,1.72l-1.37-.24C65.4,54,65,54,64.67,53.89c.51.5,1,1,1.58,1.67a25.07,25.07,0,0,1,1.59,2c-6.09-3.18-8.59-6.77-9.7-8.88-.39-.73-2.17-4.13-1.29-4.88.31-.27.85-.12,1.32,0a29.21,29.21,0,0,1,8.51,4.52C67.3,48.81,68.2,49.54,69.26,50.48ZM96.73,63.22a27.88,27.88,0,0,0-6.88,3.26,2.23,2.23,0,0,0-1,2,14,14,0,0,0,.34,3c-.38-.45-2-2.51-1.35-4.38a3.48,3.48,0,0,1,1.5-1.7C92.79,63.13,100,62,101.59,61.69,99.4,62.4,97.71,62.92,96.73,63.22ZM101.29,51c-3.25.44-6.51.76-9.74-.1a3.69,3.69,0,0,1-2.1-1.13c-1-1.45-2.39-1.92-3.94-2.43,5.86.07,11.5,1.42,17.53,2.92A9.33,9.33,0,0,1,101.29,51ZM59.19,75V89h-10V74.91c1.71,2.62,3.28,5,5,7.62Z"/>
</svg>