<svg xmlns="http://www.w3.org/2000/svg" viewBox="0 0 128 128">
  <title>Security</title>
  <path fill="#0f5094" d="M113.58,63.92A78.51,78.51,0,0,1,97.75,104Q84.25,121.87,64,128V63.92Z" />
  <path fill="#0370c8" d="M64,63.92V128q-20.13-6.09-33.75-24A79.94,79.94,0,0,1,14.42,63.92Z" />
  <path fill="#33bff0"
    d="M64,0V63.92H14.42A23.17,23.17,0,0,1,14,60.27v-42a78.31,78.31,0,0,0,25.58-4.39A78.45,78.45,0,0,0,64,0Z" />
  <path fill="#0883d9"
    d="M64,0V63.92h49.58a23.17,23.17,0,0,0,.42-3.65v-42a78.31,78.31,0,0,1-25.58-4.39A78.45,78.45,0,0,1,64,0Z" />
</svg>