<svg xmlns="http://www.w3.org/2000/svg" viewBox="0 0 390 80">
	<path fill="var(--body-color-high, black)" d="M147,55.3c0,4.7-1.2,8.4-3.6,11.3c-2.1,2.7-5.3,4.3-8.8,4.3c-1.3,0-2.6-0.1-3.8-0.5c-1.2-0.4-2.4-0.9-3.4-1.5
			l-0.4,1.5h-8.7V29.8h9.1v14.4c1.3-1.1,2.6-2,4.1-2.8c1.5-0.7,3.2-1.1,4.8-1.1c3.1-0.2,6.1,1.3,7.9,4C146.1,46.9,147,50.6,147,55.3
			z M137.7,55.5c0-2.9-0.4-5-1.3-6.3c-1-1.3-2.5-2-4.1-1.9c-0.8,0-1.6,0.1-2.4,0.4c-0.8,0.3-1.7,0.7-2.4,1.2v14.7
			c0.6,0.2,1.2,0.4,1.8,0.5c0.6,0.1,1.2,0.1,1.8,0.1c1.9,0.1,3.8-0.7,4.9-2.2C137.2,60.6,137.7,58.4,137.7,55.5L137.7,55.5z
			 M157.5,70.3h-9.1V29.7h9.1V70.3z M187.5,70.3h-9.1v-3.2c-1.3,1.1-2.8,2.1-4.4,3c-1.5,0.7-3.1,1-4.7,1c-2.6,0.1-5.1-0.9-6.8-2.8
			c-1.6-1.8-2.4-4.6-2.4-8.3V41h9.2v14.5c0,1.5,0,2.8,0.1,3.7c0.1,0.8,0.2,1.7,0.6,2.4c0.3,0.6,0.7,1.1,1.3,1.4
			c0.8,0.3,1.6,0.5,2.4,0.5c0.8,0,1.5-0.2,2.3-0.5c0.9-0.3,1.7-0.7,2.4-1.3V41h9.1L187.5,70.3z M206.2,71.1c-5.5,0-9.8-1.3-12.7-4
			c-3-2.6-4.4-6.4-4.4-11.3c0-4.8,1.4-8.6,4.1-11.5c2.7-2.9,6.6-4.3,11.5-4.3c4.5,0,7.9,1.2,10.1,3.6c2.3,2.4,3.4,5.9,3.4,10.4v3.3
			h-20.1c0,1.2,0.3,2.3,0.9,3.4c0.5,0.9,1.1,1.6,1.9,2.2c0.8,0.6,1.8,0.9,2.7,1.2c1.1,0.2,2.3,0.4,3.4,0.4c1.1,0,2.1-0.1,3.1-0.4
			c1-0.2,1.9-0.5,2.8-0.9c0.7-0.3,1.4-0.7,2.1-1.1c0.5-0.3,1.1-0.6,1.6-1h1v7.5c-0.8,0.3-1.4,0.6-2,0.8c-0.8,0.3-1.7,0.6-2.5,0.8
			c-1,0.3-2,0.5-3.1,0.6C208.8,71,207.5,71.1,206.2,71.1L206.2,71.1z M209.3,51.9c0.1-1.6-0.4-3.1-1.3-4.4c-1-1.1-2.4-1.6-3.9-1.5
			c-1.6-0.1-3.1,0.5-4.2,1.6c-1.1,1.2-1.6,2.7-1.7,4.3L209.3,51.9z M250.3,55.7c0,4.8-1.3,8.6-4,11.4c-2.6,2.8-6.4,4.2-11.2,4.2
			c-4.8,0-8.5-1.4-11.2-4.2s-4-6.6-4-11.4c0-4.9,1.3-8.7,4-11.5c2.6-2.8,6.4-4.1,11.2-4.1c4.8,0,8.5,1.4,11.2,4.2
			C249,47,250.3,50.9,250.3,55.7L250.3,55.7z M240.9,55.7c0-1.5-0.1-2.9-0.4-4.3c-0.2-1-0.6-1.9-1.2-2.8c-0.5-0.7-1.1-1.2-1.8-1.5
			c-0.7-0.3-1.5-0.4-2.3-0.4c-0.8,0-1.5,0.1-2.2,0.4c-0.7,0.3-1.4,0.8-1.8,1.5c-0.6,0.8-1,1.8-1.2,2.8c-0.3,1.5-0.5,3-0.5,4.5
			c0,1.5,0.1,2.9,0.4,4.3c0.2,0.9,0.6,1.8,1.1,2.6c0.5,0.7,1.1,1.2,1.8,1.5c0.8,0.3,1.6,0.5,2.4,0.5c0.8,0,1.5-0.2,2.2-0.5
			c0.7-0.3,1.4-0.8,1.8-1.4c0.6-0.8,1-1.7,1.2-2.7C240.8,58.7,240.9,57.2,240.9,55.7L240.9,55.7z M279.7,54.9c0,4.6-1.2,8.2-3.5,11
			c-2,2.7-5.2,4.2-8.6,4.2c-1.3,0-2.5-0.1-3.7-0.5c-1.2-0.4-2.3-0.9-3.4-1.5V80h-8.9V41h8.9v3c1.2-1.1,2.5-2,4-2.7
			c1.5-0.7,3.1-1.1,4.7-1c3.1-0.1,6,1.4,7.7,4C278.8,46.8,279.7,50.4,279.7,54.9L279.7,54.9z M270.6,55c0-2.8-0.4-4.8-1.3-6.1
			c-0.9-1.3-2.4-2-4-1.9c-0.8,0-1.6,0.1-2.4,0.4c-0.8,0.3-1.6,0.7-2.3,1.1V63c0.5,0.2,1,0.4,1.6,0.4c0.7,0.1,1.3,0.1,2,0.1
			c1.9,0.1,3.7-0.7,4.8-2.1C270.1,60.1,270.6,57.9,270.6,55L270.6,55z M293.9,70.9c-3.7,0-6.4-0.8-8.1-2.3c-1.7-1.5-2.5-4-2.6-7.5
			V47.3h-3.5V41h3.5v-8.4h9.1V41h8.8v6.4h-8.8v10.4c0,1,0,2,0,2.7c0,0.7,0.1,1.4,0.4,2.1c0.3,0.6,0.7,1.1,1.3,1.5
			c0.8,0.4,1.8,0.6,2.7,0.5c1.2-0.1,2.4-0.4,3.6-0.9h0.8v6.5c-1,0.3-2.1,0.5-3.2,0.6C296.7,70.8,295.3,70.9,293.9,70.9L293.9,70.9z
			 M311.9,70.3h-9.1V41h9.1V70.3z M350,70.3V55.7c0-1.4,0-2.7-0.1-3.7c0-0.8-0.2-1.6-0.5-2.4c-0.2-0.6-0.7-1.1-1.2-1.4
			c-0.7-0.3-1.5-0.5-2.3-0.4c-0.7,0-1.4,0.2-2.1,0.5c-0.8,0.4-1.5,0.8-2.2,1.3v20.8h-9.2V55.7c0-1.4,0-2.6-0.1-3.6
			c0-0.8-0.2-1.7-0.5-2.4c-0.2-0.6-0.7-1.1-1.2-1.4c-1.4-0.6-3.1-0.6-4.5,0.1c-0.7,0.4-1.4,0.8-2.1,1.2v20.8H315V41h9.1v3.2
			c1.3-1.1,2.7-2.1,4.2-3c1.4-0.7,2.9-1.1,4.5-1.1c1.7,0,3.3,0.4,4.7,1.3c1.4,0.9,2.5,2.2,3.1,3.8c1.5-1.4,3.2-2.7,4.9-3.8
			c1.4-0.8,3.1-1.3,4.7-1.3c1.3,0,2.5,0.2,3.7,0.7c1.1,0.4,2,1.1,2.7,2c0.8,1,1.5,2.1,1.8,3.4c0.5,1.6,0.7,3.4,0.6,5.1v19.1
			L350,70.3z M380.3,67.2l-1.7,1.4c-0.6,0.5-1.3,0.9-2,1.3c-0.8,0.4-1.6,0.7-2.4,0.9c-1.1,0.2-2.2,0.3-3.2,0.3
			c-2.4,0.1-4.8-0.9-6.5-2.6c-1.7-1.7-2.6-4.1-2.6-6.6c-0.1-1.8,0.4-3.7,1.3-5.3c0.9-1.4,2.2-2.5,3.8-3.2c1.9-0.9,3.9-1.4,5.9-1.7
			c2.3-0.3,4.8-0.6,7.4-0.7v-0.2c0.1-1.4-0.6-2.7-1.8-3.4c-1.7-0.7-3.5-1-5.4-0.9c-1.3,0-2.6,0.2-3.8,0.6c-1.4,0.4-2.9,0.9-4.2,1.5
			h-0.8v-7.1c0.9-0.3,2.4-0.6,4.4-0.9c2-0.4,4.1-0.5,6.1-0.5c5,0,8.7,0.8,11,2.5c2.3,1.7,3.5,4.2,3.5,7.7v19.9h-9.1L380.3,67.2z
			 M380.3,62.7v-6.1l-3.8,0.4c-1,0.1-1.9,0.3-2.8,0.7c-0.7,0.2-1.4,0.7-1.9,1.3c-0.5,0.7-0.7,1.5-0.7,2.3c-0.1,1.1,0.3,2.1,1.1,2.8
			c1,0.6,2.1,0.8,3.3,0.8c0.8,0,1.7-0.2,2.5-0.5C378.9,63.9,379.6,63.3,380.3,62.7L380.3,62.7z M307.4,25.7c-3.4,0-6.2,2.8-6.2,6.2
			c0,3.4,2.8,6.2,6.2,6.2c3.4,0,6.2-2.8,6.2-6.2c0,0,0,0,0,0C313.6,28.5,310.8,25.7,307.4,25.7z"/>
	<path fill="#2a234a" d="M99.5,49.5c0,7.2-1.5,14.3-4.6,20.8H5.1C-6.3,45.4,4.5,16,29.3,4.6S83.5,3.9,95,28.7C98,35.2,99.5,42.3,99.5,49.5z"/>
</svg>