<svg xmlns="http://www.w3.org/2000/svg" viewBox="0 0 275 77.05">
	<title>Inbright</title>
	<path fill="#F39322" d="M145.15 9.85a6.56 6.56 0 0 0-6.55 6.56 6.05 6.05 0 0 0 .21 1.6 9.11 9.11 0 0 1 12.68 0 6.05 6.05 0 0 0 .21-1.6 6.56 6.56 0 0 0-6.55-6.56zM144.12 5.88l.19 1.44a7.75 7.75 0 0 1 .84 0 7.45 7.45 0 0 1 .83 0l.19-1.46.53-4h-3.1l.51 4zM154.31 5l-2.47 3.22-.89 1.15a8.44 8.44 0 0 1 1.19 1.2l1.18-.92 3.21-2.48A14.24 14.24 0 0 0 154.31 5zM139.36 9.35l-.9-1.18L136 5a15.11 15.11 0 0 0-2.2 2.18l3.2 2.45 1.19.92a8.44 8.44 0 0 1 1.17-1.2zM159.73 14.78l-4 .52-1.49.18c0 .31.05.62.05.93a6.79 6.79 0 0 1 0 .78l1.48.18 4 .52c0-.51.08-1 .08-1.51a14.7 14.7 0 0 0-.12-1.6zM134.59 15.31l-4-.52c-.05.54-.08 1.07-.08 1.62s0 1 .08 1.51l4-.52 1.48-.19a7.26 7.26 0 0 1 0-.8 6.85 6.85 0 0 1 .05-.91z" />
	<path fill="var(--body-color-high, #3466AF)" d="M0 62.17h13.55V10.28L0 0v62.17zM43.57 21.61c-5.85 0-10.44 2.44-13.25 7v-6.49H17.15v40.05h13.17V41c.52-4.52 3.41-7.55 7.85-7.63 4.14 0 6.81 2.82 6.81 7.33v21.47h13.1V36.93c0-9.4-5.77-15.32-14.51-15.32zM86.66 21.68a14.3 14.3 0 0 0-11.77 5.62v-9.77L61.71 7.25v54.92h13.18V57A14.65 14.65 0 0 0 87 62.61c11.11 0 18.36-8.07 18.36-20.28-.05-12.43-7.52-20.65-18.7-20.65zM83.4 52c-5 0-8.51-4-8.51-9.91s3.48-10 8.51-10 8.66 4.07 8.66 10S88.58 52 83.4 52zM122.18 28.79v-6.67H109v40.05h13.18V41.74c.66-5.55 5.55-8.81 12.88-8.07V21.61a14.4 14.4 0 0 0-12.88 7.18zM145.15 18a6.56 6.56 0 0 0-6.55 6.56v37.6h13.1V24.57a6.56 6.56 0 0 0-6.55-6.57zM183.72 27c-2.66-3.41-6.66-5.33-11.69-5.33-9.92 0-16.8 7.55-16.8 19 0 11.62 7.1 19.32 17.09 19.32 5 0 8.81-1.85 11.4-5.26V59c0 4.66-3.62 7.69-9.62 7.69a22 22 0 0 1-12.36-3.92l-4.59 9.11a33.26 33.26 0 0 0 17.91 5.18c13 0 21.77-7.11 21.77-18.43V22.12h-13.11zm-8.06 23.32c-4.89 0-8.15-3.85-8.15-9.33s3.26-9.4 8.15-9.4 8.06 3.77 8.06 9.4c0 5.49-3.25 9.34-8.06 9.34zM227 21.61c-5.85 0-10.44 2.44-13.25 7V7.25h-13.2v54.92h13.18V42.41c0-5.26 3-9 7.85-9 4.21 0 6.81 2.82 6.81 7.33v21.43h13.17V36.93c0-9.4-5.77-15.32-14.56-15.32zM272.48 50.77a13.85 13.85 0 0 1-5 1.33c-2.29.08-3.62-1.26-3.62-4.22v-15.1h10.36v-8.73H263.9V13h-13.1v11.1h-5.56v8.73h5.56V50c0 8.29 5.62 12.88 13.39 12.8A22.07 22.07 0 0 0 275 60.1z" />
</svg>
