<svg xmlns="http://www.w3.org/2000/svg" viewBox="0 0 694 154.81">
  <path fill="#0a66c2"
    d="M5.1,1.6C0,5.2,0,5.1,0,75.1c0,70.9-.1,70.2,5.6,72.8,3.3,1.5,136.6,1.6,139.5.1,4.9-2.7,4.9-2.1,4.9-73.5,0-72.3.1-70.8-5.5-73.3C142.6.3,124.7,0,74.7,0,14.1,0,7.2.2,5.1,1.6ZM37.7,21.1c6.9,2.6,10.5,10,8,16.2C42,46.1,32.3,48.8,25.6,42.9c-7.7-6.7-6.2-17.5,2.9-21.5C32.2,19.8,34.1,19.7,37.7,21.1Zm73.8,34.3a22.69,22.69,0,0,1,14.2,14c1.6,4.4,1.8,8.8,1.8,31.6v26.5h-22L105,104c-.5-24.3-.9-26.8-5-29-2.7-1.5-9.6-1.2-12.9.4-5,2.6-5.5,5.2-6.1,29.6l-.5,22.5h-22l-.3-35.8L58,56H80v4.7l.1,4.8,2-2.7c2.2-3,7.5-6.6,11.7-7.8C98.2,53.7,106.3,53.9,111.5,55.4ZM44.8,91.7l-.3,35.8h-22l-.3-35.8L22,56H45Z" />
  <path fill="currentColor"
    d="M195,74.5V127h55v-8H204V22h-9ZM529.7,31.8c-1.7,1.9-2.3,7.8-.9,9.8,1.1,1.6,4.8,3.4,7.2,3.4,2.8,0,7-4.3,7-7.3a9.93,9.93,0,0,0-2.1-5.1C538.4,29.4,532.3,28.9,529.7,31.8Zm-254,29.7c-17.3,6.4-25.9,27.2-19.1,46.8,2.2,6.5,10,14.8,16.6,17.8,4.4,2,7,2.4,14.8,2.4,8.8,0,10.1-.3,16.2-3.3,6.3-3.1,13.8-10,13.8-12.7,0-.6-1.4-1.8-3.1-2.6-3.2-1.5-3.2-1.5-8.3,3.6-5.7,5.7-10.3,7.5-19,7.5-10.5,0-18.9-5.9-22.6-15.7-3.4-9-5.7-8.3,27.1-8.3h29.2l-.7-5.3c-1.1-8.1-2.3-11.8-5.8-17.6S304.3,62.7,298.2,61c-5.2-1.4-18-1.1-22.5.5Zm24.1,9.2c5.2,3.2,10,10,10.9,15.6l.6,3.7H263l.6-2.8C267.3,70.4,285.7,62,299.8,70.7Zm49.5-9.1c-5.7,2.1-13.9,9.6-16.8,15.4-6.7,13.3-4.6,31.3,5,41.8,7.2,8,21.5,12.2,32,9.3,5.7-1.5,13.2-6.5,15.5-10.3l2-3.3V127h9V61h-8v6c0,3.3-.2,6-.5,6s-2-1.6-3.7-3.5a36.42,36.42,0,0,0-7.6-6.3c-3.9-2.2-5.9-2.7-13.7-2.9C356.3,60.1,352.2,60.5,349.3,61.6Zm24.4,8.2c11,5.7,16.3,20,12.4,33.7-2.2,7.3-9.8,14.8-17.3,17-19.4,5.6-36.4-14-30.4-35,1.4-4.5,2.9-6.9,6.9-10.9,2.9-2.9,6.8-5.7,8.7-6.4,5-1.6,14.8-.8,19.7,1.6ZM434.1,61a17.5,17.5,0,0,0-10.6,7.8c-1.1,1.7-2.3,3.1-2.7,3.2s-.8-2.5-.8-5.5V61h-8v66h9V106.1c0-16.2.3-21.8,1.5-25.2,2.7-7.7,8.3-11.9,16.1-12.2,4.4-.2,4.4-.2,4.4-3.8,0-3-.4-3.8-2.2-4.3a20.9,20.9,0,0,0-2.8-.5C437.7,60.2,436,60.6,434.1,61Zm40.1.9a56.8,56.8,0,0,0-7.6,4.6,17.4,17.4,0,0,1-3.9,2.5c-.4,0-.7-1.8-.7-4V61h-8v66h8V79.2l4.9-4.4c11.4-10.3,26.5-9.7,32.2,1.2,1.7,3.1,1.9,6,1.9,27.2V127h9.1l-.3-25.8c-.3-25.3-.3-25.8-2.8-30.2a30.26,30.26,0,0,0-6.8-7.5c-3.9-2.7-5.2-3-13-3.3-7-.2-9.5.1-13,1.7Zm103.8.7a35.26,35.26,0,0,0-8.2,5.2L567,70.4V61h-9v66h9V78l5.1-4c6.9-5.4,14.8-7.7,20.9-6.1a17.75,17.75,0,0,1,11.9,11c.7,2.4,1.1,12.3,1.1,26V127h8V76.2l-2.8-5.3c-2.2-4.3-3.8-5.9-8.1-8.1C595.8,59,586,58.9,578,62.6Zm67.5.2a34.48,34.48,0,0,0-15.9,16.1c-1.7,3.8-2.1,6.5-2.1,15.6,0,10.6.1,11.2,3.4,17.3,6.1,11.3,15.4,16.7,28.6,16.7,10,0,16-2.6,22.4-9.3l4.4-4.7-.6,8.2c-.7,9.6-2.9,14.7-8.3,19.1-8.3,6.8-26.2,6.9-39.4.2l-4-2v4.5c0,3.9.4,4.6,2.8,5.9a69.14,69.14,0,0,0,11.2,3.2c21.4,4.3,40.1-3.2,44.4-17.7,1.3-4.3,1.6-11.4,1.6-40.1V61h-8v6c0,3.3-.2,6-.5,6s-2.2-1.9-4.3-4.2c-5.6-6.2-12-8.8-21.7-8.8C652.8,60,650.5,60.5,645.5,62.8Zm26.1,7c10.3,5.3,16,18.2,13.4,30.6-3.5,17.2-21.3,26-35.9,18-20.7-11.2-17.6-43.1,4.9-50.5C658,66.6,667.3,67.6,671.6,69.8ZM521,64.4v3.5l5.3.3,5.2.3.3,29.2L532,127h8V61H521Z" />
</svg>