<svg xmlns="http://www.w3.org/2000/svg" viewBox="0 0 1000 759">
   <title>PricewaterhouseCoopers</title>
   <path fill="#e66aa3" d="M1000,325.9H636.27V232.8H1000Z" />
   <path fill="#f3be25" d="M952.76,325.9H636.27V93.05H952.76V325.9Z" />
   <path fill="#ef9d35" d="M822,325.9H636.27V0H822Z" />
   <path fill="#f3bc87" d="M858.54,325.9H636.27V36.37H858.54Z" />
   <path fill="#e3721a" d="M636.21,36.42V325.87H822V36.42Z" />
   <path fill="#ad1e17" d="M450,325.9H636.27v46.56H450V325.9Z" />
   <path fill="#e88d15" d="M636.21,93V325.87H858.65V93Z" />
   <path fill="#d85614" d="M636.21,93V325.87H822V93Z" />
   <path fill="#c24417" d="M752.41,325.9H636.27V186.14H752.41V325.9Z" />
   <path fill="#db4e18" d="M636.21,232.87v93H952.86v-93Z" />
   <path fill="#d13a16" d="M636.21,232.87v93H858.65v-93Z" />
   <path fill="#c22618" d="M636.21,232.87v93H822v-93Z" />
   <path fill="#ad1e17" d="M636.21,232.87v93H752.53v-93Z" />
   <g fill="var(--body-color-high, black)">
      <path
         d="
      M676.76,501.26c-31.69,5.63-48.59,29.57-48.59,71.12,0,42.26,22.53,70.43,55.63,70.43,16.2,0,30.28-5.64,59.86-20.43v34.51c-35.91,16.9-57,21.13-85.21,21.13-31.69,0-54.22-7.75-71.83-26.76C568.31,633,558.45,609,558.45,581.54c0-59.86,45.07-101.41,110.56-101.41,43,0,73.24,20.42,73.24,49.3,0,19-14.08,32.39-34.5,32.39-10.57,0-19-3.52-31-9.86" />
      <path
         d="M518.31,581.54c28.87-35.92,39.44-50.71,39.44-68.31s-14.09-33.1-33.81-33.1c-11.26,0-21.83,6.34-26.76,12v73.95L450,629.43V485.76H404.93L330.28,609V485.76H304.93l-68.31,15.5v17.6l37.32,3.52V675.2h47.19L393,556.89V675.2h52.81" />
      <path
         d="M93.66,651.26h10.57c38,0,59.15-23.24,59.15-69.72,0-38.73-16.9-59.86-48.59-59.86-4.23,0-10.56.7-21.13,2.82V651.26Zm0,83.09,31,7V759H2.82V741.4l28.17-7V521.68H0V504.07l73.94-22.53H93.66v25.35c34.51-21.13,46.48-24.65,64.79-24.65,40.85,0,71.83,38,71.83,90.85,0,60.56-41.55,102.11-104.93,102.11-7,0-19-.7-31.69-1.41" />
   </g>
</svg>