<svg id="Capa_1" data-name="Capa 1" xmlns="http://www.w3.org/2000/svg" viewBox="0 0 168.58 25">
  <title>Veracode</title>

  <g fill="currentColor">

    <path
      d="M22.44.4c-1.58,0-3.16,0-4.74,0a.43.43,0,0,0-.5.33Q14.61,7.4,12,14.06c-.18.46-.37.91-.57,1.42l-.14-.33L5.63.71A.4.4,0,0,0,5.18.4H.44c-.51,0-.51,0-.32.45Q4.85,12.48,9.59,24.11c.06.15.08.33.22.44.11-.12.26-.07.38-.07,1,0,1.91,0,2.86,0l.11-.22,2.28-5.63Q19.07,9.69,22.7.76C22.84.42,22.75.4,22.44.4Zm6.81,4.86h8.53c.27,0,.34-.07.33-.34,0-1.38,0-2.77,0-4.15,0-.32-.1-.37-.39-.37H24.32a.31.31,0,0,0-.18,0c-.13.1-.05.24-.05.37,0,2.5,0,5,0,7.49V24.22c0,.22,0,.37.31.37H38c.06,0,.1,0,.12-.11h0V19.81H29.71c-.14,0-.3.06-.42-.06l-.06-.08c-.13-.09-.09-.22-.09-.33V15.2c0-.11-.05-.25.09-.33l.06-.08c.12-.13.28-.07.42-.07H38.1V10.06h0c0-.15-.15-.08-.23-.08H29.29l-.06-.07h0ZM97.3,17.19a1.16,1.16,0,0,0-1.18.51,2.83,2.83,0,0,1-.48.5,6.86,6.86,0,0,1-5.79,1.89,7.7,7.7,0,0,1-6.39-7.25A7.37,7.37,0,0,1,85.3,7.43a7.16,7.16,0,0,1,11.23.22.74.74,0,0,0,.64.31h5.22c.12,0,.24,0,.35,0A12.74,12.74,0,0,0,88.67.19,12.43,12.43,0,0,0,78.29,12.87a12.63,12.63,0,0,0,24.3,4.33h-.36C100.58,17.2,98.94,17.22,97.3,17.19Zm62.87-2.4c2.67,0,5.34,0,8,0,.3,0,.4-.07.4-.38q0-2,0-4.08c0-.3-.08-.38-.39-.38h-8.08c-.35,0-.43-.1-.43-.43,0-1.3,0-2.59,0-3.89,0-.35.1-.42.43-.42,2.69,0,5.39,0,8.08,0,.19,0,.39.06.38-.27,0-1.44,0-2.88,0-4.33,0-.17,0-.25-.25-.24h-4.91q-4.22,0-8.44,0c-.34,0-.45.07-.45.43,0,3.88,0,7.77,0,11.65s0,7.74,0,11.61c0,.35.07.48.46.47,1.79,0,3.57,0,5.36,0l7.9,0c.24,0,.34-.07.33-.33,0-1.39,0-2.77,0-4.15,0-.32-.11-.37-.4-.37-1.81,0-3.63,0-5.44,0H160c-.15,0-.31,0-.3-.2,0-1.44,0-2.88,0-4.33C159.69,14.84,159.84,14.79,160.17,14.79Z" />
    <path
      d="M79.71,23.42Q75.36,12.08,71,.74a.45.45,0,0,0-.5-.34q-1.72,0-3.45,0a.52.52,0,0,0-.6.41Q63.1,9.71,59.71,18.6l-1.86,4.91c-.28-.27-5.26-7.21-5.38-7.49,3.09-.9,5-2.81,5.52-6,0-.16,0-.33,0-.5a8,8,0,0,0,0-2.13A7.4,7.4,0,0,0,51.12.54h0l-.5,0A6.4,6.4,0,0,0,49.23.42c-2.55,0-5.09,0-7.64,0-.35,0-.42.1-.42.42q0,11.66,0,23.29c0,.12,0,.25,0,.37h5.13V16.22c.89,1.13,1.7,2.26,2.52,3.39l3.52,4.87c3.34,0,6.69,0,10,0a1.59,1.59,0,0,0,.48-.07c0-.09.09-.17.12-.26.53-1.4,1.07-2.8,1.59-4.21a.46.46,0,0,1,.51-.36c2.37,0,4.73,0,7.09,0a.66.66,0,0,1,.77.53c.53,1.47,1.11,2.92,1.67,4.37.12-.14.24,0,.35,0q2.35,0,4.71,0c.17,0,.33,0,.31-.24S79.82,23.69,79.71,23.42ZM51.09,11.37a8.91,8.91,0,0,1-1.82.49h0l-.61.05h-.1l-1.94,0c-.2,0-.28,0-.28-.25q0-3.11,0-6.19c0-.18,0-.26.24-.25h1.79c.45,0,.91,0,1.37,0l.42,0A5,5,0,0,1,51.68,6a3.06,3.06,0,0,1,1.25,3A2.82,2.82,0,0,1,51.09,11.37ZM70.74,15h-4c-.1,0-.23,0-.28-.1.21-.82.55-1.6.82-2.4.45-1.28.91-2.55,1.37-3.83a.25.25,0,0,1,.12-.19c.55,1.57,1.11,3.13,1.65,4.7A15.06,15.06,0,0,1,71,14.91C71,15.05,70.84,15,70.74,15Z" />
  </g>
  <path fill="#00b3e6"
    d="M136.68.81c0-.29-.06-.39-.38-.39q-4.19,0-8.36,0c-.24,0-.26.09-.26.27q0,2.13,0,4.26c0,.24.07.31.31.31h3c.54,0,.48-.06.48.46V24.35c0,.18,0,.24.24.24,1.51,0,3,0,4.52,0,.34,0,.4-.09.4-.4,0-3.89,0-7.79,0-11.68S136.67,4.7,136.68.81Zm14.66,6.38a10.64,10.64,0,0,0-6.34-6,16.45,16.45,0,0,0-6.07-.77c-.24,0-.21.15-.21.29,0,1.43,0,2.84,0,4.26,0,.23.08.29.3.29a17.21,17.21,0,0,1,2.27.06A6.45,6.45,0,0,1,146,8.08a8.3,8.3,0,0,1,1.26,6,6.15,6.15,0,0,1-4.84,5.39,12.45,12.45,0,0,1-3.39.29c-.23,0-.31.06-.31.3,0,.7,0,1.41,0,2.11s0,1.43,0,2.15c0,.2.05.27.27.27A18.62,18.62,0,0,0,144.3,24,10.84,10.84,0,0,0,150,20.43a12.43,12.43,0,0,0,2.53-7.81A12.61,12.61,0,0,0,151.34,7.19ZM116,0A12.58,12.58,0,0,0,103.3,12.45,12.68,12.68,0,1,0,116,0Zm5,18.23a6.74,6.74,0,0,1-4.79,1.94A7.43,7.43,0,0,1,108.64,14a7.79,7.79,0,0,1,4.2-8.56,7.31,7.31,0,0,1,10.07,4.19,8.68,8.68,0,0,1,.58,3A7.73,7.73,0,0,1,121,18.23Z" />
</svg>